<svg fill="none" height="73" viewBox="0 0 72 73" width="72" xmlns="http://www.w3.org/2000/svg"><g fill="#000"><path d="m37.1676 4.00796h-2.3351c-.2581 0-.5056-.10251-.688-.28498-.1825-.18247-.285-.42995-.285-.68799 0-.25805.1025-.50553.285-.688.1824-.18247.4299-.28498.688-.28498h2.3351c.258 0 .5055.10251.688.28498s.285.42995.285.688c0 .25804-.1025.50552-.285.68799s-.43.28498-.688.28498z"/><path d="m45.7298 13.7377h-19.4595c-.258 0-.5055-.1025-.688-.285-.1824-.1825-.2849-.4299-.2849-.688v-9.72972c0-.25804.1025-.50552.2849-.68799.1825-.18247.43-.28498.688-.28498h2.919c.258 0 .5055.10251.688.28498.1824.18247.2849.42995.2849.68799 0 .25805-.1025.50553-.2849.688-.1825.18247-.43.28498-.688.28498h-1.946v7.78374h17.5135v-7.78374h-1.9459c-.2581 0-.5055-.10251-.688-.28498s-.285-.42995-.285-.688c0-.25804.1025-.50552.285-.68799s.4299-.28498.688-.28498h2.9189c.258 0 .5055.10251.688.28498s.285.42995.285.68799v9.72972c0 .2581-.1025.5055-.285.688s-.43.285-.688.285z"/><path d="m36 40.0079c-.258 0-.5054-.1026-.6879-.285l-8.7567-8.7568c-.0905-.0904-.1622-.1977-.2112-.3158s-.0742-.2447-.0742-.3726c0-.1278.0252-.2545.0742-.3726s.1207-.2254.2112-.3158l8.7567-8.7567c.1859-.1758.4321-.2738.6879-.2738.2559 0 .502.098.6879.2738l8.7568 8.7567c.0905.0904.1622.1977.2112.3158.0489.1181.0741.2448.0741.3726 0 .1279-.0252.2545-.0741.3726-.049.1181-.1207.2254-.2112.3158l-8.7568 8.7568c-.1824.1824-.4298.285-.6879.285zm-7.3809-9.7297 7.3809 7.382 7.381-7.382-7.381-7.381z"/><path d="m36 22.4947c-.2581 0-.5056-.1025-.688-.285-.1825-.1824-.285-.4299-.285-.688v-8.7567c0-.2581.1025-.5056.285-.688.1824-.1825.4299-.285.688-.285.258 0 .5055.1025.688.285.1824.1824.2849.4299.2849.688v8.7567c0 .2581-.1025.5056-.2849.688-.1825.1825-.43.285-.688.285z"/><path d="m66.1622 51.6837h-14.5946c-.2581 0-.5056-.1025-.688-.2849-.1825-.1825-.285-.43-.285-.688v-9.7298c0-.258.1025-.5055.285-.688.1824-.1824.4299-.2849.688-.2849h14.5946c.258 0 .5055.1025.688.2849.1824.1825.2849.43.2849.688v9.7298c0 .258-.1025.5055-.2849.688-.1825.1824-.43.2849-.688.2849zm-13.6216-1.9459h12.6486v-7.7838h-12.6486z"/><path d="m20.4324 51.6837h-14.59456c-.25805 0-.50553-.1025-.68799-.2849-.18247-.1825-.28498-.43-.28498-.688v-9.7298c0-.258.10251-.5055.28498-.688.18246-.1824.42994-.2849.68799-.2849h14.59456c.2581 0 .5056.1025.688.2849.1825.1825.285.43.285.688v9.7298c0 .258-.1025.5055-.285.688-.1824.1824-.4299.2849-.688.2849zm-13.62159-1.9459h12.64869v-7.7838h-12.64869z"/><path d="m35.9999 70.1702c-1.3471 0-2.6639-.3994-3.7839-1.1478s-1.993-1.8121-2.5085-3.0566-.6503-2.6139-.3875-3.9351.9114-2.5348 1.8639-3.4873 2.1661-1.6011 3.4873-1.8639c1.3211-.2628 2.6906-.128 3.9351.3875s2.3082 1.3885 3.0566 2.5085c.7484 1.1201 1.1478 2.4369 1.1478 3.7839-.0021 1.8057-.7203 3.5369-1.9971 4.8137s-3.008 1.9951-4.8137 1.9971zm0-11.6757c-.9622 0-1.9028.2854-2.7028.8199-.8.5346-1.4235 1.2944-1.7917 2.1833-.3683.8889-.4646 1.8671-.2769 2.8108s.6511 1.8105 1.3314 2.4909c.6804.6804 1.5472 1.1437 2.4909 1.3314s1.9219.0914 2.8108-.2768 1.6487-.9918 2.1833-1.7918c.5345-.8.8199-1.7406.8199-2.7028-.0016-1.2898-.5146-2.5263-1.4266-3.4383s-2.1485-1.425-3.4383-1.4266z"/><path d="m36 54.0752c-.2581 0-.5056-.1025-.688-.285-.1825-.1824-.285-.4299-.285-.688v-14.0672c0-.2581.1025-.5055.285-.688.1824-.1825.4299-.285.688-.285.258 0 .5055.1025.688.285.1824.1825.2849.4299.2849.688v14.0672c0 .2581-.1025.5056-.2849.688-.1825.1825-.43.285-.688.285z"/><path d="m36 54.0754c-.2579.0002-.5053-.102-.6879-.2841l-3.9123-3.9124c-.1826-.1825-.2852-.4302-.2852-.6883 0-.2582.1026-.5059.2852-.6884.1825-.1826.4301-.2852.6883-.2852s.5058.1026.6884.2852l3.2235 3.2244 3.2234-3.2244c.1826-.1826.4302-.2852.6884-.2852s.5058.1026.6884.2852c.1826.1825.2851.4302.2851.6884 0 .2581-.1025.5058-.2851.6883l-3.9123 3.9124c-.1826.1821-.43.2843-.6879.2841z"/><path d="m35.9999 22.4946c-.258-.0001-.5055-.1026-.6879-.2851l-3.1622-3.1622c-.1772-.1835-.2753-.4292-.2731-.6843.0023-.2552.1046-.4992.285-.6796s.4244-.2827.6795-.2849.5009.0958.6844.2731l2.4743 2.4742 2.4743-2.4742c.1835-.1773.4292-.2753.6844-.2731.2551.0022.4991.1045.6795.2849s.2827.4244.2849.6796c.0023.2551-.0958.5008-.2731.6843l-3.1621 3.1622c-.1824.1825-.4299.285-.6879.2851z"/><path d="m58.8649 37.8111c-.2581 0-.5055-.1025-.688-.2849-.1825-.1825-.285-.43-.285-.688v-5.5868h-13.1351c-.2581 0-.5055-.1025-.688-.285s-.285-.43-.285-.688c0-.2581.1025-.5055.285-.688s.4299-.285.688-.285h14.1081c.258 0 .5055.1025.688.285s.285.4299.285.688v6.5598c0 .258-.1025.5055-.285.688-.1825.1824-.43.2849-.688.2849z"/><path d="m58.8648 37.8111c-.258-.0001-.5055-.1026-.6879-.2851l-2.4645-2.4646c-.1827-.1824-.2855-.4299-.2856-.6881-.0002-.2582.1022-.5059.2846-.6886s.43-.2855.6882-.2856c.2582-.0002.5059.1022.6886.2846l1.7766 1.7786 1.7776-1.7786c.1826-.1824.4302-.2849.6883-.2848s.5056.1027.688.2853.2849.4301.2848.6882-.1027.5056-.2853.6881l-2.4655 2.4645c-.0902.0905-.1975.1624-.3155.2115s-.2446.0744-.3724.0746z"/><path d="m13.1351 37.8111c-.2581 0-.5055-.1025-.688-.2849-.1825-.1825-.285-.43-.285-.688v-6.5598c0-.2581.1025-.5055.285-.688s.4299-.285.688-.285h14.1081c.258 0 .5055.1025.688.285s.285.4299.285.688c0 .258-.1025.5055-.285.688s-.43.285-.688.285h-13.1351v5.5868c0 .258-.1026.5055-.285.688-.1825.1824-.43.2849-.688.2849z"/><path d="m13.1352 37.8111c-.258-.0001-.5055-.1026-.6879-.2851l-2.46453-2.4646c-.09047-.0903-.16225-.1976-.21126-.3156-.04901-.1181-.07428-.2447-.07437-.3725-.00018-.2582.10221-.5059.28465-.6886.18241-.1827.43001-.2855.68821-.2856.2582-.0002.5059.1022.6885.2846l1.7767 1.7786 1.7776-1.7786c.1826-.1824.4302-.2849.6883-.2848s.5056.1027.688.2853.2849.4301.2848.6882-.1027.5056-.2853.6881l-2.4655 2.4645c-.0903.0905-.1975.1624-.3155.2115s-.2446.0744-.3724.0746z"/></g></svg>