<svg fill="none" height="73" viewBox="0 0 73 73" width="73" xmlns="http://www.w3.org/2000/svg"><g fill="#000"><path d="m59.4791 54.5736c-.2581 0-.5056-.1025-.688-.285-.1825-.1825-.285-.4299-.285-.688v-2.8216c0-.258.1025-.5055.285-.688.1824-.1825.4299-.285.688-.285.258 0 .5055.1025.688.285.1824.1825.2849.43.2849.688v2.8216c0 .2581-.1025.5055-.2849.688-.1825.1825-.43.285-.688.285z"/><path d="m59.4791 70.1702h-11.6757c-.258 0-.5055-.1025-.688-.285-.1824-.1825-.2849-.43-.2849-.688v-50.6919h-5.4292c-.1855 0-.367-.0531-.5233-.1528-.1564-.0998-.2809-.2422-.359-.4103-.0781-.1682-.1065-.3552-.0819-.539s.1012-.3567.2208-.4984l12.24-14.49734c.0942-.1035.209-.1862.337-.24279.128-.05658.2664-.08581.4064-.08581.1399 0 .2783.02923.4063.08581.128.05659.2428.13929.337.24279l12.24 14.49734c.1196.1417.1962.3146.2208.4984.0247.1838-.0038.3708-.0819.539-.0781.1681-.2026.3105-.3589.4103-.1563.0997-.3379.1528-.5233.1528h-5.4292v15.7622c0 .258-.1025.5055-.285.688-.1825.1824-.43.2849-.688.2849s-.5055-.1025-.688-.2849c-.1825-.1825-.285-.43-.285-.688v-16.7352c0-.258.1025-.5055.285-.688.1825-.1824.43-.2849.688-.2849h4.3074l-10.1452-12.01626-10.1452 12.01626h4.3073c.2581 0 .5056.1025.688.2849.1825.1825.285.43.285.688v50.6919h9.7297v-7.8129c0-.2581.1025-.5056.285-.688.1825-.1825.43-.285.688-.285s.5055.1025.688.285c.1825.1824.285.4299.285.688v8.7859c0 .258-.1025.5055-.285.688s-.43.285-.688.285z"/><path d="m59.4791 44.9412c-.2581 0-.5056-.1026-.688-.285-.1825-.1825-.285-.43-.285-.688v-2.8898c0-.258.1025-.5055.285-.688.1824-.1824.4299-.2849.688-.2849.258 0 .5055.1025.688.2849.1824.1825.2849.43.2849.688v2.8898c0 .258-.1025.5055-.2849.688-.1825.1824-.43.285-.688.285z"/><path d="m17.8349 70.1702h-11.67565c-.25805 0-.50553-.1025-.68799-.285-.18247-.1824-.28498-.4299-.28498-.688v-28.2162c0-.258.10251-.5055.28498-.688.18246-.1824.42994-.2849.68799-.2849h11.67565c.2581 0 .5056.1025.688.2849.1825.1825.285.43.285.688v28.2162c0 .2581-.1025.5056-.285.688-.1824.1825-.4299.285-.688.285zm-10.70267-1.9459h9.72977v-26.2703h-9.72977z"/><path d="m38.6555 70.1702h-11.6757c-.258 0-.5055-.1025-.688-.285s-.285-.4299-.285-.688v-38.6815c0-.2581.1025-.5055.285-.688s.43-.285.688-.285h11.6757c.258 0 .5055.1025.688.285.1824.1825.285.4299.285.688v38.6815c0 .2581-.1026.5055-.285.688-.1825.1825-.43.285-.688.285zm-10.7027-1.946h9.7297v-36.7355h-9.7297z"/></g></svg>