<svg fill="none" height="73" viewBox="0 0 73 73" width="73" xmlns="http://www.w3.org/2000/svg"><g fill="#000"><path d="m21.351 70.1703h-17.51352c-.25805 0-.50553-.1025-.688-.285s-.28498-.4299-.28498-.688v-17.5135c0-.2581.10251-.5055.28498-.688s.42995-.285.688-.285c.25804 0 .50552.1025.68799.285s.28498.4299.28498.688v16.5405h16.54055c.258 0 .5055.1025.688.285s.285.43.285.688c0 .2581-.1025.5055-.285.688s-.43.285-.688.285z"/><path d="m3.83748 21.5215c-.25805 0-.50553-.1025-.688-.285s-.28498-.43-.28498-.688v-17.51352c0-.25804.10251-.50552.28498-.68799s.42995-.28498.688-.28498h17.51352c.258 0 .5055.10251.688.28498s.285.42995.285.68799c0 .25805-.1025.50553-.285.688s-.43.28498-.688.28498h-16.54055v16.54054c0 .258-.10251.5055-.28498.688s-.42995.285-.68799.285z"/><path d="m69.9997 21.5215c-.2581 0-.5056-.1025-.688-.285-.1825-.1825-.285-.43-.285-.688v-16.54054h-16.5405c-.2581 0-.5056-.10251-.688-.28498-.1825-.18247-.285-.42995-.285-.688 0-.25804.1025-.50552.285-.68799.1824-.18247.4299-.28498.688-.28498h17.5135c.258 0 .5055.10251.688.28498.1824.18247.2849.42995.2849.68799v17.51352c0 .258-.1025.5055-.2849.688-.1825.1825-.43.285-.688.285z"/><path d="m69.9997 70.1703h-17.5135c-.2581 0-.5056-.1025-.688-.285-.1825-.1825-.285-.4299-.285-.688 0-.258.1025-.5055.285-.688.1824-.1825.4299-.285.688-.285h16.5405v-16.5405c0-.2581.1025-.5055.285-.688.1824-.1825.4299-.285.688-.285.258 0 .5055.1025.688.285.1824.1825.2849.4299.2849.688v17.5135c0 .2581-.1025.5055-.2849.688-.1825.1825-.43.285-.688.285z"/><path d="m36.9188 56.5487c-4.0412 0-7.9916-1.1983-11.3517-3.4435-3.3601-2.2451-5.979-5.4362-7.5254-9.1698-1.5465-3.7335-1.9511-7.8418-1.1628-11.8053.7884-3.9635 2.7344-7.6042 5.592-10.4617 2.8575-2.8576 6.4982-4.8036 10.4617-5.5919 3.9635-.7884 8.0718-.3838 11.8053 1.1627 3.7336 1.5465 6.9247 4.1653 9.1698 7.5254 2.2452 3.3601 3.4435 7.3105 3.4435 11.3517.0034 2.1138-.3249 4.215-.973 6.227-.0334.1282-.0927.2481-.1742.3525-.0815.1045-.1834.1912-.2995.2548-.1162.0637-.2441.1029-.3759.1154-.1319.0125-.2649-.0021-.3909-.0428-.1261-.0407-.2425-.1067-.3421-.194s-.1803-.194-.2373-.3136c-.0569-.1196-.0888-.2495-.0937-.3819-.005-.1323.0171-.2643.065-.3878.5846-1.8192.88-3.7188.8757-5.6296-.0026-3.9587-1.2766-7.8119-3.6344-10.9919-2.3579-3.1799-5.6748-5.5184-9.462-6.6709-3.7872-1.1524-7.8445-1.0579-11.5739.2696-3.7295 1.3275-6.9339 3.8179-9.1412 7.1042-2.2072 3.2862-3.3004 7.1946-3.1187 11.1491.1818 3.9545 1.629 7.7461 4.1284 10.816 2.4993 3.0699 5.9187 5.2559 9.7542 6.2357 3.8356.9798 7.8844.7017 11.5499-.7933.2387-.0962.5058-.0938.7428.0065s.4246.2904.5217.5287c.0972.2383.0959.5054-.0034.7428s-.2886.4258-.5265.5239c-2.4516 1.0014-5.0751 1.515-7.7234 1.512z"/><path d="m50.1511 51.3529c-.1962.0003-.3878-.0588-.5497-.1694-.162-.1105-.2868-.2675-.358-.4502s-.0855-.3827-.0411-.5737.1455-.3642.2901-.4967c.659-.6032 1.2669-1.2599 1.8175-1.9635.0782-.1017.1758-.1869.2871-.2507s.2342-.105.3614-.1211c.1273-.0162.2566-.007.3803.027s.2395.0921.3407.171c.1011.0789.1857.177.2488.2888.0631.1117.1034.2348.1188.3622.0153.1274.0053.2565-.0295.38s-.0937.2389-.1733.3396c-.6164.7896-1.2972 1.5267-2.0354 2.2038-.1799.1635-.4146.2538-.6577.2529z"/><path d="m36.9188 64.819c-.2581 0-.5056-.1025-.688-.285-.1825-.1825-.285-.4299-.285-.688v-55.45945c0-.25805.1025-.50553.285-.688.1824-.18247.4299-.28498.688-.28498.258 0 .5055.10251.688.28498.1824.18247.285.42995.285.688v55.45945c0 .2581-.1026.5055-.285.688-.1825.1825-.43.285-.688.285z"/><path d="m64.6485 37.0893h-55.45946c-.25805 0-.50553-.1025-.688-.285s-.28498-.43-.28498-.688c0-.2581.10251-.5055.28498-.688s.42995-.285.688-.285h55.45946c.258 0 .5055.1025.688.285s.285.4299.285.688c0 .258-.1025.5055-.285.688s-.43.285-.688.285z"/></g></svg>