<svg fill="none" height="73" viewBox="0 0 74 73" width="74" xmlns="http://www.w3.org/2000/svg"><g fill="#000"><path d="m36.6535 50.2709c-1.6975 0-3.3569-.4982-4.7683-1.4318-1.4114-.9335-2.5115-2.2604-3.1611-3.8129-.6496-1.5524-.8195-3.2607-.4884-4.9088.3312-1.648 1.1486-3.1619 2.3489-4.35 1.2003-1.1882 2.7296-1.9974 4.3945-2.3252s3.3906-.1596 4.9589.4835c1.5682.643 2.9087 1.7319 3.8517 3.1291.9431 1.3972 1.4465 3.0398 1.4465 4.7201-.0026 2.2525-.9077 4.412-2.5167 6.0048-1.609 1.5927-3.7905 2.4887-6.066 2.4912zm0-15.046c-1.3087 0-2.588.3841-3.6761 1.1039-1.0882.7197-1.9363 1.7427-2.4371 2.9395-.5008 1.1969-.6319 2.5139-.3766 3.7845.2554 1.2706.8856 2.4377 1.8109 3.3537.9254.9161 2.1045 1.5399 3.388 1.7926 1.2836.2528 2.614.1231 3.8231-.3727s2.2425-1.3353 2.9695-2.4124c.7271-1.0772 1.1152-2.3436 1.1152-3.6391-.0021-1.7365-.6999-3.4014-1.9404-4.6293-1.2404-1.2279-2.9222-1.9187-4.6765-1.9207z"/><path d="m62.4723 20.9253c-1.6974 0-3.3568-.4982-4.7682-1.4318-1.4115-.9335-2.5115-2.2604-3.1611-3.8129-.6496-1.5524-.8196-3.2607-.4884-4.9087.3311-1.6481 1.1486-3.16194 2.3489-4.35013 1.2003-1.18818 2.7296-1.99735 4.3944-2.32517 1.6649-.32782 3.3906-.15957 4.9589.48347s2.9087 1.732 3.8518 3.12916 1.4464 3.03977 1.4464 4.72017c-.0026 2.2524-.9076 4.4119-2.5167 6.0047-1.609 1.5927-3.7905 2.4887-6.066 2.4912zm0-15.046c-1.3087 0-2.588.38415-3.6761 1.10388s-1.9362 1.74271-2.4371 2.93958c-.5008 1.19684-.6318 2.51384-.3765 3.78444s.8855 2.4377 1.8109 3.3537c.9254.9161 2.1044 1.5399 3.388 1.7926 1.2835.2528 2.6139.1231 3.823-.3727 1.2091-.4957 2.2425-1.3353 2.9696-2.4124.7271-1.0772 1.1151-2.3436 1.1151-3.639-.002-1.7366-.6999-3.40143-1.9403-4.62936-1.2405-1.22793-2.9223-1.91868-4.6766-1.92074z"/><path d="m10.8347 35.9713c-1.69755 0-3.35692-.4983-4.76834-1.4319-1.41142-.9335-2.51148-2.2604-3.16108-3.8129-.64961-1.5524-.81957-3.2607-.48841-4.9087.33117-1.6481 1.14859-3.1619 2.3489-4.3501s2.7296-1.9974 4.39448-2.3252c1.66485-.3278 3.39055-.1596 4.95885.4835 1.5683.643 2.9087 1.732 3.8518 3.1291.9431 1.3972 1.4464 3.0398 1.4464 4.7202-.0026 2.2524-.9076 4.4119-2.5166 6.0047-1.609 1.5927-3.7906 2.4887-6.066 2.4913zm0-15.0461c-1.30875 0-2.58805.3842-3.6762 1.1039-1.08814.7197-1.93624 1.7427-2.43706 2.9396-.50082 1.1968-.63185 2.5138-.37654 3.7844.25532 1.2706.88551 2.4377 1.8109 3.3537.92539.9161 2.10441 1.5399 3.38796 1.7926 1.28354.2528 2.61394.1231 3.82304-.3727 1.2091-.4957 2.2425-1.3353 2.9696-2.4124.7271-1.0772 1.1151-2.3436 1.1151-3.639-.002-1.7366-.6998-3.4014-1.9403-4.6294-1.2405-1.2279-2.9223-1.9186-4.6765-1.9207z"/><path d="m62.4744 41.2341c-.2607 0-.5107-.1025-.6951-.285-.1843-.1824-.2878-.4299-.2878-.688v-2.8897c0-.258.1035-.5055.2878-.688.1844-.1825.4344-.285.6951-.285.2606 0 .5106.1025.695.285.1843.1825.2879.43.2879.688v2.8897c0 .2581-.1036.5056-.2879.688-.1844.1825-.4344.285-.695.285z"/><path d="m62.4744 68.3022c-.2607 0-.5107-.1025-.6951-.285-.1843-.1825-.2878-.43-.2878-.688v-10.6151c0-.2581.1035-.5056.2878-.688.1844-.1825.4344-.285.6951-.285.2606 0 .5106.1025.695.285.1843.1824.2879.4299.2879.688v10.6151c0 .258-.1036.5055-.2879.688-.1844.1825-.4344.285-.695.285z"/><path d="m62.4744 50.8763c-.2607 0-.5107-.1025-.6951-.285-.1843-.1824-.2878-.4299-.2878-.688v-2.8313c0-.2581.1035-.5056.2878-.688.1844-.1825.4344-.285.6951-.285.2606 0 .5106.1025.695.285.1843.1824.2879.4299.2879.688v2.8313c0 .2581-.1036.5056-.2879.688-.1844.1825-.4344.285-.695.285z"/><path d="m62.4744 31.5335c-.2607 0-.5107-.1025-.6951-.2849-.1843-.1825-.2878-.43-.2878-.688v-10.6054c0-.2581.1035-.5056.2878-.688.1844-.1825.4344-.285.6951-.285.2606 0 .5106.1025.695.285.1843.1824.2879.4299.2879.688v10.6054c0 .258-.1036.5055-.2879.688-.1844.1824-.4344.2849-.695.2849z"/><path d="m36.6536 68.2992c-.2607 0-.5107-.1025-.6951-.2849-.1843-.1825-.2878-.43-.2878-.688v-18.0283c0-.258.1035-.5055.2878-.688.1844-.1824.4344-.2849.6951-.2849.2606 0 .5106.1025.695.2849.1843.1825.2879.43.2879.688v18.0283c0 .258-.1036.5055-.2879.688-.1844.1824-.4344.2849-.695.2849z"/><path d="m10.8347 68.2992c-.2607 0-.5107-.1025-.695-.285-.18434-.1824-.28789-.4299-.28789-.688v-32.328c0-.258.10355-.5055.28789-.688.1843-.1824.4343-.2849.695-.2849s.5107.1025.695.2849c.1844.1825.2879.43.2879.688v32.328c0 .2581-.1035.5056-.2879.688-.1843.1825-.4343.285-.695.285z"/><path d="m42.0712 37.4785c-.1813-.0002-.3589-.0499-.5133-.1438-.1545-.0938-.2797-.2281-.3619-.388s-.1181-.3391-.1038-.5179c.0143-.1789.0782-.3503.1848-.4954l14.3464-19.5684c.1532-.2089.3839-.349.6414-.3896.2575-.0405.5207.0219.7317.1736.2111.1516.3526.3799.3935.6348s-.0221.5155-.1753.7244l-14.3503 19.5723c-.0913.1234-.2108.2237-.3486.2929-.1378.0691-.2901.1051-.4446.1051z"/><path d="m30.019 39.1323c-.1769.0003-.3506-.0471-.5023-.1371l-12.4042-7.3187c-.1109-.0655-.2077-.152-.2848-.2545s-.1331-.219-.1647-.3429c-.0316-.124-.0383-.2528-.0196-.3793.0187-.1264.0624-.248.1285-.3578.1336-.2216.3507-.3817.6035-.4449.1252-.0313.2554-.0379.3831-.0194.1278.0185.2506.0617.3615.1272l12.4032 7.3187c.1849.1091.3286.2753.4088.473.0803.1978.0927.4162.0355.6216-.0573.2054-.1811.3866-.3525.5156-.1713.129-.3807.1988-.596.1985z"/><path d="m70.0721 68.2992h-66.83725c-.26068 0-.51068-.1025-.69501-.285-.18433-.1824-.28789-.4299-.28789-.688 0-.258.10356-.5055.28789-.688.18433-.1824.43433-.2849.69501-.2849h66.83725c.2607 0 .5107.1025.6951.2849.1843.1825.2878.43.2878.688 0 .2581-.1035.5056-.2878.688-.1844.1825-.4344.285-.6951.285z"/></g></svg>