<svg fill="none" height="73" viewBox="0 0 72 73" width="72" xmlns="http://www.w3.org/2000/svg"><g fill="#000"><path d="m12.6109 8.86026c-.2581-.00006-.5055-.1026-.6879-.28508l-4.15171-4.15168-4.15168 4.15168c-.1835.17723-.42928.2753-.68439.27308-.25511-.00221-.49914-.10454-.67954-.28494-.1804-.18039-.28272-.42443-.28494-.67954s.09585-.50088.27309-.68439l4.83957-4.83957c.18245-.1824.42989-.28487.68789-.28487.25799 0 .50543.10247.68789.28487l4.83952 4.83957c.1361.13607.2287.30942.2662.49813.0376.18871.0183.38431-.0553.56208-.0737.17776-.1983.3297-.3583.43662-.16.10691-.348.164-.5404.16404z"/><path d="m69.0714 65.3151h-21.1621c-.2581 0-.5056-.1025-.688-.285-.1825-.1825-.285-.4299-.285-.688 0-.258.1025-.5055.285-.688.1824-.1824.4299-.285.688-.285h21.1329c.2596-.0005.5089.1014.6938.2835.1849.1822.2905.43.2938.6895.0017.127-.0219.2531-.0693.3709-.0474.1179-.1177.2252-.2068.3157s-.1953.1624-.3124.2115c-.1172.0492-.2429.0746-.3699.0749z"/><path d="m31.3979 65.3151h-2.8217c-.258 0-.5055-.1025-.688-.285-.1824-.1825-.2849-.4299-.2849-.688 0-.258.1025-.5055.2849-.688.1825-.1825.43-.285.688-.285h2.8217c.258 0 .5055.1025.688.285.1824.1825.2849.43.2849.688 0 .2581-.1025.5055-.2849.688-.1825.1825-.43.285-.688.285z"/><path d="m21.7655 65.3151h-18.85625c-.25805 0-.50553-.1025-.68799-.285-.18247-.1825-.28498-.4299-.28498-.688 0-.258.10251-.5055.28498-.688.18246-.1825.42994-.285.68799-.285h18.85625c.258 0 .5055.1025.688.285.1824.1825.2849.43.2849.688 0 .2581-.1025.5055-.2849.688-.1825.1825-.43.285-.688.285z"/><path d="m41.0983 65.3151h-2.8897c-.2581 0-.5056-.1025-.688-.285-.1825-.1825-.285-.4299-.285-.688 0-.258.1025-.5055.285-.688.1824-.1825.4299-.285.688-.285h2.8897c.2581 0 .5055.1025.688.285s.285.43.285.688c0 .2581-.1025.5055-.285.688s-.4299.285-.688.285z"/><path d="m7.77107 70.1828c-.25805 0-.50553-.1025-.688-.285-.18246-.1824-.28497-.4299-.28497-.688v-66.16212c0-.25805.10251-.50553.28497-.688.18247-.18246.42995-.28497.688-.28497s.50553.10251.68799.28497c.18247.18247.28498.42995.28498.688v66.16212c0 .2581-.10251.5056-.28498.688-.18246.1825-.42994.285-.68799.285z"/><path d="m64.2037 70.1576c-.1924-.0001-.3805-.0572-.5405-.1641-.1599-.1069-.2846-.2588-.3582-.4366-.0737-.1778-.0929-.3734-.0554-.5621s.1302-.362.2662-.4981l4.1517-4.1517-4.1517-4.1517c-.0929-.0897-.1671-.1971-.2181-.3158-.0509-.1187-.0778-.2464-.0789-.3756s.0235-.2573.0724-.3769c.0489-.1195.1212-.2282.2125-.3195.0914-.0914.2-.1636.3196-.2125.1196-.049.2477-.0736.3769-.0725.1292.0012.2568.028.3756.079.1187.051.226.1251.3158.218l4.8395 4.8396c.1824.1825.2849.4299.2849.6879s-.1025.5054-.2849.6879l-4.8395 4.8396c-.1825.1825-.4299.285-.6879.2851z"/><path d="m7.77226 65.3179c-.21873 0-.43108-.0737-.60277-.2092s-.29272-.3249-.34354-.5377c-.05083-.2127-.02848-.4364.06342-.6348.0919-.1985.248-.3602.4431-.4591.34735-.1761 34.76243-17.8959 38.53943-45.9915.0345-.2558.1692-.4875.3744-.6441.2053-.1566.4644-.2252.7202-.1907.2559.0344.4876.1691.6441.3744.1566.2053.2252.4643.1907.7202-3.9152 29.1162-39.23413 47.2875-39.59121 47.4684-.1357.0687-.28572.1044-.43783.1041z"/><path d="m50.7892 24.2849c-.1574.0003-.3124-.0377-.4519-.1106-.1394-.0728-.2592-.1784-.3489-.3077l-3.3927-4.897-4.897 3.3937c-.105.0728-.2233.1242-.3482.1512s-.2539.0292-.3796.0064-.2457-.0702-.3531-.1394c-.1075-.0692-.2002-.1588-.273-.2639-.0727-.105-.1241-.2233-.1511-.3482-.0271-.1249-.0292-.2539-.0064-.3796s.0701-.2457.1393-.3531.1589-.2002.2639-.2729l5.6958-3.9474c.105-.0729.2233-.1243.3483-.1514.1249-.0271.2539-.0294.3797-.0066s.2458.0701.3533.1393.2003.1588.2731.2639l3.9483 5.6958c.1013.146.1606.3169.1716.4942.0111.1773-.0267.3543-.1091.5117s-.2063.2892-.3583.3812c-.152.0919-.3263.1405-.504.1404z"/></g></svg>