<svg fill="none" height="73" viewBox="0 0 73 73" width="73" xmlns="http://www.w3.org/2000/svg"><g fill="#000"><path d="m69.7136 39.8758h-15.9821c-.258 0-.5055-.1025-.688-.285-.1824-.1825-.285-.43-.285-.688v-15.9821c0-.258.1026-.5055.285-.688.1825-.1824.43-.2849.688-.2849h15.9821c.258 0 .5055.1025.688.2849.1824.1825.2849.43.2849.688v15.9821c0 .258-.1025.5055-.2849.688-.1825.1825-.43.285-.688.285zm-15.0091-1.946h14.0361v-14.0361h-14.0361z"/><path d="m19.5336 20.5945h-15.98201c-.25805 0-.50553-.1025-.688-.285-.18247-.1824-.28498-.4299-.28498-.688v-15.98105c0-.25805.10251-.50552.28498-.68799s.42995-.28498.688-.28498h15.98201c.2581 0 .5056.10251.688.28498.1825.18247.285.42994.285.68799v15.98105c0 .2581-.1025.5056-.285.688-.1824.1825-.4299.285-.688.285zm-15.00904-1.9459h14.03614v-14.03517h-14.03614z"/><path d="m11.5426 46.3023c-.2581 0-.5056-.1025-.688-.285-.1825-.1825-.285-.43-.285-.688v-25.7079c0-.258.1025-.5055.285-.688.1824-.1825.4299-.285.688-.285.258 0 .5055.1025.6879.285.1825.1825.285.43.285.688v25.7079c0 .258-.1025.5055-.285.688-.1824.1825-.4299.285-.6879.285z"/><path d="m11.5425 46.2984c-.258 0-.5055-.1026-.6879-.2851l-6.24257-6.2426c-.16596-.1851-.25476-.4267-.24816-.6753.0066-.2485.1081-.4851.28366-.6612.17556-.176.41186-.2782.66038-.2855s.49042.0808.67601.2463l5.55468 5.5547 5.5557-5.5547c.1835-.1773.4293-.2754.6844-.2731.2551.0022.4991.1045.6795.2849s.2828.4244.285.6795c.0022.2552-.0959.5009-.2731.6844l-6.2397 6.2426c-.1824.1825-.4299.2851-.6879.2851z"/><path d="m19.5336 69.5652h-15.98201c-.25805 0-.50553-.1025-.688-.285-.18247-.1824-.28498-.4299-.28498-.688v-15.981c0-.2581.10251-.5056.28498-.688.18247-.1825.42995-.285.688-.285h15.98201c.2581 0 .5056.1025.688.285.1825.1824.285.4299.285.688v15.981c0 .2581-.1025.5056-.285.688-.1824.1825-.4299.285-.688.285zm-15.00904-1.9459h14.03614v-14.0352h-14.03614z"/><path d="m56.1017 61.0926c-.2372.0022-.467-.0823-.6463-.2376-.1792-.1554-.2956-.3708-.3271-.6059-.0316-.2351.0238-.4737.1558-.6708s.3314-.3392.5608-.3996c.7887-.2828 1.5217-.7017 2.1658-1.2376.199-.1606.4533-.2364.7078-.2109.2544.0254.4887.15.652.3468s.2425.45.2206.7048c-.022.2548-.1433.4907-.3379.6567-.8407.6988-1.8 1.2409-2.8323 1.6005-.1028.0352-.2106.0533-.3192.0536z"/><path d="m38.5786 61.579h-8.4941c-.258 0-.5055-.1025-.688-.285-.1824-.1824-.2849-.4299-.2849-.688 0-.258.1025-.5055.2849-.688.1825-.1824.43-.2849.688-.2849h8.4941c.2581 0 .5055.1025.688.2849.1825.1825.285.43.285.688 0 .2581-.1025.5056-.285.688-.1825.1825-.4299.285-.688.285z"/><path d="m48.9505 61.579h-3.0356c-.2581 0-.5056-.1025-.688-.285-.1825-.1824-.285-.4299-.285-.688 0-.258.1025-.5055.285-.688.1824-.1824.4299-.2849.688-.2849h3.0356c.2581 0 .5056.1025.688.2849.1825.1825.285.43.285.688 0 .2581-.1025.5056-.285.688-.1824.1825-.4299.285-.688.285z"/><path d="m61.7257 49.0471c-.2581 0-.5056-.1025-.688-.285-.1825-.1824-.285-.4299-.285-.688v-9.1751c0-.2581.1025-.5055.285-.688.1824-.1825.4299-.285.688-.285.258 0 .5055.1025.688.285.1824.1825.2849.4299.2849.688v9.1751c0 .2581-.1025.5056-.2849.688-.1825.1825-.43.285-.688.285z"/><path d="m35.542 67.0285c-.2579.0002-.5053-.102-.6879-.2841l-5.4555-5.4545c-.0904-.0903-.1622-.1976-.2112-.3158-.0489-.1181-.0741-.2447-.0741-.3725 0-.1279.0252-.2545.0741-.3726.049-.1181.1208-.2255.2112-.3158l5.4555-5.4487c.1835-.1772.4293-.2753.6844-.2731.2551.0023.4991.1046.6795.285s.2827.4244.285.6795c.0022.2551-.0959.5009-.2731.6844l-4.7676 4.7676 4.7676 4.7676c.136.136.2286.3094.2662.4981.0375.1887.0182.3843-.0554.5621-.0736.1777-.1983.3297-.3583.4366-.1599.1069-.348.164-.5404.164z"/></g></svg>