<svg width="47" height="47" viewBox="0 0 47 47" fill="none" xmlns="http://www.w3.org/2000/svg">
<g clip-path="url(#clip0)">
<path d="M43.0262 24.2301C42.8877 23.5083 42.2563 22.9863 41.5213 22.9858H40.0408L39.932 22.3334C39.8234 21.6781 39.3071 21.1661 38.6509 21.063C38.5052 21.04 38.358 21.0247 38.2131 21.0048C38.4642 19.8327 38.2556 18.609 37.6304 17.5862C37.9607 16.7294 37.8991 15.771 37.4618 14.9636C37.0244 14.1562 36.2553 13.5809 35.3573 13.3895C34.7831 10.3167 32.1099 8.08304 28.984 8.06421C28.9073 8.06421 28.8391 8.07418 28.7662 8.07648C28.2667 7.29206 27.4433 6.77146 26.5204 6.65668C25.5976 6.5419 24.6717 6.84492 23.9953 7.48308C23.1431 6.92918 22.1489 6.63387 21.1325 6.63285C19.495 6.63955 17.9516 7.39962 16.9481 8.69365C15.8337 8.36871 14.6321 8.56822 13.6826 9.23584C12.7331 9.90346 12.1387 10.9667 12.0675 12.1252C10.897 12.6172 10.1354 13.7628 10.1347 15.0324C10.1371 15.2525 10.1628 15.4717 10.2114 15.6864C9.17628 17.2468 8.90581 19.1929 9.47613 20.9764C9.27067 21.0048 9.0606 21.0301 8.8628 21.0592C8.2032 21.1587 7.6823 21.671 7.57173 22.3288L7.46287 22.9835H5.9786C5.24478 22.984 4.61419 23.5044 4.4744 24.2248L1.11717 41.461C0.986054 42.136 1.16385 42.8343 1.60181 43.3644C2.03978 43.8945 2.69196 44.2009 3.3796 44.1995H19.3677C20.0025 45.2468 21.9314 45.7328 23.7499 45.7328C25.5493 45.7328 27.4598 45.2583 28.113 44.1995H44.1203C44.8077 44.2008 45.4598 43.8946 45.8977 43.3646C46.3356 42.8347 46.5135 42.1367 46.3827 41.4617L43.0262 24.2301ZM12.4531 16.4201C11.8306 16.0458 11.5335 15.3028 11.7264 14.6026C11.9192 13.9023 12.5548 13.4161 13.2811 13.4132C13.7894 13.4117 14.2678 13.6534 14.5683 14.0634C14.7316 14.2833 14.9998 14.3995 15.2719 14.3681C15.544 14.3367 15.7786 14.1625 15.8875 13.9111C15.9964 13.6598 15.9628 13.3695 15.7996 13.1495C15.279 12.4537 14.4901 12.0086 13.6253 11.9228C13.8539 10.8491 14.8007 10.0805 15.8985 10.0775C15.992 10.0822 16.0852 10.0925 16.1776 10.1081C16.1159 10.2653 16.0622 10.4255 16.0166 10.5881C15.9211 10.9939 16.1675 11.4016 16.5712 11.5059C16.9748 11.6101 17.3878 11.3727 17.5008 10.9714C17.588 10.6345 17.7219 10.3114 17.8987 10.0115C18.5788 8.87224 19.8057 8.17211 21.1325 8.16618C21.8547 8.16938 22.5603 8.38247 23.1634 8.77951C23.0485 9.10236 22.9877 9.44195 22.9833 9.78461C22.9833 10.208 23.3265 10.5513 23.7499 10.5513C24.1734 10.5513 24.5166 10.208 24.5166 9.78461C24.5166 8.89395 25.2386 8.17193 26.1293 8.17193C27.0199 8.17193 27.742 8.89395 27.742 9.78461C27.742 10.208 28.0852 10.5513 28.5086 10.5513C28.9321 10.5513 29.2753 10.208 29.2753 9.78461C29.2753 9.72558 29.2607 9.66961 29.2577 9.61058C31.4529 9.74603 33.2989 11.3065 33.7979 13.4485C33.4402 13.5526 33.1042 13.7201 32.8058 13.943C32.5867 14.1074 32.4719 14.3761 32.5046 14.6481C32.5374 14.92 32.7128 15.1538 32.9646 15.2614C33.2165 15.369 33.5067 15.334 33.7258 15.1697C34.3385 14.7161 35.1848 14.7523 35.7565 15.2565C36.3282 15.7607 36.4698 16.5958 36.0963 17.2604C35.9294 17.5538 35.6758 17.7884 35.3703 17.932C35.0499 18.0871 34.8784 18.4424 34.9563 18.7897C35.0342 19.1371 35.3409 19.3852 35.6969 19.3886C35.8093 19.3888 35.9204 19.3639 36.022 19.3158C36.2252 19.2173 36.4172 19.0973 36.5947 18.9578C36.991 20.0844 36.7424 21.3375 35.9461 22.2276L35.9277 22.2468C34.9289 23.3288 33.3356 23.6212 32.0177 22.9644C31.8886 22.8962 31.7646 22.8188 31.6466 22.7328C32.2113 21.9412 32.2893 20.9012 31.849 20.0342C31.7257 19.7894 31.4813 19.6291 31.2077 19.6134C30.9341 19.5978 30.673 19.7293 30.5227 19.9584C30.3724 20.1875 30.3557 20.4794 30.479 20.7242C30.7311 21.2309 30.5738 21.8458 30.1094 22.1693C29.8367 22.3509 29.4998 22.4083 29.1824 22.3274C28.8649 22.2464 28.5967 22.0346 28.4442 21.7446C28.3217 21.4996 28.0777 21.3386 27.8042 21.3222C27.5308 21.3059 27.2693 21.4367 27.1184 21.6653C26.9675 21.894 26.9501 22.1858 27.0727 22.4308C27.5223 23.3384 28.4487 23.9116 29.4616 23.9089C29.7914 23.9067 30.1178 23.8424 30.4238 23.7195C30.6976 23.9593 30.9993 24.1652 31.3223 24.3329C32.415 24.8993 33.6856 25.0167 34.8635 24.6602C34.1059 25.6947 32.972 26.39 31.7064 26.5961C31.3127 26.6602 31.0339 27.0155 31.0653 27.4132C31.0967 27.8108 31.4279 28.118 31.8268 28.1194C31.8676 28.1194 31.9083 28.1164 31.9487 28.1102C32.4155 28.0294 32.8717 27.8962 33.3087 27.7131C33.5449 28.1307 33.7366 28.5719 33.8807 29.0295C33.9071 29.1094 33.9205 29.193 33.9205 29.2771C33.9203 29.6085 33.7224 29.9077 33.4176 30.0376C33.065 30.174 32.6646 30.0664 32.4278 29.7716C31.8341 29.0744 31.0566 28.5577 30.1838 28.2804C28.527 27.7254 27.8876 27.2293 27.6162 26.6896C28.014 26.64 28.4071 26.5579 28.7915 26.4443C29.0534 26.3637 29.2524 26.1496 29.3136 25.8826C29.3748 25.6156 29.2888 25.3362 29.0882 25.1497C28.8875 24.9632 28.6026 24.8979 28.3407 24.9784C27.9105 25.1104 27.4665 25.1919 27.0175 25.2214C26.1524 25.2891 25.2833 25.1579 24.4767 24.8381C24.1739 24.72 23.8295 24.8057 23.6173 25.052C22.5011 26.3342 20.5906 26.5522 19.2143 25.5543C17.8379 24.5564 17.4511 22.6729 18.3227 21.2133C18.4639 20.9776 18.4686 20.6845 18.3351 20.4444C18.2016 20.2042 17.9501 20.0536 17.6754 20.0492C17.4007 20.0447 17.1445 20.1872 17.0033 20.4229C16.8204 20.7342 16.6732 21.0652 16.5647 21.4096C15.961 21.3778 15.4849 20.884 15.4753 20.2795V20.2603C15.4749 20.058 15.3937 19.8643 15.2497 19.7222C15.1057 19.5801 14.9109 19.5014 14.7086 19.5036C14.2834 19.5079 13.9411 19.8542 13.942 20.2795C13.9454 21.6392 14.9707 22.7788 16.3225 22.9253C16.3252 23.1823 16.3485 23.4387 16.3922 23.6919C14.6804 24.0623 12.905 23.447 11.7895 22.0968C10.674 20.7466 10.4047 18.8869 11.0915 17.2757C11.263 17.4492 11.4545 17.6018 11.6619 17.7303C12.0241 17.9425 12.4895 17.824 12.7061 17.4645C12.9227 17.1049 12.8099 16.6381 12.4531 16.417V16.4201ZM9.07977 22.5787C9.4332 22.5266 9.79813 22.4806 10.1608 22.4331C11.5783 24.6983 14.2894 25.7982 16.8844 25.1609C17.5817 26.4843 18.8558 27.4072 20.3307 27.6571C21.8055 27.9071 23.3126 27.4556 24.407 26.4358C24.928 26.5912 25.4646 26.6884 26.007 26.7256C26.3773 28.1302 27.4476 28.9812 29.6962 29.7348C30.3024 29.9249 30.8432 30.281 31.2571 30.7629C31.7174 31.3102 32.3944 31.6282 33.1094 31.6331C33.4221 31.633 33.7316 31.5699 34.0194 31.4475C34.8885 31.0761 35.4522 30.2222 35.4523 29.2771C35.453 29.0306 35.4137 28.7857 35.3358 28.5518C35.1634 28.0101 34.9363 27.4874 34.6581 26.9917C35.9618 26.0545 36.8699 24.6656 37.2057 23.0955C37.369 22.9015 37.5166 22.6949 37.6473 22.4775C37.9041 22.5105 38.161 22.5396 38.4193 22.5826L41.187 39.23C35.777 37.4235 29.9266 37.4235 24.5166 39.23V29.6328C24.5166 29.2094 24.1734 28.8662 23.7499 28.8662C23.3265 28.8662 22.9833 29.2094 22.9833 29.6328V39.233C17.5739 37.4249 11.7236 37.4227 6.31287 39.2269L9.07977 22.5787ZM2.78237 42.384C2.6375 42.209 2.57845 41.9785 2.62137 41.7554L5.9786 24.5192H7.20527L4.79947 38.9777C4.71485 39.504 4.90862 40.0366 5.31165 40.3854C5.71468 40.7343 6.26953 40.8497 6.77823 40.6905C10.8653 39.3663 15.2196 39.0901 19.4413 39.887L19.2128 42.6662H3.3796C3.14831 42.6663 2.92913 42.5628 2.78237 42.384ZM23.7499 44.1995C21.903 44.1995 20.8435 43.6536 20.6879 43.4106L20.9516 40.2289C21.7946 40.4388 22.6196 40.7155 23.4187 41.0562C23.5221 41.106 23.6352 41.1322 23.7499 41.1328C23.865 41.1327 23.9784 41.1065 24.0819 41.0562C24.8806 40.7135 25.7053 40.435 26.5483 40.2236L26.812 43.4098C26.6564 43.6536 25.5968 44.1995 23.7499 44.1995ZM44.7175 42.384C44.5707 42.5628 44.3516 42.6663 44.1203 42.6662H28.2894L28.0594 39.8816C32.2834 39.0863 36.6395 39.365 40.7278 40.692C41.2363 40.8491 41.79 40.7321 42.1915 40.3826C42.593 40.0331 42.7852 39.5008 42.6996 38.9754L40.2961 24.5199H41.5228L44.8808 41.7546C44.9233 41.9783 44.8634 42.2093 44.7175 42.384Z" fill="url(#paint0_linear)"/>
<path d="M21.2091 17.8916C20.8952 18.1756 20.8709 18.6602 21.1546 18.9742C21.805 19.6922 22.6645 20.1878 23.6118 20.391C23.1828 20.9955 22.4871 21.3543 21.7457 21.3531C21.3223 21.3531 20.9791 21.6964 20.9791 22.1198C20.9791 22.5432 21.3223 22.8865 21.7457 22.8865C23.3329 22.8928 24.7569 21.9126 25.3176 20.4278C27.224 20.1118 28.7332 18.6445 29.1027 16.7478C29.1597 16.4765 29.0659 16.1955 28.8573 16.0129C28.6486 15.8304 28.3577 15.7747 28.0964 15.8673C27.8351 15.9599 27.6441 16.1863 27.5969 16.4595C27.4466 17.2502 26.9904 17.9497 26.3273 18.4061C25.0518 19.2652 23.3411 19.0702 22.2916 17.9461C22.0077 17.6322 21.5231 17.6079 21.2091 17.8916Z" fill="url(#paint1_linear)"/>
<path d="M18.5364 17.0595C18.9599 17.0595 19.3031 16.7162 19.3031 16.2928C19.3031 15.7641 19.5131 15.2571 19.8869 14.8833C20.2608 14.5095 20.7678 14.2994 21.2964 14.2994C21.7199 14.2994 22.0631 13.9562 22.0631 13.5328C22.0631 13.1094 21.7199 12.7661 21.2964 12.7661C19.3496 12.7682 17.7719 14.3459 17.7698 16.2928C17.7698 16.4961 17.8505 16.6911 17.9943 16.8349C18.1381 16.9787 18.3331 17.0595 18.5364 17.0595Z" fill="url(#paint2_linear)"/>
<path d="M24.5167 2.03285V1.26618C24.5167 0.84276 24.1735 0.499512 23.7501 0.499512C23.3266 0.499512 22.9834 0.84276 22.9834 1.26618V2.03285C22.9834 2.45626 23.3266 2.79951 23.7501 2.79951C24.1735 2.79951 24.5167 2.45626 24.5167 2.03285Z" fill="url(#paint3_linear)"/>
<path d="M36.3308 6.00116L35.5642 6.76783C35.3649 6.96032 35.2849 7.24537 35.3551 7.51342C35.4252 7.78147 35.6346 7.9908 35.9026 8.06096C36.1707 8.13113 36.4557 8.0512 36.6482 7.8519L37.4149 7.08523C37.6142 6.89274 37.6941 6.60769 37.624 6.33964C37.5538 6.07159 37.3445 5.86226 37.0764 5.7921C36.8084 5.72193 36.5233 5.80186 36.3308 6.00116Z" fill="url(#paint4_linear)"/>
<path d="M11.3936 8.07653C11.7036 8.07646 11.9831 7.88967 12.1018 7.60323C12.2204 7.31679 12.1548 6.98709 11.9356 6.76783L11.169 6.00116C10.9765 5.80186 10.6914 5.72193 10.4234 5.7921C10.1553 5.86226 9.946 6.07159 9.87584 6.33964C9.80567 6.60769 9.8856 6.89274 10.0849 7.08523L10.8516 7.8519C10.9953 7.99568 11.1903 8.07649 11.3936 8.07653Z" fill="url(#paint5_linear)"/>
<path d="M17.2953 4.85047C17.3961 4.85026 17.4958 4.83047 17.589 4.79221C17.7769 4.71437 17.9261 4.56505 18.0039 4.37712C18.0817 4.18919 18.0817 3.97805 18.0037 3.79017L17.1228 1.66497C17.0219 1.40613 16.7889 1.22213 16.5137 1.18402C16.2385 1.14591 15.9642 1.25966 15.7968 1.48134C15.6293 1.70303 15.5949 1.99795 15.7068 2.25224L16.5869 4.37744C16.7057 4.66386 16.9853 4.85055 17.2953 4.85047Z" fill="url(#paint6_linear)"/>
<path d="M31.3782 1.24983C30.9872 1.08807 30.539 1.27371 30.3769 1.6646L29.496 3.7898C29.4179 3.97776 29.4177 4.1891 29.4955 4.37721C29.5733 4.56532 29.7227 4.71477 29.9108 4.7926C30.004 4.83086 30.1037 4.85065 30.2044 4.85087C30.5145 4.85095 30.7941 4.66425 30.9128 4.37784L31.793 2.25263C31.8711 2.06467 31.8713 1.85334 31.7935 1.66523C31.7157 1.47711 31.5663 1.32767 31.3782 1.24983Z" fill="url(#paint7_linear)"/>
<path d="M39.3326 13.9792C39.4334 13.979 39.5331 13.959 39.6262 13.9202L41.7506 13.04C42.0037 12.9353 42.1817 12.7034 42.2175 12.4319C42.2533 12.1603 42.1415 11.8903 41.9242 11.7235C41.707 11.5567 41.4172 11.5185 41.1641 11.6232L39.0389 12.5034C38.6998 12.6427 38.5068 13.0026 38.5783 13.3622C38.6498 13.7217 38.9659 13.9803 39.3326 13.9792Z" fill="url(#paint8_linear)"/>
<path d="M7.87372 13.9204C8.26496 14.0825 8.71358 13.8968 8.87575 13.5056C9.03792 13.1144 8.85222 12.6657 8.46098 12.5036L6.33578 11.6234C5.94455 11.4615 5.49609 11.6474 5.33413 12.0386C5.17218 12.4298 5.35805 12.8783 5.74928 13.0402L7.87372 13.9204Z" fill="url(#paint9_linear)"/>
</g>
<defs>
<linearGradient id="paint0_linear" x1="1.07495" y1="6.63281" x2="39.749" y2="51.4886" gradientUnits="userSpaceOnUse">
<stop stop-color="#5F3DC1"/>
<stop offset="1" stop-color="#538F16"/>
</linearGradient>
<linearGradient id="paint1_linear" x1="20.9568" y1="15.8232" x2="27.9468" y2="23.9009" gradientUnits="userSpaceOnUse">
<stop stop-color="#5F3DC1"/>
<stop offset="1" stop-color="#538F16"/>
</linearGradient>
<linearGradient id="paint2_linear" x1="17.7698" y1="12.7661" x2="22.0631" y2="17.0594" gradientUnits="userSpaceOnUse">
<stop stop-color="#5F3DC1"/>
<stop offset="1" stop-color="#538F16"/>
</linearGradient>
<linearGradient id="paint3_linear" x1="22.9834" y1="0.499512" x2="25.1065" y2="1.9149" gradientUnits="userSpaceOnUse">
<stop stop-color="#5F3DC1"/>
<stop offset="1" stop-color="#538F16"/>
</linearGradient>
<linearGradient id="paint4_linear" x1="35.3301" y1="5.76709" x2="37.649" y2="8.08599" gradientUnits="userSpaceOnUse">
<stop stop-color="#5F3DC1"/>
<stop offset="1" stop-color="#538F16"/>
</linearGradient>
<linearGradient id="paint5_linear" x1="9.85083" y1="5.76709" x2="12.1603" y2="8.07639" gradientUnits="userSpaceOnUse">
<stop stop-color="#5F3DC1"/>
<stop offset="1" stop-color="#538F16"/>
</linearGradient>
<linearGradient id="paint6_linear" x1="15.6418" y1="1.17676" x2="19.0174" y2="3.40069" gradientUnits="userSpaceOnUse">
<stop stop-color="#5F3DC1"/>
<stop offset="1" stop-color="#538F16"/>
</linearGradient>
<linearGradient id="paint7_linear" x1="29.4373" y1="1.19141" x2="32.8016" y2="3.41118" gradientUnits="userSpaceOnUse">
<stop stop-color="#5F3DC1"/>
<stop offset="1" stop-color="#538F16"/>
</linearGradient>
<linearGradient id="paint8_linear" x1="38.5635" y1="11.5649" x2="40.7827" y2="14.9298" gradientUnits="userSpaceOnUse">
<stop stop-color="#5F3DC1"/>
<stop offset="1" stop-color="#538F16"/>
</linearGradient>
<linearGradient id="paint9_linear" x1="5.27563" y1="11.5649" x2="7.49507" y2="14.9287" gradientUnits="userSpaceOnUse">
<stop stop-color="#5F3DC1"/>
<stop offset="1" stop-color="#538F16"/>
</linearGradient>
<clipPath id="clip0">
<rect width="46" height="46" fill="white" transform="translate(0.75 0.116211)"/>
</clipPath>
</defs>
</svg>
