<svg width="47" height="47" viewBox="0 0 47 47" fill="none" xmlns="http://www.w3.org/2000/svg">
<g clip-path="url(#clip0)">
<path d="M44.5315 40.9264C43.97 39.0567 42.4287 37.6784 40.5081 37.3294L35.6664 36.4484V36.0662C37.477 35.0148 38.8029 33.2211 39.2161 31.1006C40.5575 30.8231 41.5691 29.633 41.5691 28.2104V20.9228C41.5691 18.8635 40.2203 17.0676 38.2636 16.4832L37.8946 16.1143C36.1784 14.398 33.897 13.4536 31.4703 13.4536C26.461 13.4536 22.3852 17.5287 22.3852 22.5387V28.2104C22.3852 29.633 23.3968 30.8231 24.7382 31.1006C25.1521 33.2211 26.4773 35.0156 28.2879 36.0662V36.4484L23.4462 37.3287C21.5256 37.6784 19.9843 39.0567 19.4228 40.9264L17.7043 46.6565H46.25L44.5315 40.9264ZM39.3556 29.481V26.9399C39.7946 27.1959 40.0934 27.6667 40.0934 28.2104C40.0934 28.7542 39.7946 29.225 39.3556 29.481ZM24.5987 29.481C24.1597 29.225 23.8609 28.7542 23.8609 28.2104C23.8609 27.6667 24.1597 27.1959 24.5987 26.9399V29.481ZM24.5987 24.5212V25.3638C24.3361 25.4325 24.0896 25.5358 23.8609 25.6693V22.5387C23.8609 18.3433 27.2742 14.9293 31.4703 14.9293C33.5023 14.9293 35.414 15.721 36.8513 17.1583L37.5021 17.8098L37.7006 17.8585C39.1099 18.2105 40.0934 19.4707 40.0934 20.9228V25.6693C39.8647 25.5358 39.6182 25.4317 39.3556 25.3638V24.5212H37.0159C35.0163 24.5212 33.1053 23.5665 31.9063 21.9676L31.3197 21.184L29.8536 22.6508C28.6465 23.8572 27.0425 24.5212 25.3366 24.5212H24.5987ZM26.0744 29.6861V25.963C27.8962 25.794 29.5865 25.0038 30.897 23.6941L31.184 23.4071C32.6633 25.0399 34.7942 25.9969 37.0159 25.9969H37.8799V29.6861C37.8799 32.9407 35.2318 35.5889 31.9772 35.5889C28.7225 35.5889 26.0744 32.9407 26.0744 29.6861ZM29.8263 36.7428C30.5074 36.9509 31.229 37.0645 31.9772 37.0645C32.7253 37.0645 33.4469 36.9509 34.128 36.7428L31.9772 38.3558L29.8263 36.7428ZM30.8542 39.3577L29.3482 40.8629L28.3713 37.933L28.8413 37.8481L30.8542 39.3577ZM35.113 37.8481L35.5822 37.9337L34.6053 40.8637L33.0994 39.3585L35.113 37.8481ZM19.6877 45.1808L20.8372 41.3507C21.2379 40.0152 22.3387 39.0301 23.7111 38.7815L26.906 38.2008L28.7041 43.5959L31.9772 40.3214L35.251 43.5952L37.0491 38.2001L40.2439 38.7808C41.6156 39.0302 42.7172 40.0152 43.1178 41.3499L44.2666 45.1808H19.6877Z" fill="url(#paint0_linear)"/>
<path d="M19.4339 12.8403V8.16388L17.4314 7.63042C17.3724 7.47621 17.3082 7.322 17.2381 7.16779L18.2777 5.37188L14.9722 2.06635L13.1762 3.10597C13.0228 3.03588 12.8686 2.97169 12.7151 2.91266L12.1794 0.910156H7.50446L6.96952 2.9134C6.81532 2.97242 6.66184 3.03662 6.50837 3.10671L4.71247 2.06635L1.40694 5.37188L2.44655 7.16779C2.37572 7.322 2.31153 7.47621 2.2525 7.63042L0.25 8.16388V12.8403L2.2525 13.3738C2.31153 13.528 2.37572 13.6822 2.44655 13.8364L1.40694 15.6323L4.71247 18.9378L6.50837 17.8982C6.66184 17.9683 6.81605 18.0325 6.96952 18.0915L7.50446 20.094H12.1794L12.7144 18.0908C12.8686 18.0318 13.022 17.9676 13.1755 17.8975L14.9714 18.9371L18.2769 15.6316L17.2373 13.8357C17.3074 13.6815 17.3724 13.5272 17.4306 13.373L19.4339 12.8403ZM16.4323 15.3896L14.7294 17.0932L13.2279 16.2233L12.8693 16.407C12.5402 16.576 12.2052 16.7162 11.8747 16.8232L11.4918 16.9464L11.0461 18.6184H8.63778L8.19213 16.9464L7.80919 16.8232C7.47863 16.7155 7.14365 16.576 6.81458 16.407L6.45599 16.2233L4.95448 17.0932L3.25154 15.3896L4.12072 13.8888L3.937 13.5302C3.76655 13.1989 3.6271 12.8639 3.52159 12.5356L3.39837 12.1519L1.72568 11.7063V9.29794L3.39837 8.85228L3.52159 8.46861C3.6271 8.141 3.76655 7.80602 3.937 7.474L4.12072 7.1154L3.25154 5.61463L4.95448 3.91096L6.45599 4.78087L6.81458 4.59715C7.14365 4.42819 7.47863 4.288 7.80919 4.18101L8.19213 4.05779L8.63778 2.38584H11.0461L11.4918 4.05779L11.8747 4.18101C12.2052 4.28873 12.5402 4.42819 12.8693 4.59715L13.2279 4.78087L14.7294 3.91096L16.4323 5.61463L15.5632 7.1154L15.7469 7.474C15.9173 7.80529 16.0568 8.14027 16.1623 8.46861L16.2855 8.85228L17.9582 9.29794V11.7063L16.2855 12.1519L16.1623 12.5356C16.0568 12.8632 15.9173 13.1982 15.7469 13.5302L15.5632 13.8888L16.4323 15.3896Z" fill="url(#paint1_linear)"/>
<path d="M13.9871 13.5838C14.6541 12.688 15.0068 11.6226 15.0068 10.5018C15.0068 7.65448 12.69 5.33691 9.84189 5.33691C6.99382 5.33691 4.677 7.65448 4.677 10.5018C4.677 13.3491 6.99382 15.6667 9.84189 15.6667C10.9929 15.6667 12.0812 15.297 12.9903 14.5968L12.0901 13.4281C11.4408 13.9276 10.6638 14.191 9.84189 14.191C7.80766 14.191 6.15269 12.536 6.15269 10.5018C6.15269 8.46758 7.80766 6.8126 9.84189 6.8126C11.8761 6.8126 13.5311 8.46758 13.5311 10.5018C13.5311 11.3024 13.2795 12.0631 12.8036 12.7021L13.9871 13.5838Z" fill="url(#paint2_linear)"/>
<path d="M44.7368 9.98044L43.7827 10.9345V8.28857C43.7827 4.22011 40.4728 0.910156 36.4043 0.910156H31.9773V2.38584H36.4043C39.659 2.38584 42.3071 5.03395 42.3071 8.28857V10.9345L41.353 9.98044L40.3097 11.0238L43.0449 13.7589L45.7801 11.0238L44.7368 9.98044Z" fill="url(#paint3_linear)"/>
<path d="M3.93908 39.278V36.6321L4.89311 37.5861L5.93642 36.5428L3.20124 33.8076L0.466064 36.5428L1.50937 37.5861L2.4634 36.6321V39.278C2.4634 43.3464 5.77336 46.6564 9.84182 46.6564V45.1807C6.5872 45.1807 3.93908 42.5326 3.93908 39.278Z" fill="url(#paint4_linear)"/>
<path d="M19.4339 23.0454H0.25V24.5211H19.4339V23.0454Z" fill="url(#paint5_linear)"/>
<path d="M19.4339 28.9482H0.25V30.4239H19.4339V28.9482Z" fill="url(#paint6_linear)"/>
<path d="M9.1041 25.9966H0.25V27.4723H9.1041V25.9966Z" fill="url(#paint7_linear)"/>
<path d="M14.8224 25.9966H11.3177H10.5798V27.4723H11.3177H14.8224H19.4339V25.9966H14.8224Z" fill="url(#paint8_linear)"/>
<path d="M30.5013 0.910156H29.0256V2.38584H30.5013V0.910156Z" fill="url(#paint9_linear)"/>
<path d="M27.5501 0.910156H26.0745V2.38584H27.5501V0.910156Z" fill="url(#paint10_linear)"/>
<path d="M12.7933 45.1807H11.3176V46.6563H12.7933V45.1807Z" fill="url(#paint11_linear)"/>
<path d="M15.7445 45.1807H14.2688V46.6563H15.7445V45.1807Z" fill="url(#paint12_linear)"/>
</g>
<defs>
<linearGradient id="paint0_linear" x1="17.7043" y1="13.4536" x2="50.5316" y2="41.6763" gradientUnits="userSpaceOnUse">
<stop stop-color="#5F3DC1"/>
<stop offset="1" stop-color="#538F16"/>
</linearGradient>
<linearGradient id="paint1_linear" x1="0.25" y1="0.910156" x2="19.4339" y2="20.094" gradientUnits="userSpaceOnUse">
<stop stop-color="#5F3DC1"/>
<stop offset="1" stop-color="#538F16"/>
</linearGradient>
<linearGradient id="paint2_linear" x1="4.677" y1="5.33691" x2="15.0068" y2="15.6667" gradientUnits="userSpaceOnUse">
<stop stop-color="#5F3DC1"/>
<stop offset="1" stop-color="#538F16"/>
</linearGradient>
<linearGradient id="paint3_linear" x1="31.9773" y1="0.910156" x2="44.7932" y2="14.6776" gradientUnits="userSpaceOnUse">
<stop stop-color="#5F3DC1"/>
<stop offset="1" stop-color="#538F16"/>
</linearGradient>
<linearGradient id="paint4_linear" x1="0.466064" y1="33.8076" x2="12.7023" y2="42.7364" gradientUnits="userSpaceOnUse">
<stop stop-color="#5F3DC1"/>
<stop offset="1" stop-color="#538F16"/>
</linearGradient>
<linearGradient id="paint5_linear" x1="0.25" y1="23.0454" x2="0.475692" y2="25.9794" gradientUnits="userSpaceOnUse">
<stop stop-color="#5F3DC1"/>
<stop offset="1" stop-color="#538F16"/>
</linearGradient>
<linearGradient id="paint6_linear" x1="0.25" y1="28.9482" x2="0.475694" y2="31.8823" gradientUnits="userSpaceOnUse">
<stop stop-color="#5F3DC1"/>
<stop offset="1" stop-color="#538F16"/>
</linearGradient>
<linearGradient id="paint7_linear" x1="0.25" y1="25.9966" x2="0.728601" y2="28.8682" gradientUnits="userSpaceOnUse">
<stop stop-color="#5F3DC1"/>
<stop offset="1" stop-color="#538F16"/>
</linearGradient>
<linearGradient id="paint8_linear" x1="10.5798" y1="25.9966" x2="11.0584" y2="28.8682" gradientUnits="userSpaceOnUse">
<stop stop-color="#5F3DC1"/>
<stop offset="1" stop-color="#538F16"/>
</linearGradient>
<linearGradient id="paint9_linear" x1="29.0256" y1="0.910156" x2="30.5013" y2="2.38584" gradientUnits="userSpaceOnUse">
<stop stop-color="#5F3DC1"/>
<stop offset="1" stop-color="#538F16"/>
</linearGradient>
<linearGradient id="paint10_linear" x1="26.0745" y1="0.910156" x2="27.5501" y2="2.38584" gradientUnits="userSpaceOnUse">
<stop stop-color="#5F3DC1"/>
<stop offset="1" stop-color="#538F16"/>
</linearGradient>
<linearGradient id="paint11_linear" x1="11.3176" y1="45.1807" x2="12.7933" y2="46.6563" gradientUnits="userSpaceOnUse">
<stop stop-color="#5F3DC1"/>
<stop offset="1" stop-color="#538F16"/>
</linearGradient>
<linearGradient id="paint12_linear" x1="14.2688" y1="45.1807" x2="15.7445" y2="46.6564" gradientUnits="userSpaceOnUse">
<stop stop-color="#5F3DC1"/>
<stop offset="1" stop-color="#538F16"/>
</linearGradient>
<clipPath id="clip0">
<rect width="46" height="46" fill="white" transform="translate(0.25 0.783203)"/>
</clipPath>
</defs>
</svg>
