<svg width="47" height="47" viewBox="0 0 47 47" fill="none" xmlns="http://www.w3.org/2000/svg">
<g clip-path="url(#clip0)">
<path d="M42.1075 39.4658L39.7415 29.9455C38.5496 25.1504 35.7628 20.9509 31.8406 17.9948C32.3107 17.5978 32.6102 17.0046 32.6102 16.3426C32.6102 15.7662 32.3831 15.2422 32.0141 14.8541C32.383 14.4661 32.6102 13.9422 32.6102 13.3657C32.6102 12.3613 31.9217 11.5148 30.9918 11.2729C31.3447 10.8605 31.6088 10.3653 31.7508 9.81326L32.8995 5.37693C33.0585 4.77849 32.953 4.13962 32.61 3.62401C32.2671 3.10849 31.7186 2.76422 31.1051 2.67959L27.9421 2.24331C27.9078 2.13289 27.8616 2.0258 27.8005 1.92554C27.5932 1.58584 27.2502 1.34767 26.8594 1.27202L24.9663 0.905555C24.1166 0.741054 23.2556 0.743839 22.4072 0.913461L20.6003 1.27481C20.2219 1.35055 19.8865 1.58099 19.6801 1.90703C19.6128 2.01358 19.5621 2.12867 19.5255 2.24771L16.3951 2.6795C15.7817 2.76413 15.2332 3.10831 14.8904 3.62392C14.5474 4.13944 14.4419 4.7784 14.5998 5.37261L15.7493 9.81218C15.8914 10.3648 16.1557 10.8602 16.5086 11.2728C15.5787 11.5146 14.8902 12.3612 14.8902 13.3656C14.8902 13.9421 15.1173 14.466 15.4863 14.8541C15.1174 15.2421 14.8902 15.766 14.8902 16.3425C14.8902 17.0045 15.1896 17.5978 15.6598 17.9947C15.0045 18.4891 14.376 19.0208 13.7834 19.5851C13.514 19.8417 13.5035 20.2682 13.7601 20.5378C13.8926 20.6768 14.0702 20.7469 14.2482 20.7469C14.4151 20.7469 14.5824 20.6852 14.7127 20.561C15.5019 19.8095 16.3586 19.1191 17.2602 18.5047H30.2397C34.3311 21.2912 37.2381 25.4613 38.4336 30.2705L40.8 39.7924C40.8909 40.1541 40.9369 40.527 40.9369 40.9008C40.9369 43.4017 38.9022 45.4364 36.4014 45.4364H33.1687C34.1967 44.4961 34.8426 43.1447 34.8426 41.645C34.8426 41.2729 34.5409 40.9712 34.1688 40.9712C33.7966 40.9712 33.4949 41.2729 33.4949 41.645C33.4949 43.7355 31.7941 45.4364 29.7036 45.4364H17.7966C15.706 45.4364 14.0052 43.7355 14.0052 41.645C14.0052 41.2729 13.7035 40.9712 13.3314 40.9712C12.9593 40.9712 12.6576 41.2729 12.6576 41.645C12.6576 43.1447 13.3035 44.4961 14.3314 45.4364H11.0988C8.59797 45.4364 6.5633 43.4017 6.5633 40.9008C6.5633 40.527 6.60939 40.154 6.70067 39.7907L9.06659 30.2705C9.77014 27.4405 11.1112 24.746 12.9449 22.4783C13.1789 22.1889 13.134 21.7647 12.8446 21.5306C12.5553 21.2966 12.131 21.3416 11.897 21.6309C9.94039 24.0506 8.50938 26.9257 7.75875 29.9454L5.39319 39.4642C5.27532 39.9331 5.21558 40.4167 5.21558 40.9011C5.21558 44.1451 7.8547 46.7843 11.0987 46.7843H36.4014C39.6454 46.7843 42.2846 44.1451 42.2846 40.9011C42.2846 40.4166 42.2249 39.9331 42.1075 39.4658ZM30.4435 17.1572H17.0563C17.056 17.1572 17.0557 17.1572 17.0554 17.1572H17.0524C16.6033 17.1572 16.2378 16.7918 16.2378 16.3426C16.2378 15.8934 16.6032 15.5281 17.0524 15.5281H30.4479C30.8971 15.5281 31.2625 15.8934 31.2625 16.3426C31.2625 16.7917 30.8971 17.1572 30.4479 17.1572H30.4455C30.4448 17.1572 30.4442 17.1572 30.4435 17.1572ZM16.0123 4.37051C16.1434 4.1734 16.3447 4.04699 16.5792 4.01465L19.6481 3.5914L20.0576 5.22905C20.1478 5.59012 20.5137 5.80952 20.8747 5.71932C21.2358 5.62912 21.4552 5.26328 21.3649 4.9022L20.8101 2.68264C20.8052 2.66323 20.8082 2.64482 20.8189 2.62793C20.8296 2.61104 20.845 2.60043 20.8645 2.59657L22.6714 2.23522C23.3474 2.10001 24.0334 2.09786 24.7101 2.22885L26.6033 2.59531C26.6236 2.59927 26.6392 2.61014 26.65 2.62775C26.6608 2.64536 26.6632 2.66431 26.6575 2.68408L26.0179 4.87704C25.9137 5.23426 26.1189 5.60836 26.4761 5.71258C26.5391 5.73091 26.6026 5.73971 26.665 5.73971C26.9568 5.73971 27.2257 5.54871 27.3116 5.25438L27.7987 3.58412L30.9209 4.01474C31.1554 4.04708 31.3567 4.17349 31.4878 4.3706C31.6189 4.56763 31.6577 4.80221 31.5958 5.03508L30.4458 9.47662C30.1842 10.4935 29.267 11.2038 28.2153 11.2038H26.58C27.0926 10.575 27.4007 9.77337 27.4007 8.90082C27.4007 8.52869 27.099 8.227 26.7268 8.227C26.3547 8.227 26.053 8.52869 26.053 8.90082C26.053 10.1707 25.0199 11.2038 23.7501 11.2038C22.4803 11.2038 21.4472 10.1706 21.4472 8.90064C21.4472 8.52851 21.1455 8.22682 20.7733 8.22682C20.4012 8.22682 20.0995 8.52851 20.0995 8.90064C20.0995 9.77319 20.4076 10.5749 20.9201 11.2036H19.2849C18.2331 11.2036 17.3159 10.4934 17.0541 9.47545L15.9033 5.03076C15.8425 4.80211 15.8812 4.56754 16.0123 4.37051ZM17.0524 12.5513H30.4479C30.8971 12.5513 31.2625 12.9167 31.2625 13.3658C31.2625 13.8149 30.8971 14.1804 30.4479 14.1804H17.0524C16.6033 14.1804 16.2378 13.815 16.2378 13.3658C16.2378 12.9167 16.6032 12.5513 17.0524 12.5513Z" fill="url(#paint0_linear)"/>
<path d="M17.7966 42.46C17.4245 42.46 17.1228 42.7617 17.1228 43.1338C17.1228 43.5059 17.4245 43.8076 17.7966 43.8076H29.7037C30.0759 43.8076 30.3775 43.5059 30.3775 43.1338C30.3775 42.7617 30.0759 42.46 29.7037 42.46H17.7966Z" fill="url(#paint1_linear)"/>
<path d="M23.7499 34.6457C22.8904 34.6457 22.1911 33.9465 22.1911 33.0869C22.1911 32.7148 21.8895 32.4131 21.5173 32.4131C21.1452 32.4131 20.8435 32.7148 20.8435 33.0869C20.8435 34.4576 21.7975 35.6088 23.0761 35.9137V36.0637C23.0761 36.4358 23.3778 36.7375 23.7499 36.7375C24.122 36.7375 24.4237 36.4358 24.4237 36.0637V35.9137C25.7024 35.6088 26.6563 34.4576 26.6563 33.0869C26.6563 31.4844 25.3525 30.1805 23.7499 30.1805C22.8904 30.1805 22.1911 29.4813 22.1911 28.6218C22.1911 27.7622 22.8904 27.063 23.7499 27.063C24.6094 27.063 25.3087 27.7622 25.3087 28.6218C25.3087 28.9939 25.6104 29.2956 25.9825 29.2956C26.3546 29.2956 26.6563 28.9939 26.6563 28.6218C26.6563 27.2511 25.7024 26.0999 24.4237 25.795V25.645C24.4237 25.2729 24.122 24.9712 23.7499 24.9712C23.3778 24.9712 23.0761 25.2729 23.0761 25.645V25.795C21.7975 26.0999 20.8435 27.2511 20.8435 28.6218C20.8435 30.2244 22.1473 31.5282 23.7499 31.5282C24.6094 31.5282 25.3087 32.2274 25.3087 33.0869C25.3088 33.9465 24.6094 34.6457 23.7499 34.6457Z" fill="url(#paint2_linear)"/>
<path d="M17.725 26.4339C17.4065 26.2414 16.9923 26.3435 16.7998 26.662C16.0373 27.9236 15.6343 29.3733 15.6343 30.8545C15.6343 35.3296 19.275 38.9703 23.75 38.9703C28.2251 38.9703 31.8658 35.3296 31.8658 30.8545C31.8658 26.3795 28.2251 22.7388 23.75 22.7388C21.9194 22.7388 20.1913 23.3338 18.7526 24.4595C18.4596 24.6889 18.4079 25.1124 18.6372 25.4054C18.8665 25.6985 19.2901 25.7501 19.583 25.5208C20.7823 24.5824 22.2233 24.0864 23.75 24.0864C27.482 24.0864 30.5181 27.1225 30.5181 30.8545C30.5181 34.5865 27.482 37.6226 23.75 37.6226C20.0181 37.6226 16.9819 34.5865 16.9819 30.8545C16.9819 29.619 17.3177 28.4103 17.9531 27.359C18.1456 27.0406 18.0435 26.6264 17.725 26.4339Z" fill="url(#paint3_linear)"/>
</g>
<defs>
<linearGradient id="paint0_linear" x1="5.21558" y1="0.78418" x2="50.1644" y2="37.006" gradientUnits="userSpaceOnUse">
<stop stop-color="#5F3DC1"/>
<stop offset="1" stop-color="#538F16"/>
</linearGradient>
<linearGradient id="paint1_linear" x1="17.1228" y1="42.46" x2="17.394" y2="45.1277" gradientUnits="userSpaceOnUse">
<stop stop-color="#5F3DC1"/>
<stop offset="1" stop-color="#538F16"/>
</linearGradient>
<linearGradient id="paint2_linear" x1="20.8435" y1="24.9712" x2="30.1884" y2="29.5878" gradientUnits="userSpaceOnUse">
<stop stop-color="#5F3DC1"/>
<stop offset="1" stop-color="#538F16"/>
</linearGradient>
<linearGradient id="paint3_linear" x1="15.6343" y1="22.7388" x2="31.8658" y2="38.9703" gradientUnits="userSpaceOnUse">
<stop stop-color="#5F3DC1"/>
<stop offset="1" stop-color="#538F16"/>
</linearGradient>
<clipPath id="clip0">
<rect width="46" height="46" fill="white" transform="translate(0.75 0.78418)"/>
</clipPath>
</defs>
</svg>
