<svg width="47" height="48" viewBox="0 0 47 48" fill="none" xmlns="http://www.w3.org/2000/svg">
<path d="M16.1947 19.2127H9.59375C9.40328 19.2127 9.22 19.2901 9.08559 19.4287L6.42119 22.1614H5.86775C5.57019 21.3056 4.77956 20.6871 3.84375 20.6871C2.65494 20.6871 1.6875 21.6793 1.6875 22.8986C1.6875 24.1179 2.65494 25.1101 3.84375 25.1101C4.77956 25.1101 5.57019 24.4917 5.86775 23.6358H6.71875C6.90922 23.6358 7.0925 23.5584 7.22691 23.4198L9.89131 20.6871H16.1947C16.4923 21.5429 17.2829 22.1614 18.2188 22.1614C18.765 22.1614 19.2581 21.9454 19.6383 21.6012L22.5672 23.2724C22.5478 23.391 22.5312 23.5112 22.5312 23.6358C22.5312 24.8551 23.4987 25.8473 24.6875 25.8473C25.8763 25.8473 26.8438 24.8551 26.8438 23.6358C26.8438 23.5112 26.8272 23.391 26.8078 23.2724L29.7367 21.6012C30.1169 21.9454 30.61 22.1614 31.1562 22.1614C32.3451 22.1614 33.3125 21.1692 33.3125 19.9499C33.3125 18.9901 32.7095 18.1792 31.875 17.874V14.6533C32.7095 14.3481 33.3125 13.5372 33.3125 12.5774C33.3125 11.3581 32.3451 10.3658 31.1562 10.3658C30.61 10.3658 30.1169 10.5818 29.7367 10.9261L26.8078 9.25489C26.8272 9.13695 26.8438 9.01679 26.8438 8.8922C26.8438 7.67291 25.8763 6.68066 24.6875 6.68066C23.4987 6.68066 22.5312 7.67291 22.5312 8.8922C22.5312 9.01679 22.5478 9.13695 22.5672 9.25563L19.6383 10.9268C19.2581 10.5826 18.765 10.3666 18.2188 10.3666C17.2829 10.3666 16.4923 10.9851 16.1947 11.8409H9.89131L7.22691 9.1082C7.0925 8.96961 6.90922 8.8922 6.71875 8.8922H5.86775C5.57019 8.03634 4.77956 7.41784 3.84375 7.41784C2.65494 7.41784 1.6875 8.41009 1.6875 9.62938C1.6875 10.8487 2.65494 11.8409 3.84375 11.8409C4.77956 11.8409 5.57019 11.2224 5.86775 10.3666H6.42119L9.08559 13.0993C9.22 13.2379 9.40328 13.3153 9.59375 13.3153H16.1947C16.4118 13.9397 16.8912 14.4314 17.5 14.654V15.5268H5.86775C5.57019 14.671 4.77956 14.0525 3.84375 14.0525C2.65494 14.0525 1.6875 15.0447 1.6875 16.264C1.6875 17.4833 2.65494 18.4755 3.84375 18.4755C4.77956 18.4755 5.57019 17.857 5.86775 17.0012H17.5V17.874C16.8912 18.0966 16.4118 18.5883 16.1947 19.2127ZM3.84375 23.6358C3.44772 23.6358 3.125 23.3048 3.125 22.8986C3.125 22.4924 3.44772 22.1614 3.84375 22.1614C4.23978 22.1614 4.5625 22.4924 4.5625 22.8986C4.5625 23.3048 4.23978 23.6358 3.84375 23.6358ZM3.84375 10.3666C3.44772 10.3666 3.125 10.0356 3.125 9.62938C3.125 9.2232 3.44772 8.8922 3.84375 8.8922C4.23978 8.8922 4.5625 9.2232 4.5625 9.62938C4.5625 10.0356 4.23978 10.3666 3.84375 10.3666ZM3.84375 17.0012C3.44772 17.0012 3.125 16.6702 3.125 16.264C3.125 15.8578 3.44772 15.5268 3.84375 15.5268C4.23978 15.5268 4.5625 15.8578 4.5625 16.264C4.5625 16.6702 4.23978 17.0012 3.84375 17.0012ZM18.2188 20.6871C17.8227 20.6871 17.5 20.3561 17.5 19.9499C17.5 19.5437 17.8227 19.2127 18.2188 19.2127C18.6148 19.2127 18.9375 19.5437 18.9375 19.9499C18.9375 20.3561 18.6148 20.6871 18.2188 20.6871ZM19.6383 14.2294L22.5672 15.9006C22.5478 16.0193 22.5312 16.1394 22.5312 16.264C22.5312 16.3886 22.5478 16.5087 22.5672 16.6274L19.6383 18.2986C19.4342 18.1143 19.1984 17.9698 18.9375 17.874V14.6533C19.1984 14.5582 19.4349 14.4144 19.6383 14.2294ZM29.7367 18.2986L26.8078 16.6274C26.8272 16.5087 26.8438 16.3886 26.8438 16.264C26.8438 16.1394 26.8272 16.0193 26.8078 15.9006L29.7367 14.2294C29.9408 14.4137 30.1766 14.5582 30.4375 14.654V17.8747C30.1766 17.9698 29.9401 18.1136 29.7367 18.2986ZM20.3391 19.5865L23.268 17.9153C23.4721 18.0996 23.7078 18.2441 23.9688 18.3399V21.5606C23.7078 21.6565 23.4714 21.8002 23.268 21.9852L20.3391 20.3141C20.3585 20.1946 20.375 20.0745 20.375 19.9499C20.375 19.8253 20.3585 19.7051 20.3391 19.5865ZM24.6875 15.5268C25.0835 15.5268 25.4062 15.8578 25.4062 16.264C25.4062 16.6702 25.0835 17.0012 24.6875 17.0012C24.2915 17.0012 23.9688 16.6702 23.9688 16.264C23.9688 15.8578 24.2915 15.5268 24.6875 15.5268ZM25.4062 18.3399C25.6672 18.2441 25.9036 18.1003 26.107 17.9153L29.0359 19.5865C29.0165 19.7051 29 19.8253 29 19.9499C29 20.0745 29.0165 20.1946 29.0359 20.3133L26.107 21.9845C25.9029 21.8002 25.6672 21.6557 25.4062 21.5599V18.3399ZM29.0359 12.9415L26.107 14.6127C25.9029 14.4284 25.6672 14.2839 25.4062 14.1881V10.9674C25.6672 10.8715 25.9036 10.7278 26.107 10.5427L29.0359 12.2139C29.0165 12.3334 29 12.4535 29 12.5781C29 12.7027 29.0165 12.8228 29.0359 12.9415ZM23.9688 14.1881C23.7078 14.2839 23.4714 14.4277 23.268 14.6127L20.3391 12.9415C20.3585 12.8228 20.375 12.7027 20.375 12.5781C20.375 12.4535 20.3585 12.3334 20.3391 12.2147L23.268 10.5435C23.4721 10.7278 23.7078 10.8723 23.9688 10.9681V14.1881ZM24.6875 24.373C24.2915 24.373 23.9688 24.042 23.9688 23.6358C23.9688 23.2296 24.2915 22.8986 24.6875 22.8986C25.0835 22.8986 25.4062 23.2296 25.4062 23.6358C25.4062 24.042 25.0835 24.373 24.6875 24.373ZM31.1562 20.6871C30.7602 20.6871 30.4375 20.3561 30.4375 19.9499C30.4375 19.5437 30.7602 19.2127 31.1562 19.2127C31.5523 19.2127 31.875 19.5437 31.875 19.9499C31.875 20.3561 31.5523 20.6871 31.1562 20.6871ZM31.1562 11.8409C31.5523 11.8409 31.875 12.1719 31.875 12.5781C31.875 12.9843 31.5523 13.3153 31.1562 13.3153C30.7602 13.3153 30.4375 12.9843 30.4375 12.5781C30.4375 12.1719 30.7602 11.8409 31.1562 11.8409ZM24.6875 8.15502C25.0835 8.15502 25.4062 8.48602 25.4062 8.8922C25.4062 9.29839 25.0835 9.62938 24.6875 9.62938C24.2915 9.62938 23.9688 9.29839 23.9688 8.8922C23.9688 8.48602 24.2915 8.15502 24.6875 8.15502ZM18.2188 11.8409C18.6148 11.8409 18.9375 12.1719 18.9375 12.5781C18.9375 12.9843 18.6148 13.3153 18.2188 13.3153C17.8227 13.3153 17.5 12.9843 17.5 12.5781C17.5 12.1719 17.8227 11.8409 18.2188 11.8409Z" fill="url(#paint0_linear)"/>
<path d="M16.7814 46.4886H28.2814C28.6782 46.4886 29.0002 46.1583 29.0002 45.7514V40.5911H38.3439C38.7407 40.5911 39.0627 40.2609 39.0627 39.8539V31.0078H44.0939C44.3225 31.0078 44.5374 30.8965 44.6732 30.707C44.8091 30.5176 44.8486 30.2743 44.7803 30.0502L41.1967 18.2892C41.0529 13.816 39.2115 9.68783 35.9972 6.64549C32.7456 3.5685 28.5086 2.02337 24.076 2.28728C18.9743 2.59321 14.2478 5.46453 11.4325 9.96869L12.6429 10.7641C15.211 6.65581 19.5163 4.03735 24.1608 3.75869C28.2009 3.51469 32.0613 4.92639 35.0219 7.72914C37.9925 10.54 39.6765 14.3697 39.7642 18.5119C39.7671 18.6394 39.8037 18.7596 39.8655 18.8635L43.1164 29.5334H38.3439C37.9472 29.5334 37.6252 29.8637 37.6252 30.2706V33.2193H35.4689C34.2801 33.2193 33.3127 32.2271 33.3127 31.0078H31.8752C31.8752 33.0402 33.4873 34.6937 35.4689 34.6937H37.6252V39.1168H28.2814C27.8847 39.1168 27.5627 39.447 27.5627 39.8539V45.0142H17.5002V44.3013C17.5002 38.3368 15.7522 32.2381 12.4445 26.6643C11.7128 25.4318 11.1601 24.1012 10.8007 22.7101L9.41064 23.0875C9.80524 24.6157 10.4126 26.0768 11.2161 27.431C14.3866 32.7741 16.0627 38.6074 16.0627 44.3013V45.7514C16.0627 46.1583 16.3847 46.4886 16.7814 46.4886Z" fill="url(#paint1_linear)"/>
<defs>
<linearGradient id="paint0_linear" x1="1.6875" y1="6.68066" x2="18.6788" y2="34.7163" gradientUnits="userSpaceOnUse">
<stop stop-color="#5F3DC1"/>
<stop offset="1" stop-color="#538F16"/>
</linearGradient>
<linearGradient id="paint1_linear" x1="9.41064" y1="2.2583" x2="52.567" y2="36.8012" gradientUnits="userSpaceOnUse">
<stop stop-color="#5F3DC1"/>
<stop offset="1" stop-color="#538F16"/>
</linearGradient>
</defs>
</svg>
