<svg fill="none" height="48" viewBox="0 0 47 48" width="47" xmlns="http://www.w3.org/2000/svg" xmlns:xlink="http://www.w3.org/1999/xlink"><linearGradient id="a"><stop offset="0" stop-color="#5f3dc1"/><stop offset="1" stop-color="#538f16"/></linearGradient><linearGradient id="b" gradientUnits="userSpaceOnUse" x1="1.6875" x2="18.6788" xlink:href="#a" y1="6.68066" y2="34.7163"/><linearGradient id="c" gradientUnits="userSpaceOnUse" x1="9.41064" x2="52.567" xlink:href="#a" y1="2.2583" y2="36.8012"/><path d="m16.1947 19.2127h-6.60095c-.19047 0-.37375.0774-.50816.216l-2.6644 2.7327h-.55344c-.29756-.8558-1.08819-1.4743-2.024-1.4743-1.18881 0-2.15625.9922-2.15625 2.2115s.96744 2.2115 2.15625 2.2115c.93581 0 1.72644-.6184 2.024-1.4743h.851c.19047 0 .37375-.0774.50816-.216l2.6644-2.7327h6.30339c.2976.8558 1.0882 1.4743 2.0241 1.4743.5462 0 1.0393-.216 1.4195-.5602l2.9289 1.6712c-.0194.1186-.036.2388-.036.3634 0 1.2193.9675 2.2115 2.1563 2.2115s2.1563-.9922 2.1563-2.2115c0-.1246-.0166-.2448-.036-.3634l2.9289-1.6712c.3802.3442.8733.5602 1.4195.5602 1.1889 0 2.1563-.9922 2.1563-2.2115 0-.9598-.603-1.7707-1.4375-2.0759v-3.2207c.8345-.3052 1.4375-1.1161 1.4375-2.0759 0-1.2193-.9674-2.2116-2.1563-2.2116-.5462 0-1.0393.216-1.4195.5603l-2.9289-1.67121c.0194-.11794.036-.2381.036-.36269 0-1.21929-.9675-2.21154-2.1563-2.21154s-2.1563.99225-2.1563 2.21154c0 .12459.0166.24475.036.36343l-2.9289 1.67117c-.3802-.3442-.8733-.5602-1.4195-.5602-.9359 0-1.7265.6185-2.0241 1.4743h-6.30339l-2.6644-2.7327c-.13441-.13859-.31769-.216-.50816-.216h-.851c-.29756-.85586-1.08819-1.47436-2.024-1.47436-1.18881 0-2.15625.99225-2.15625 2.21154 0 1.21932.96744 2.21152 2.15625 2.21152.93581 0 1.72644-.6185 2.024-1.4743h.55344l2.6644 2.7327c.13441.1386.31769.216.50816.216h6.60095c.2171.6244.6965 1.1161 1.3053 1.3387v.8728h-11.63225c-.29756-.8558-1.08819-1.4743-2.024-1.4743-1.18881 0-2.15625.9922-2.15625 2.2115s.96744 2.2115 2.15625 2.2115c.93581 0 1.72644-.6185 2.024-1.4743h11.63225v.8728c-.6088.2226-1.0882.7143-1.3053 1.3387zm-12.35095 4.4231c-.39603 0-.71875-.331-.71875-.7372s.32272-.7372.71875-.7372.71875.331.71875.7372-.32272.7372-.71875.7372zm0-13.2692c-.39603 0-.71875-.331-.71875-.73722 0-.40618.32272-.73718.71875-.73718s.71875.331.71875.73718c0 .40622-.32272.73722-.71875.73722zm0 6.6346c-.39603 0-.71875-.331-.71875-.7372s.32272-.7372.71875-.7372.71875.331.71875.7372-.32272.7372-.71875.7372zm14.37505 3.6859c-.3961 0-.7188-.331-.7188-.7372s.3227-.7372.7188-.7372c.396 0 .7187.331.7187.7372s-.3227.7372-.7187.7372zm1.4195-6.4577 2.9289 1.6712c-.0194.1187-.036.2388-.036.3634s.0166.2447.036.3634l-2.9289 1.6712c-.2041-.1843-.4399-.3288-.7008-.4246v-3.2207c.2609-.0951.4974-.2389.7008-.4239zm10.0984 4.0692-2.9289-1.6712c.0194-.1187.036-.2388.036-.3634s-.0166-.2447-.036-.3634l2.9289-1.6712c.2041.1843.4399.3288.7008.4246v3.2207c-.2609.0951-.4974.2389-.7008.4239zm-9.3976 1.2879 2.9289-1.6712c.2041.1843.4398.3288.7008.4246v3.2207c-.261.0959-.4974.2396-.7008.4246l-2.9289-1.6711c.0194-.1195.0359-.2396.0359-.3642s-.0165-.2448-.0359-.3634zm4.3484-4.0597c.396 0 .7187.331.7187.7372s-.3227.7372-.7187.7372-.7187-.331-.7187-.7372.3227-.7372.7187-.7372zm.7187 2.8131c.261-.0958.4974-.2396.7008-.4246l2.9289 1.6712c-.0194.1186-.0359.2388-.0359.3634s.0165.2447.0359.3634l-2.9289 1.6712c-.2041-.1843-.4398-.3288-.7008-.4246zm3.6297-5.3984-2.9289 1.6712c-.2041-.1843-.4398-.3288-.7008-.4246v-3.2207c.261-.0959.4974-.2396.7008-.4247l2.9289 1.6712c-.0194.1195-.0359.2396-.0359.3642s.0165.2447.0359.3634zm-5.0671 1.2466c-.261.0958-.4974.2396-.7008.4246l-2.9289-1.6712c.0194-.1187.0359-.2388.0359-.3634s-.0165-.2447-.0359-.3634l2.9289-1.6712c.2041.1843.4398.3288.7008.4246zm.7187 10.1849c-.396 0-.7187-.331-.7187-.7372s.3227-.7372.7187-.7372.7187.331.7187.7372-.3227.7372-.7187.7372zm6.4687-3.6859c-.396 0-.7187-.331-.7187-.7372s.3227-.7372.7187-.7372c.3961 0 .7188.331.7188.7372s-.3227.7372-.7188.7372zm0-8.8462c.3961 0 .7188.331.7188.7372s-.3227.7372-.7188.7372c-.396 0-.7187-.331-.7187-.7372s.3227-.7372.7187-.7372zm-6.4687-3.68588c.396 0 .7187.331.7187.73718 0 .40619-.3227.73718-.7187.73718s-.7187-.33099-.7187-.73718c0-.40618.3227-.73718.7187-.73718zm-6.4687 3.68588c.396 0 .7187.331.7187.7372s-.3227.7372-.7187.7372c-.3961 0-.7188-.331-.7188-.7372s.3227-.7372.7188-.7372z" fill="url(#b)"/><path d="m16.7814 46.4886h11.5c.3968 0 .7188-.3303.7188-.7372v-5.1603h9.3437c.3968 0 .7188-.3302.7188-.7372v-8.8461h5.0312c.2286 0 .4435-.1113.5793-.3008.1359-.1894.1754-.4327.1071-.6568l-3.5836-11.761c-.1438-4.4732-1.9852-8.60137-5.1995-11.64371-3.2516-3.07699-7.4886-4.62212-11.9212-4.35821-5.1017.30593-9.8282 3.17725-12.6435 7.68141l1.2104.79541c2.5681-4.10829 6.8734-6.72675 11.5179-7.00541 4.0401-.244 7.9005 1.1677 10.8611 3.97045 2.9706 2.81086 4.6546 6.64056 4.7423 10.78276.0029.1275.0395.2477.1013.3516l3.2509 10.6699h-4.7725c-.3967 0-.7187.3303-.7187.7372v2.9487h-2.1563c-1.1888 0-2.1562-.9922-2.1562-2.2115h-1.4375c0 2.0324 1.6121 3.6859 3.5937 3.6859h2.1563v4.4231h-9.3438c-.3967 0-.7187.3302-.7187.7371v5.1603h-10.0625v-.7129c0-5.9645-1.748-12.0632-5.0557-17.637-.7317-1.2325-1.2844-2.5631-1.6438-3.9542l-1.39006.3774c.3946 1.5282 1.00196 2.9893 1.80546 4.3435 3.1705 5.3431 4.8466 11.1764 4.8466 16.8703v1.4501c0 .4069.322.7372.7187.7372z" fill="url(#c)"/></svg>