<svg fill="none" height="47" viewBox="0 0 47 47" width="47" xmlns="http://www.w3.org/2000/svg" xmlns:xlink="http://www.w3.org/1999/xlink"><linearGradient id="a"><stop offset="0" stop-color="#5f3dc1"/><stop offset="1" stop-color="#538f16"/></linearGradient><linearGradient id="b" gradientUnits="userSpaceOnUse" x1="17.7043" x2="50.5316" xlink:href="#a" y1="13.4536" y2="41.6763"/><linearGradient id="c" gradientUnits="userSpaceOnUse" x1=".25" x2="19.4339" xlink:href="#a" y1=".910156" y2="20.094"/><linearGradient id="d" gradientUnits="userSpaceOnUse" x1="4.677" x2="15.0068" xlink:href="#a" y1="5.33691" y2="15.6667"/><linearGradient id="e" gradientUnits="userSpaceOnUse" x1="31.9773" x2="44.7932" xlink:href="#a" y1=".910156" y2="14.6776"/><linearGradient id="f" gradientUnits="userSpaceOnUse" x1=".466064" x2="12.7023" xlink:href="#a" y1="33.8076" y2="42.7364"/><linearGradient id="g" gradientUnits="userSpaceOnUse" x1=".25" x2=".475692" xlink:href="#a" y1="23.0454" y2="25.9794"/><linearGradient id="h" gradientUnits="userSpaceOnUse" x1=".25" x2=".475694" xlink:href="#a" y1="28.9482" y2="31.8823"/><linearGradient id="i" gradientUnits="userSpaceOnUse" x1=".25" x2=".728601" xlink:href="#a" y1="25.9966" y2="28.8682"/><linearGradient id="j" gradientUnits="userSpaceOnUse" x1="10.5798" x2="11.0584" xlink:href="#a" y1="25.9966" y2="28.8682"/><linearGradient id="k" gradientUnits="userSpaceOnUse" x1="29.0256" x2="30.5013" xlink:href="#a" y1=".910156" y2="2.38584"/><linearGradient id="l" gradientUnits="userSpaceOnUse" x1="26.0745" x2="27.5501" xlink:href="#a" y1=".910156" y2="2.38584"/><linearGradient id="m" gradientUnits="userSpaceOnUse" x1="11.3176" x2="12.7933" xlink:href="#a" y1="45.1807" y2="46.6563"/><linearGradient id="n" gradientUnits="userSpaceOnUse" x1="14.2688" x2="15.7445" xlink:href="#a" y1="45.1807" y2="46.6564"/><clipPath id="o"><path d="m.25.783203h46v46h-46z"/></clipPath><g clip-path="url(#o)"><path d="m44.5315 40.9264c-.5615-1.8697-2.1028-3.248-4.0234-3.597l-4.8417-.881v-.3822c1.8106-1.0514 3.1365-2.8451 3.5497-4.9656 1.3414-.2775 2.353-1.4676 2.353-2.8902v-7.2876c0-2.0593-1.3488-3.8552-3.3055-4.4396l-.369-.3689c-1.7162-1.7163-3.9976-2.6607-6.4243-2.6607-5.0093 0-9.0851 4.0751-9.0851 9.0851v5.6717c0 1.4226 1.0116 2.6127 2.353 2.8902.4139 2.1205 1.7391 3.915 3.5497 4.9656v.3822l-4.8417.8803c-1.9206.3497-3.4619 1.728-4.0234 3.5977l-1.7185 5.7301h28.5457zm-5.1759-11.4454v-2.5411c.439.256.7378.7268.7378 1.2705 0 .5438-.2988 1.0146-.7378 1.2706zm-14.7569 0c-.439-.256-.7378-.7268-.7378-1.2706 0-.5437.2988-1.0145.7378-1.2705zm0-4.9598v.8426c-.2626.0687-.5091.172-.7378.3055v-3.1306c0-4.1954 3.4133-7.6094 7.6094-7.6094 2.032 0 3.9437.7917 5.381 2.229l.6508.6515.1985.0487c1.4093.352 2.3928 1.6122 2.3928 3.0643v4.7465c-.2287-.1335-.4752-.2376-.7378-.3055v-.8426h-2.3397c-1.9996 0-3.9106-.9547-5.1096-2.5536l-.5866-.7836-1.4661 1.4668c-1.2071 1.2064-2.8111 1.8704-4.517 1.8704zm1.4757 5.1649v-3.7231c1.8218-.169 3.5121-.9592 4.8226-2.2689l.287-.287c1.4793 1.6328 3.6102 2.5898 5.8319 2.5898h.864v3.6892c0 3.2546-2.6481 5.9028-5.9027 5.9028-3.2547 0-5.9028-2.6482-5.9028-5.9028zm3.7519 7.0567c.6811.2081 1.4027.3217 2.1509.3217.7481 0 1.4697-.1136 2.1508-.3217l-2.1508 1.613zm1.0279 2.6149-1.506 1.5052-.9769-2.9299.47-.0849zm4.2588-1.5096.4692.0856-.9769 2.93-1.5059-1.5052zm-15.4253 7.3327 1.1495-3.8301c.4007-1.3355 1.5015-2.3206 2.8739-2.5692l3.1949-.5807 1.7981 5.3951 3.2731-3.2745 3.2738 3.2738 1.7981-5.3951 3.1948.5807c1.3717.2494 2.4733 1.2344 2.8739 2.5691l1.1488 3.8309z" fill="url(#b)"/><path d="m19.4339 12.8403v-4.67642l-2.0025-.53346c-.059-.15421-.1232-.30842-.1933-.46263l1.0396-1.79591-3.3055-3.30553-1.796 1.03962c-.1534-.07009-.3076-.13428-.4611-.19331l-.5357-2.002504h-4.67494l-.53494 2.003244c-.1542.05902-.30768.12322-.46115.19331l-1.7959-1.04036-3.30553 3.30553 1.03961 1.79591c-.07083.15421-.13502.30842-.19405.46263l-2.0025.53346v4.67642l2.0025.5335c.05903.1542.12322.3084.19405.4626l-1.03961 1.7959 3.30553 3.3055 1.7959-1.0396c.15347.0701.30768.1343.46115.1933l.53494 2.0025h4.67494l.535-2.0032c.1542-.059.3076-.1232.4611-.1933l1.7959 1.0396 3.3055-3.3055-1.0396-1.7959c.0701-.1542.1351-.3085.1933-.4627zm-3.0016 2.5493-1.7029 1.7036-1.5015-.8699-.3586.1837c-.3291.169-.6641.3092-.9946.4162l-.3829.1232-.4457 1.672h-2.40832l-.44565-1.672-.38294-.1232c-.33056-.1077-.66554-.2472-.99461-.4162l-.35859-.1837-1.50151.8699-1.70294-1.7036.86918-1.5008-.18372-.3586c-.17045-.3313-.3099-.6663-.41541-.9946l-.12322-.3837-1.67269-.4456v-2.40836l1.67269-.44566.12322-.38367c.10551-.32761.24496-.66259.41541-.99461l.18372-.3586-.86918-1.50077 1.70294-1.70367 1.50151.86991.35859-.18372c.32907-.16896.66405-.30915.99461-.41614l.38294-.12322.44565-1.67195h2.40832l.4457 1.67195.3829.12322c.3305.10772.6655.24718.9946.41614l.3586.18372 1.5015-.86991 1.7029 1.70367-.8691 1.50077.1837.3586c.1704.33129.3099.66627.4154.99461l.1232.38367 1.6727.44566v2.40836l-1.6727.4456-.1232.3837c-.1055.3276-.245.6626-.4154.9946l-.1837.3586z" fill="url(#c)"/><path d="m13.9871 13.5838c.667-.8958 1.0197-1.9612 1.0197-3.082 0-2.84732-2.3168-5.16489-5.16491-5.16489-2.84807 0-5.16489 2.31757-5.16489 5.16489 0 2.8473 2.31682 5.1649 5.16489 5.1649 1.15101 0 2.23931-.3697 3.14841-1.0699l-.9002-1.1687c-.6493.4995-1.4263.7629-2.24821.7629-2.03423 0-3.6892-1.655-3.6892-3.6892 0-2.03422 1.65497-3.6892 3.6892-3.6892 2.03421 0 3.68921 1.65498 3.68921 3.6892 0 .8006-.2516 1.5613-.7275 2.2003z" fill="url(#d)"/><path d="m44.7368 9.98044-.9541.95406v-2.64593c0-4.06846-3.3099-7.378414-7.3784-7.378414h-4.427v1.475684h4.427c3.2547 0 5.9028 2.64811 5.9028 5.90273v2.64593l-.9541-.95406-1.0433 1.04336 2.7352 2.7351 2.7352-2.7351z" fill="url(#e)"/><path d="m3.93908 39.278v-2.6459l.95403.954 1.04331-1.0433-2.73518-2.7352-2.735176 2.7352 1.043306 1.0433.95403-.954v2.6459c0 4.0684 3.30996 7.3784 7.37842 7.3784v-1.4757c-3.25462 0-5.90274-2.6481-5.90274-5.9027z" fill="url(#f)"/><path d="m19.4339 23.0454h-19.1839v1.4757h19.1839z" fill="url(#g)"/><path d="m19.4339 28.9482h-19.1839v1.4757h19.1839z" fill="url(#h)"/><path d="m9.1041 25.9966h-8.8541v1.4757h8.8541z" fill="url(#i)"/><path d="m14.8224 25.9966h-3.5047-.7379v1.4757h.7379 3.5047 4.6115v-1.4757z" fill="url(#j)"/><path d="m30.5013.910156h-1.4757v1.475684h1.4757z" fill="url(#k)"/><path d="m27.5501.910156h-1.4756v1.475684h1.4756z" fill="url(#l)"/><path d="m12.7933 45.1807h-1.4757v1.4756h1.4757z" fill="url(#m)"/><path d="m15.7445 45.1807h-1.4757v1.4756h1.4757z" fill="url(#n)"/></g></svg>