<svg fill="none" height="47" viewBox="0 0 47 47" width="47" xmlns="http://www.w3.org/2000/svg" xmlns:xlink="http://www.w3.org/1999/xlink"><linearGradient id="a"><stop offset="0" stop-color="#5f3dc1"/><stop offset="1" stop-color="#538f16"/></linearGradient><linearGradient id="b" gradientUnits="userSpaceOnUse" x1="1.07495" x2="39.749" xlink:href="#a" y1="6.63281" y2="51.4886"/><linearGradient id="c" gradientUnits="userSpaceOnUse" x1="20.9568" x2="27.9468" xlink:href="#a" y1="15.8232" y2="23.9009"/><linearGradient id="d" gradientUnits="userSpaceOnUse" x1="17.7698" x2="22.0631" xlink:href="#a" y1="12.7661" y2="17.0594"/><linearGradient id="e" gradientUnits="userSpaceOnUse" x1="22.9834" x2="25.1065" xlink:href="#a" y1=".499512" y2="1.9149"/><linearGradient id="f" gradientUnits="userSpaceOnUse" x1="35.3301" x2="37.649" xlink:href="#a" y1="5.76709" y2="8.08599"/><linearGradient id="g" gradientUnits="userSpaceOnUse" x1="9.85083" x2="12.1603" xlink:href="#a" y1="5.76709" y2="8.07639"/><linearGradient id="h" gradientUnits="userSpaceOnUse" x1="15.6418" x2="19.0174" xlink:href="#a" y1="1.17676" y2="3.40069"/><linearGradient id="i" gradientUnits="userSpaceOnUse" x1="29.4373" x2="32.8016" xlink:href="#a" y1="1.19141" y2="3.41118"/><linearGradient id="j" gradientUnits="userSpaceOnUse" x1="38.5635" x2="40.7827" xlink:href="#a" y1="11.5649" y2="14.9298"/><linearGradient id="k" gradientUnits="userSpaceOnUse" x1="5.27563" x2="7.49507" xlink:href="#a" y1="11.5649" y2="14.9287"/><clipPath id="l"><path d="m.75.116211h46v46h-46z"/></clipPath><g clip-path="url(#l)"><path d="m43.0262 24.2301c-.1385-.7218-.7699-1.2438-1.5049-1.2443h-1.4805l-.1088-.6524c-.1086-.6553-.6249-1.1673-1.2811-1.2704-.1457-.023-.2929-.0383-.4378-.0582.2511-1.1721.0425-2.3958-.5827-3.4186.3303-.8568.2687-1.8152-.1686-2.6226-.4374-.8074-1.2065-1.3827-2.1045-1.5741-.5742-3.0728-3.2474-5.30646-6.3733-5.32529-.0767 0-.1449.00997-.2178.01227-.4995-.78442-1.3229-1.30502-2.2458-1.4198-.9228-.11478-1.8487.18824-2.5251.8264-.8522-.5539-1.8464-.84921-2.8628-.85023-1.6375.0067-3.1809.76677-4.1844 2.0608-1.1144-.32494-2.316-.12543-3.2655.54219s-1.5439 1.73086-1.6151 2.88936c-1.1705.492-1.9321 1.6376-1.9328 2.9072.0024.2201.0281.4393.0767.654-1.03512 1.5604-1.30559 3.5065-.73527 5.29-.20546.0284-.41553.0537-.61333.0828-.6596.0995-1.1805.6118-1.29107 1.2696l-.10886.6547h-1.48427c-.73382.0005-1.36441.5209-1.5042 1.2413l-3.35723 17.2362c-.131116.675.04668 1.3733.48464 1.9034.43797.5301 1.09015.8365 1.77779.8351h15.9881c.6348 1.0473 2.5637 1.5333 4.3822 1.5333 1.7994 0 3.7099-.4745 4.3631-1.5333h16.0073c.6874.0013 1.3395-.3049 1.7774-.8349.4379-.5299.6158-1.2279.485-1.9029zm-30.5731-7.81c-.6225-.3743-.9196-1.1173-.7267-1.8175.1928-.7003.8284-1.1865 1.5547-1.1894.5083-.0015.9867.2402 1.2872.6502.1633.2199.4315.3361.7036.3047s.5067-.2056.6156-.457c.1089-.2513.0753-.5416-.0879-.7616-.5206-.6958-1.3095-1.1409-2.1743-1.2267.2286-1.0737 1.1754-1.8423 2.2732-1.8453.0935.0047.1867.015.2791.0306-.0617.1572-.1154.3174-.161.48-.0955.4058.1509.8135.5546.9178.4036.1042.8166-.1332.9296-.5345.0872-.3369.2211-.66.3979-.9599.6801-1.13926 1.907-1.83939 3.2338-1.84532.7222.0032 1.4278.21629 2.0309.61333-.1149.32285-.1757.66244-.1801 1.0051 0 .42339.3432.76669.7666.76669.4235 0 .7667-.3433.7667-.76669 0-.89066.722-1.61268 1.6127-1.61268.8906 0 1.6127.72202 1.6127 1.61268 0 .42339.3432.76669.7666.76669.4235 0 .7667-.3433.7667-.76669 0-.05903-.0146-.115-.0176-.17403 2.1952.13545 4.0412 1.69592 4.5402 3.83792-.3577.1041-.6937.2716-.9921.4945-.2191.1644-.3339.4331-.3012.7051.0328.2719.2082.5057.46.6133.2519.1076.5421.0726.7612-.0917.6127-.4536 1.459-.4174 2.0307.0868s.7133 1.3393.3398 2.0039c-.1669.2934-.4205.528-.726.6716-.3204.1551-.4919.5104-.414.8577.0779.3474.3846.5955.7406.5989.1124.0002.2235-.0247.3251-.0728.2032-.0985.3952-.2185.5727-.358.3963 1.1266.1477 2.3797-.6486 3.2698l-.0184.0192c-.9988 1.082-2.5921 1.3744-3.91.7176-.1291-.0682-.2531-.1456-.3711-.2316.5647-.7916.6427-1.8316.2024-2.6986-.1233-.2448-.3677-.4051-.6413-.4208-.2736-.0156-.5347.1159-.685.345s-.167.521-.0437.7658c.2521.5067.0948 1.1216-.3696 1.4451-.2727.1816-.6096.239-.927.1581-.3175-.081-.5857-.2928-.7382-.5828-.1225-.245-.3665-.406-.64-.4224-.2734-.0163-.5349.1145-.6858.3431-.1509.2287-.1683.5205-.0457.7655.4496.9076 1.376 1.4808 2.3889 1.4781.3298-.0022.6562-.0665.9622-.1894.2738.2398.5755.4457.8985.6134 1.0927.5664 2.3633.6838 3.5412.3273-.7576 1.0345-1.8915 1.7298-3.1571 1.9359-.3937.0641-.6725.4194-.6411.8171.0314.3976.3626.7048.7615.7062.0408 0 .0815-.003.1219-.0092.4668-.0808.923-.214 1.36-.3971.2362.4176.4279.8588.572 1.3164.0264.0799.0398.1635.0398.2476-.0002.3314-.1981.6306-.5029.7605-.3526.1364-.753.0288-.9898-.266-.5937-.6972-1.3712-1.2139-2.244-1.4912-1.6568-.555-2.2962-1.0511-2.5676-1.5908.3978-.0496.7909-.1317 1.1753-.2453.2619-.0806.4609-.2947.5221-.5617s-.0248-.5464-.2254-.7329c-.2007-.1865-.4856-.2518-.7475-.1713-.4302.132-.8742.2135-1.3232.243-.8651.0677-1.7342-.0635-2.5408-.3833-.3028-.1181-.6472-.0324-.8594.2139-1.1162 1.2822-3.0267 1.5002-4.403.5023-1.3764-.9979-1.7632-2.8814-.8916-4.341.1412-.2357.1459-.5288.0124-.7689-.1335-.2402-.385-.3908-.6597-.3952-.2747-.0045-.5309.138-.6721.3737-.1829.3113-.3301.6423-.4386.9867-.6037-.0318-1.0798-.5256-1.0894-1.1301v-.0192c-.0004-.2023-.0816-.396-.2256-.5381s-.3388-.2208-.5411-.2186c-.4252.0043-.7675.3506-.7666.7759.0034 1.3597 1.0287 2.4993 2.3805 2.6458.0027.257.026.5134.0697.7666-1.7118.3704-3.4872-.2449-4.6027-1.5951s-1.3848-3.2099-.698-4.8211c.1715.1735.363.3261.5704.4546.3622.2122.8276.0937 1.0442-.2658.2166-.3596.1038-.8264-.253-1.0475zm-3.37333 6.1586c.35343-.0521.71836-.0981 1.08103-.1456 1.4175 2.2652 4.1286 3.3651 6.7236 2.7278.6973 1.3234 1.9714 2.2463 3.4463 2.4962 1.4748.25 2.9819-.2015 4.0763-1.2213.521.1554 1.0576.2526 1.6.2898.3703 1.4046 1.4406 2.2556 3.6892 3.0092.6062.1901 1.147.5462 1.5609 1.0281.4603.5473 1.1373.8653 1.8523.8702.3127-.0001.6222-.0632.91-.1856.8691-.3714 1.4328-1.2253 1.4329-2.1704.0007-.2465-.0386-.4914-.1165-.7253-.1724-.5417-.3995-1.0644-.6777-1.5601 1.3037-.9372 2.2118-2.3261 2.5476-3.8962.1633-.194.3109-.4006.4416-.618.2568.033.5137.0621.772.1051l2.7677 16.6474c-5.41-1.8065-11.2604-1.8065-16.6704 0v-9.5972c0-.4234-.3432-.7666-.7667-.7666-.4234 0-.7666.3432-.7666.7666v9.6002c-5.4094-1.8081-11.2597-1.8103-16.67043-.0061zm-6.2974 19.8053c-.14487-.175-.20392-.4055-.161-.6286l3.35723-17.2362h1.22667l-2.4058 14.4585c-.08462.5263.10915 1.0589.51218 1.4077.40303.3489.95788.4643 1.46658.3051 4.08707-1.3242 8.44137-1.6004 12.66307-.8035l-.2285 2.7792h-15.8332c-.23129.0001-.45047-.1034-.59723-.2822zm20.96753 1.8155c-1.8469 0-2.9064-.5459-3.062-.7889l.2637-3.1817c.843.2099 1.668.4866 2.4671.8273.1034.0498.2165.076.3312.0766.1151-.0001.2285-.0263.332-.0766.7987-.3427 1.6234-.6212 2.4664-.8326l.2637 3.1862c-.1556.2438-1.2152.7897-3.0621.7897zm20.9676-1.8155c-.1468.1788-.3659.2823-.5972.2822h-15.8309l-.23-2.7846c4.224-.7953 8.5801-.5166 12.6684.8104.5085.1571 1.0622.0401 1.4637-.3094s.5937-.8818.5081-1.4072l-2.4035-14.4555h1.2267l3.358 17.2347c.0425.2237-.0174.4547-.1633.6294z" fill="url(#b)"/><path d="m21.2091 17.8916c-.3139.284-.3382.7686-.0545 1.0826.6504.718 1.5099 1.2136 2.4572 1.4168-.429.6045-1.1247.9633-1.8661.9621-.4234 0-.7666.3433-.7666.7667s.3432.7667.7666.7667c1.5872.0063 3.0112-.9739 3.5719-2.4587 1.9064-.316 3.4156-1.7833 3.7851-3.68.057-.2713-.0368-.5523-.2454-.7349-.2087-.1825-.4996-.2382-.7609-.1456s-.4523.319-.4995.5922c-.1503.7907-.6065 1.4902-1.2696 1.9466-1.2755.8591-2.9862.6641-4.0357-.46-.2839-.3139-.7685-.3382-1.0825-.0545z" fill="url(#c)"/><path d="m18.5364 17.0595c.4235 0 .7667-.3433.7667-.7667 0-.5287.21-1.0357.5838-1.4095.3739-.3738.8809-.5839 1.4095-.5839.4235 0 .7667-.3432.7667-.7666s-.3432-.7667-.7667-.7667c-1.9468.0021-3.5245 1.5798-3.5266 3.5267 0 .2033.0807.3983.2245.5421s.3388.2246.5421.2246z" fill="url(#d)"/><path d="m24.5167 2.03285v-.76667c0-.42342-.3432-.766668-.7666-.766668-.4235 0-.7667.343248-.7667.766668v.76667c0 .42341.3432.76666.7667.76666.4234 0 .7666-.34325.7666-.76666z" fill="url(#e)"/><path d="m36.3308 6.00116-.7666.76667c-.1993.19249-.2793.47754-.2091.74559.0701.26805.2795.47738.5475.54754.2681.07017.5531-.00976.7456-.20906l.7667-.76667c.1993-.19249.2792-.47754.2091-.74559-.0702-.26805-.2795-.47738-.5476-.54754-.268-.07017-.5531.00976-.7456.20906z" fill="url(#f)"/><path d="m11.3936 8.07653c.31-.00007.5895-.18686.7082-.4733.1186-.28644.053-.61614-.1662-.8354l-.7666-.76667c-.1925-.1993-.4776-.27923-.7456-.20906-.2681.07016-.4774.27949-.54756.54754-.07017.26805.00976.5531.20906.74559l.7667.76667c.1437.14378.3387.22459.542.22463z" fill="url(#g)"/><path d="m17.2953 4.85047c.1008-.00021.2005-.02.2937-.05826.1879-.07784.3371-.22716.4149-.41509s.0778-.39907-.0002-.58695l-.8809-2.1252c-.1009-.25884-.3339-.44284-.6091-.48095s-.5495.07564-.7169.29732c-.1675.22169-.2019.51661-.09.7709l.8801 2.1252c.1188.28642.3984.47311.7084.47303z" fill="url(#h)"/><path d="m31.3782 1.24983c-.391-.16176-.8392.02388-1.0013.41477l-.8809 2.1252c-.0781.18796-.0783.3993-.0005.58741s.2272.33756.4153.41539c.0932.03826.1929.05805.2936.05827.3101.00008.5897-.18662.7084-.47303l.8802-2.12521c.0781-.18796.0783-.39929.0005-.5874-.0778-.18812-.2272-.33756-.4153-.4154z" fill="url(#i)"/><path d="m39.3326 13.9792c.1008-.0002.2005-.0202.2936-.059l2.1244-.8802c.2531-.1047.4311-.3366.4669-.6081.0358-.2716-.076-.5416-.2933-.7084-.2172-.1668-.507-.205-.7601-.1003l-2.1252.8802c-.3391.1393-.5321.4992-.4606.8588.0715.3595.3876.6181.7543.617z" fill="url(#j)"/><path d="m7.87372 13.9204c.39124.1621.83986-.0236 1.00203-.4148s-.02353-.8399-.41477-1.002l-2.1252-.8802c-.39123-.1619-.83969.024-1.00165.4152-.16195.3912.02392.8397.41515 1.0016z" fill="url(#k)"/></g></svg>