<svg fill="none" height="47" viewBox="0 0 47 47" width="47" xmlns="http://www.w3.org/2000/svg" xmlns:xlink="http://www.w3.org/1999/xlink"><linearGradient id="a"><stop offset="0" stop-color="#5f3dc1"/><stop offset="1" stop-color="#538f16"/></linearGradient><linearGradient id="b" gradientUnits="userSpaceOnUse" x1="5.21558" x2="50.1644" xlink:href="#a" y1=".78418" y2="37.006"/><linearGradient id="c" gradientUnits="userSpaceOnUse" x1="17.1228" x2="17.394" xlink:href="#a" y1="42.46" y2="45.1277"/><linearGradient id="d" gradientUnits="userSpaceOnUse" x1="20.8435" x2="30.1884" xlink:href="#a" y1="24.9712" y2="29.5878"/><linearGradient id="e" gradientUnits="userSpaceOnUse" x1="15.6343" x2="31.8658" xlink:href="#a" y1="22.7388" y2="38.9703"/><clipPath id="f"><path d="m.75.78418h46v46h-46z"/></clipPath><g clip-path="url(#f)"><path d="m42.1075 39.4658-2.366-9.5203c-1.1919-4.7951-3.9787-8.9946-7.9009-11.9507.4701-.397.7696-.9902.7696-1.6522 0-.5764-.2271-1.1004-.5961-1.4885.3689-.388.5961-.9119.5961-1.4884 0-1.0044-.6885-1.8509-1.6184-2.0928.3529-.4124.617-.9076.759-1.45964l1.1487-4.43633c.159-.59844.0535-1.23731-.2895-1.75292-.3429-.51552-.8914-.85979-1.5049-.94442l-3.163-.43628c-.0343-.11042-.0805-.21751-.1416-.31777-.2073-.3397-.5503-.57787-.9411-.65352l-1.8931-.366465c-.8497-.164501-1.7107-.161716-2.5591.007906l-1.8069.361349c-.3784.07574-.7138.30618-.9202.63222-.0673.10655-.118.22164-.1546.34068l-3.1304.43179c-.6134.08463-1.1619.42881-1.5047.94442-.343.51552-.4485 1.15448-.2906 1.74869l1.1495 4.43957c.1421.55262.4064 1.04802.7593 1.46062-.9299.2418-1.6184 1.0884-1.6184 2.0928 0 .5765.2271 1.1004.5961 1.4885-.3689.388-.5961.9119-.5961 1.4884 0 .662.2994 1.2553.7696 1.6522-.6553.4944-1.2838 1.0261-1.8764 1.5904-.2694.2566-.2799.6831-.0233.9527.1325.139.3101.2091.4881.2091.1669 0 .3342-.0617.4645-.1859.7892-.7515 1.6459-1.4419 2.5475-2.0563h12.9795c4.0914 2.7865 6.9984 6.9566 8.1939 11.7658l2.3664 9.5219c.0909.3617.1369.7346.1369 1.1084 0 2.5009-2.0347 4.5356-4.5355 4.5356h-3.2327c1.028-.9403 1.6739-2.2917 1.6739-3.7914 0-.3721-.3017-.6738-.6738-.6738-.3722 0-.6739.3017-.6739.6738 0 2.0905-1.7008 3.7914-3.7913 3.7914h-11.907c-2.0906 0-3.7914-1.7009-3.7914-3.7914 0-.3721-.3017-.6738-.6738-.6738s-.6738.3017-.6738.6738c0 1.4997.6459 2.8511 1.6738 3.7914h-3.2326c-2.50083 0-4.5355-2.0347-4.5355-4.5356 0-.3738.04609-.7468.13737-1.1101l2.36592-9.5202c.70355-2.83 2.04461-5.5245 3.87831-7.7922.234-.2894.1891-.7136-.1003-.9477-.2893-.234-.7136-.189-.9476.1003-1.95661 2.4197-3.38762 5.2948-4.13825 8.3145l-2.36556 9.5188c-.11787.4689-.17761.9525-.17761 1.4369 0 3.244 2.63912 5.8832 5.88312 5.8832h25.3027c3.244 0 5.8832-2.6392 5.8832-5.8832 0-.4845-.0597-.968-.1771-1.4353zm-11.664-22.3086h-13.3872c-.0003 0-.0006 0-.0009 0h-.003c-.4491 0-.8146-.3654-.8146-.8146s.3654-.8145.8146-.8145h13.3955c.4492 0 .8146.3653.8146.8145 0 .4491-.3654.8146-.8146.8146h-.0024c-.0007 0-.0013 0-.002 0zm-14.4312-12.78669c.1311-.19711.3324-.32352.5669-.35586l3.0689-.42325.4095 1.63765c.0902.36107.4561.58047.8171.49027.3611-.0902.5805-.45604.4902-.81712l-.5548-2.21956c-.0049-.01941-.0019-.03782.0088-.05471s.0261-.0275.0456-.03136l1.8069-.36135c.676-.13521 1.362-.13736 2.0387-.00637l1.8932.36646c.0203.00396.0359.01483.0467.03244s.0132.03656.0075.05633l-.6396 2.19296c-.1042.35722.101.73132.4582.83554.063.01833.1265.02713.1889.02713.2918 0 .5607-.191.6466-.48533l.4871-1.67026 3.1222.43062c.2345.03234.4358.15875.5669.35586.1311.19703.1699.43161.108.66448l-1.15 4.44154c-.2616 1.01688-1.1788 1.72718-2.2305 1.72718h-1.6353c.5126-.6288.8207-1.43043.8207-2.30298 0-.37213-.3017-.67382-.6739-.67382-.3721 0-.6738.30169-.6738.67382 0 1.26988-1.0331 2.30298-2.3029 2.30298s-2.3029-1.0332-2.3029-2.30316c0-.37213-.3017-.67382-.6739-.67382-.3721 0-.6738.30169-.6738.67382 0 .87255.3081 1.67426.8206 2.30296h-1.6352c-1.0518 0-1.969-.7102-2.2308-1.72815l-1.1508-4.44469c-.0608-.22865-.0221-.46322.109-.66025zm1.0401 8.18079h13.3955c.4492 0 .8146.3654.8146.8145s-.3654.8146-.8146.8146h-13.3955c-.4491 0-.8146-.3654-.8146-.8146 0-.4491.3654-.8145.8146-.8145z" fill="url(#b)"/><path d="m17.7966 42.46c-.3721 0-.6738.3017-.6738.6738s.3017.6738.6738.6738h11.9071c.3722 0 .6738-.3017.6738-.6738s-.3016-.6738-.6738-.6738z" fill="url(#c)"/><path d="m23.7499 34.6457c-.8595 0-1.5588-.6992-1.5588-1.5588 0-.3721-.3016-.6738-.6738-.6738-.3721 0-.6738.3017-.6738.6738 0 1.3707.954 2.5219 2.2326 2.8268v.15c0 .3721.3017.6738.6738.6738s.6738-.3017.6738-.6738v-.15c1.2787-.3049 2.2326-1.4561 2.2326-2.8268 0-1.6025-1.3038-2.9064-2.9064-2.9064-.8595 0-1.5588-.6992-1.5588-1.5587 0-.8596.6993-1.5588 1.5588-1.5588s1.5588.6992 1.5588 1.5588c0 .3721.3017.6738.6738.6738s.6738-.3017.6738-.6738c0-1.3707-.9539-2.5219-2.2326-2.8268v-.15c0-.3721-.3017-.6738-.6738-.6738s-.6738.3017-.6738.6738v.15c-1.2786.3049-2.2326 1.4561-2.2326 2.8268 0 1.6026 1.3038 2.9064 2.9064 2.9064.8595 0 1.5588.6992 1.5588 1.5587.0001.8596-.6993 1.5588-1.5588 1.5588z" fill="url(#d)"/><path d="m17.725 26.4339c-.3185-.1925-.7327-.0904-.9252.2281-.7625 1.2616-1.1655 2.7113-1.1655 4.1925 0 4.4751 3.6407 8.1158 8.1157 8.1158 4.4751 0 8.1158-3.6407 8.1158-8.1158 0-4.475-3.6407-8.1157-8.1158-8.1157-1.8306 0-3.5587.595-4.9974 1.7207-.293.2294-.3447.6529-.1154.9459.2293.2931.6529.3447.9458.1154 1.1993-.9384 2.6403-1.4344 4.167-1.4344 3.732 0 6.7681 3.0361 6.7681 6.7681s-3.0361 6.7681-6.7681 6.7681c-3.7319 0-6.7681-3.0361-6.7681-6.7681 0-1.2355.3358-2.4442.9712-3.4955.1925-.3184.0904-.7326-.2281-.9251z" fill="url(#e)"/></g></svg>