<svg fill="none" height="26" viewBox="0 0 29 26" width="29" xmlns="http://www.w3.org/2000/svg" xmlns:xlink="http://www.w3.org/1999/xlink"><linearGradient id="a" gradientUnits="userSpaceOnUse" x1="0" x2="24.7271" y1=".116211" y2="28.7997"><stop offset="0" stop-color="#5f3dc1"/><stop offset="1" stop-color="#538f16"/></linearGradient><path clip-rule="evenodd" d="m12.8254.129666c-2.92029.362545-5.59276 1.558674-7.77836 3.481394-2.73538 2.40642-4.444277 5.61338-4.922872 9.23814-.30815 2.3342-.0409084 4.7547.781246 7.0764.268396.7579.953526 2.1328 1.433736 2.8773.39023.6049.98511 1.3885 1.49168 1.9648l.23178.2636.0374-.45c.07323-.8808.27609-1.5899.63395-2.2159.20355-.3561.87826-1.0273 1.25591-1.2495.27903-.1643.31601-.2057.32989-.3701.0165-.1961.01153-.2043-.59399-.9799-.35738-.4579-.71833-1.1898-.86631-1.7569-.13886-.5322-.19176-1.6509-.10607-2.2446.08187-.5678.27893-1.3578.45-1.8044.2519-.6574.79717-1.7404 1.14974-2.2834l.34387-.5297v-1.134c0-.62369.01535-1.13403.0341-1.13403s1.42709.46902 3.1297 1.04223c1.7026.5733 3.2488 1.0759 3.4361 1.1171.4441.0976 1.4566.0967 1.8594-.0016.1729-.0422 1.6873-.5421 3.3655-1.11103l3.0511-1.03424v1.11077 1.1108l.3355.4667c.8404 1.1692 1.445 2.4434 1.7696 3.7297.1581.6261.1706.7385.1677 1.5019-.0025.6708-.0243.9049-.116 1.2511-.163.6145-.5221 1.3097-.9763 1.8899-.356.4548-.3945.5265-.3823.712.013.1961.0324.217.3938.4259 1.211.6998 1.8567 1.8519 1.9804 3.5337.02.2708.0477.4924.0618.4924.014 0 .1612-.1497.327-.3327 3.0877-3.4076 4.4089-7.9154 3.6616-12.493-.4648-2.84689-1.8107-5.57013-3.7843-7.65697-2.1951-2.32093-4.848-3.782927-7.917-4.362999-.6794-.128408-.8566-.139534-2.4095-.15114-.9219-.006868-1.7586-.002236-1.8595.010275zm1.9335 3.426774c.361.04764 1.8295.52587 8.2804 2.69667 1.7274.5813 1.911.69224 1.6126.97483-.0748.0708-1.7496.65859-4.7011 1.64992-4.672 1.56914-4.82 1.61534-5.3733 1.67714-.6735.0753-.9499-.0033-5.72428-1.6264-2.49061-.84674-4.60162-1.58285-4.69109-1.63582-.19988-.11829-.23712-.30201-.08789-.43356.12482-.1101.29301-.16946 5.50323-1.94343 4.23773-1.44288 4.34163-1.47014 5.18143-1.35935zm-6.54288 9.33866c0 .0715.02587.1462.05751.1661s.12592.1457.20952.2797c.23524.3771.21533.6664-.07061 1.0243-.44779.5604-.5227.6685-.68046.982-.24006.477-.35509.9035-.38762 1.4374-.1003 1.6453.94436 3.0175 2.52089 3.3112 1.05555.1966 2.19415-.1772 3.00975-.9884l.3061-.3043.034.295c.072.6236.5094 1.5272 1.045 2.1584l.1806.213.2007-.2345c.5103-.5963.9561-1.4336 1.0373-1.9483.0798-.5051.0444-.4959.4487-.1155 1.0683 1.0053 2.5774 1.2583 3.8217.6407.2907-.1444.4966-.3014.792-.6043.6206-.6362.8842-1.3057.8842-2.2454 0-.8733-.2926-1.6546-.8908-2.3786-.1664-.2015-.3287-.4159-.3606-.4766-.1268-.2407-.0303-.6015.2606-.9749.2724-.3495.2117-.3887-.5427-.3508-1.2089.0606-2.389.3478-3.3117.8059-.7468.3707-1.1804.7863-1.4929 1.4307-.3829.7895-.4536 1.5124-.2343 2.3932.0354.1418.0314.1453-.1036.0932-.1826-.0706-.8447-.07-.975.0009-.1212.0659-.1226.0469-.0221-.2899.1002-.3357.0989-1.079-.0025-1.5166-.3645-1.5714-1.787-2.5007-4.37181-2.8558-.30249-.0416-.73269-.0761-.95593-.0766-.39573-.0011-.40594.0021-.40594.1288zm2.23448 1.3583c-.63328.7125-.65544 1.7739-.0513 2.4556.9162 1.0336 2.5834.1122 2.5834-1.4279 0-.3285.0518-.3278.2183.0032.2409.4789.321 1.1881.1965 1.7399-.2423 1.0738-1.1698 1.971-2.2887 2.2138-.3748.0813-.4881.0854-.838.0302-1.74737-.2758-2.58141-2.1004-1.7073-3.7347.33083-.6185.93346-1.1413 1.594-1.3827.4545-.1661.5136-.1455.2931.1026zm8.417-.0823c.861.3294 1.4886 1.0115 1.7923 1.948.128.3947.1273 1.0994-.0014 1.4907-.1786.5432-.6047 1.0938-1.0543 1.3626-.2458.1469-.9445.3414-1.2217.3401-.3258-.0016-.9089-.1519-1.2501-.3222-1.0897-.544-1.7863-1.8428-1.5892-2.9636.0648-.3683.2335-.7972.3931-.9989.0801-.1012.0828-.096.0538.1064-.0396.2763.098.8745.2695 1.172.5602.9715 1.8011 1.1265 2.4171.3019.4825-.6461.4192-1.7214-.1394-2.368-.2061-.2385-.1457-.2511.3303-.069z" fill="url(#a)" fill-rule="evenodd"/></svg>