<svg fill="none" height="48" viewBox="0 0 63 48" width="63" xmlns="http://www.w3.org/2000/svg" xmlns:xlink="http://www.w3.org/1999/xlink"><linearGradient id="a" gradientUnits="userSpaceOnUse" x1="0" x2="46.284" y1="0" y2="60.3587"><stop offset="0" stop-color="#5f3dc1"/><stop offset="1" stop-color="#538f16"/></linearGradient><path d="m0 47.925v-12.6118c0-5.979 1.58816-12.2616 4.76448-18.8477 3.17631-6.63294 7.47372-12.12142 12.89212-16.4655l8.9684 7.28684c-3.4566 4.90456-6.1424 9.57566-8.0576 14.01316-1.9151 4.3908-2.8727 8.9684-2.8727 13.7329v12.8921zm35.8737 0v-12.6118c0-5.979 1.5881-12.2616 4.7645-18.8477 3.1763-6.63294 7.4737-12.12142 12.8921-16.4655l8.9684 7.28684c-3.4566 4.90456-6.1424 9.57566-8.0576 14.01316-1.9151 4.3908-2.8727 8.9684-2.8727 13.7329v12.8921z" fill="url(#a)"/></svg>