<svg width="75" height="76" viewBox="0 0 75 76" fill="none" xmlns="http://www.w3.org/2000/svg">
<g clip-path="url(#clip0)">
<path d="M68.5566 6.07794C57.332 0.686732 38.3202 0.0734468 37.4787 0.0449219C36.68 0.0449219 17.6681 0.686732 6.44358 6.07794C5.94831 6.31381 5.63222 6.81299 5.63062 7.36156V38.0544C5.63062 38.9957 6.20111 61.2879 37.008 74.9228C37.3758 75.0857 37.7955 75.0857 38.1633 74.9228C68.8561 61.2879 69.3552 38.9672 69.3695 38.0401V7.36156C69.3679 6.81299 69.0518 6.31381 68.5566 6.07794ZM66.517 38.0258C66.517 38.2398 65.9893 59.1343 37.4787 72.0561C9.08213 59.2198 8.45458 38.8958 8.44032 38.0401V8.27436C18.9375 3.59627 36.4946 2.92594 37.4787 2.89741C38.4628 2.86889 56.0199 3.59627 66.517 8.27436V38.0258Z" fill="url(#paint0_linear)"/>
<path d="M61.8246 12.7941C53.0389 8.51538 38.1917 8.0875 37.5784 8.07324H37.4786C36.8082 8.0875 21.961 8.55816 13.2324 12.7941C12.7371 13.03 12.421 13.5292 12.4194 14.0777V37.9388C12.4194 38.6805 12.8758 56.209 36.9509 66.8916C37.3186 67.0545 37.7383 67.0545 38.1061 66.8916C62.1954 56.209 62.6375 38.6805 62.6375 37.9246V14.0777C62.6359 13.5292 62.3198 13.03 61.8246 12.7941ZM15.2149 14.9905C23.3445 11.4677 36.6086 10.9543 37.4786 10.9115C42.9758 11.1457 48.441 11.8713 53.8091 13.0794L15.2149 37.0118V14.9905ZM59.7422 37.9103C59.728 38.5664 59.2288 54.1124 37.4786 64.0248C31.6959 61.5418 26.5045 57.862 22.2463 53.2282L59.7422 29.8805V37.9103ZM20.3636 50.9747C17.9388 47.7913 16.253 44.1082 15.4288 40.1923L57.446 14.149C58.2162 14.4058 58.9721 14.691 59.6852 14.9905L59.7422 26.5289L20.3636 50.9747Z" fill="url(#paint1_linear)"/>
</g>
<defs>
<linearGradient id="paint0_linear" x1="5.63062" y1="0.0449219" x2="79.6489" y2="62.9495" gradientUnits="userSpaceOnUse">
<stop stop-color="#5F3DC1"/>
<stop offset="1" stop-color="#538F16"/>
</linearGradient>
<linearGradient id="paint1_linear" x1="12.4194" y1="8.07324" x2="70.6121" y2="57.6541" gradientUnits="userSpaceOnUse">
<stop stop-color="#5F3DC1"/>
<stop offset="1" stop-color="#538F16"/>
</linearGradient>
<clipPath id="clip0">
<rect width="75" height="75" fill="white" transform="translate(0 0.0449219)"/>
</clipPath>
</defs>
</svg>
