<svg fill="none" height="158" viewBox="0 0 158 158" width="158" xmlns="http://www.w3.org/2000/svg"><path d="m8.41235 51.0938v12.0208l13.02435 2.8824c.9536 4.0518 2.5541 7.9233 4.74 11.4657l-7.1741 11.2308 8.4979 8.4979 11.2521-7.1741c3.5331 2.2087 7.4073 3.8175 11.4657 4.7614l2.8824 13.0243h12.0208l2.8611-13.0243c4.0639-.9476 7.9445-2.5562 11.4871-4.7614l11.2308 7.1741 8.4978-8.4979-7.174-11.2308c2.1925-3.5414 3.8003-7.4129 4.7613-11.4657l13.0244-2.8824v-12.0208l-13.0244-2.8824c-.9571-4.0541-2.5651-7.9262-4.7613-11.4657l7.174-11.2522-8.4978-8.4978-11.2308 7.174c-3.5481-2.1897-7.4273-3.7905-11.4871-4.74l-2.8611-13.02429h-12.0208l-2.8824 13.02429c-4.0543.9458-7.9271 2.5468-11.4657 4.74l-11.2521-7.174-8.4979 8.4978 7.1741 11.2522c-2.1896 3.5405-3.7903 7.4126-4.74 11.4657zm50.68815-16.7822c4.5088-.0021 8.917 1.3331 12.6669 3.8368 3.7498 2.5037 6.6728 6.0633 8.3993 10.2285 1.7264 4.1653 2.1787 8.749 1.2996 13.1713s-3.0501 8.4845-6.2384 11.6728c-3.1882 3.1882-7.2505 5.3592-11.6728 6.2383s-9.006.4269-13.1712-1.2996c-4.1653-1.7264-7.7249-4.6494-10.2285-8.3993-2.5037-3.7498-3.8389-8.158-3.8368-12.6669.0034-6.0411 2.4047-11.8338 6.6764-16.1055s10.0644-6.673 16.1055-6.6764z" fill="#bbbbcd"/><path d="m119.482 108.777c3.201-.005 6.286 1.193 8.643 3.358 2.358 2.165 3.815 5.137 4.082 8.327.267 3.189-.676 6.362-2.64 8.889-1.965 2.527-4.808 4.222-7.965 4.749-3.156.527-6.396-.152-9.075-1.903s-4.601-4.446-5.385-7.549-.372-6.388 1.154-9.201 4.054-4.95 7.082-5.985c1.321-.453 2.708-.685 4.104-.685zm-.038 23.247c1.533.004 3.048-.326 4.44-.966 1.393-.641 2.629-1.578 3.623-2.745.993-1.167 1.721-2.536 2.132-4.013.41-1.477.494-3.025.246-4.538s-.823-2.953-1.685-4.221c-.861-1.267-1.989-2.332-3.304-3.12-1.314-.788-2.785-1.28-4.309-1.442-1.525-.162-3.066.011-4.517.505-2.364.805-4.365 2.423-5.649 4.565-1.283 2.142-1.765 4.67-1.36 7.134.405 2.465 1.67 4.705 3.572 6.324s4.316 2.511 6.813 2.517z" fill="#323c6b"/><path d="m96.2092 123.71-6.8752 4.184 2.3273 6.876 8.0068-.897c1.3289 2.133 3.0029 4.03 4.9539 5.615l-1.922 7.836 6.512 3.203 5.018-6.299c2.449.56 4.971.725 7.473.491l4.185 6.875 6.875-2.348-.897-7.986c2.13-1.341 4.033-3.013 5.637-4.953l7.814 1.922 3.203-6.513-6.299-5.039c.571-2.447.737-4.971.491-7.473l6.876-4.163-2.328-6.875-8.007.897c-1.328-2.14-3.002-4.044-4.953-5.637l1.922-7.8147-6.513-3.2027-5.017 6.2772c-2.456-.5629-4.987-.7216-7.494-.4697l-4.164-6.8751-6.875 2.3273.897 8.0067c-2.13 1.334-4.033 2.999-5.637 4.932l-7.8147-1.9-3.2027 6.512 6.2986 5.018c-.5706 2.447-.7365 4.972-.491 7.473zm19.5148-13.238c2.175-.739 4.52-.817 6.739-.223 2.218.594 4.211 1.833 5.726 3.559s2.484 3.863 2.784 6.14c.301 2.277-.081 4.592-1.096 6.652-1.015 2.061-2.618 3.774-4.607 4.923s-4.274 1.682-6.565 1.533c-2.292-.15-4.489-.975-6.311-2.373-1.823-1.397-3.19-3.304-3.929-5.479-.491-1.444-.693-2.97-.594-4.492s.497-3.01 1.171-4.378c.675-1.368 1.612-2.59 2.758-3.596 1.147-1.006 2.48-1.776 3.924-2.266z" fill="#bbbbcd"/><path d="m21.9705 65.1067c.9537 4.0518 2.5542 7.9233 4.74 11.4657l-7.174 11.2308 8.4978 8.4914 11.2522-7.174c3.5331 2.2086 7.4073 3.8175 11.4656 4.7613l2.8825 13.0241h12.0208l.79-3.565h-8.3911l-2.8824-13.0248c-3.8064-.9104-7.4773-2.3152-10.9191-4.1784l-11.2522 7.174-10.3383-10.4087 7.1741-11.2308c-1.4011-3.2881-2.553-6.6769-3.4461-10.1377l-13.0244-2.8824v-9.4373l-4.41969.9822v12.0208zm4.74-29.2513c-1.6811 2.7301-3.0219 5.6556-3.9927 8.7113l3.6725-.8113c.9497-4.0531 2.5504-7.9252 4.74-11.4657l-7.1741-11.2522 4.5905-4.5969-.5124-.3416-8.4978 8.4978zm53.293 53.2716 11.2308 7.1676 3.9073-3.9073-10.7184-6.8324c-3.5425 2.2053-7.4231 3.8138-11.487 4.7613l-.5338 2.4341c2.6593-.9245 5.2084-2.1396 7.6011-3.6233z" fill="#9297ab"/><path d="m91.6613 134.77 8.0068-.897c1.3289 2.133 3.0029 4.03 4.9539 5.615l-1.922 7.836 6.512 3.203 3.288-4.121-5.38-2.647 1.921-7.836c-1.95-1.586-3.624-3.483-4.953-5.616l-8.0069.897-2.0711-6.149-4.676 2.839zm5.039-18.533c-.5066 2.174-.6936 4.411-.5552 6.64l4.4839-2.733c-.246-2.501-.08-5.026.491-7.473l-6.2987-5.018 1.1744-2.37-2.3914-.576-3.2027 6.512zm25.0027 28.482 4.185 6.875 6.875-2.348-.214-1.986-2.242.769-4.185-6.875c-2.501.234-5.023.068-7.473-.491l-3.053 3.821c2.017.346 4.07.425 6.107.235z" fill="#9297ab"/><g fill="#323c6b"><path d="m60.3005 44.0308v1.8917c1.9298.1014 3.7924.742 5.3763 1.8491l-.8434 2.3486c-1.5068-.979-3.2634-1.5038-5.0603-1.5117-2.496 0-4.1827 1.4412-4.1827 3.444 0 1.9323 1.3707 3.128 3.9713 4.1827 3.5849 1.405 5.7969 3.0213 5.7969 6.0788-.0124 1.4677-.5571 2.881-1.5329 3.9774-.9759 1.0964-2.3165 1.8014-3.7729 1.9839v1.8917h-2.1778v-1.7466c-1.633-.0952-3.2107-.626-4.5692-1.5372l.8775-2.3188c1.3385.7971 2.8705 1.2108 4.4283 1.1957 2.7073 0 3.7258-1.6163 3.7258-3.0212 0-1.8277-1.3003-2.7416-4.3578-4.0056-3.6297-1.4775-5.4467-3.303-5.4467-6.431.0175-1.5383.5881-3.0188 1.6074-4.171 1.0193-1.1523 2.4193-1.8991 3.9439-2.1042v-2.0006z"/><path d="m99.5849 36.1309c.1997 0 .3954.056.5651.1617.169.1057.306.2568.394.4361.512 1.0505.986 2.1181 1.422 3.2028.055.1307.084.2712.085.4133 0 .142-.028.2828-.082.414-.055.1312-.135.2501-.236.35-.101.0998-.221.1784-.353.2313s-.273.0789-.415.0765-.282-.0331-.412-.0903-.247-.1398-.345-.2429-.174-.2247-.2239-.3577c-.427-1.0376-.8668-2.0604-1.3601-3.0639-.0797-.1628-.1167-.3431-.1075-.5242.0093-.181.0644-.3566.1604-.5104.0959-.1538.2293-.2807.3878-.3686s.3368-.1341.518-.1341z"/><path d="m105.363 42.4892c.076.0005.153.009.228.0256l10.847 2.3957c.237.052.45.1837.603.3732.152.1895.235.4254.236.6687v12.4073c0 .2831-.113.5547-.313.7549s-.472.3126-.755.3126-.555-.1124-.755-.3126-.313-.4718-.313-.7549v-11.5554l-10.009-2.212c-.256-.0572-.482-.2067-.635-.4202-.153-.2134-.222-.4757-.194-.7367s.152-.5025.347-.6782.448-.2734.71-.2744z"/><path d="m151.479 124.816c.242 0 .477.082.666.233l5.056 4.041c.19.152.322.364.375.602.053.237.023.485-.084.703l-4.341 8.816c-.062.126-.148.239-.253.332-.106.093-.228.164-.361.209-.133.046-.274.065-.414.056s-.277-.045-.403-.107c-.127-.062-.239-.148-.332-.253-.093-.106-.164-.228-.21-.361-.045-.133-.064-.274-.056-.414.009-.14.046-.278.107-.404l3.968-8.045-4.386-3.506c-.173-.138-.299-.326-.36-.539-.062-.213-.055-.439.018-.648s.209-.391.39-.519.397-.196.618-.196z"/><path d="m150.382 141.363c.164 0 .325.038.472.111.126.062.238.148.33.254.093.105.164.228.209.361s.063.273.054.413c-.01.14-.046.277-.109.403l-.766 1.556c-.062.126-.148.239-.254.332-.105.093-.228.164-.361.209-.133.046-.274.065-.414.056s-.278-.046-.404-.108-.239-.148-.332-.254c-.092-.105-.164-.228-.209-.361s-.064-.274-.055-.414.045-.277.107-.403l.767-1.557c.088-.18.226-.332.396-.438.171-.106.368-.161.569-.16z"/><path d="m53.1008 5.33785h12.0208c.2433.00021.4792.08351.6687.23611s.3212.36534.3733.603l2.7159 12.37314c3.7166.9354 7.2781 2.4047 10.5731 4.362l10.6757-6.8153c.2051-.131.4488-.1881.6907-.1617s.4675.1347.6395.3069l8.4957 8.4978c.1718.172.2808.3976.3068.6395.026.242-.031.4856-.162.6907l-6.8171 10.6906c1.9636 3.2876 3.4401 6.8426 4.3835 10.554l12.3836 2.7394c.237.0525.45.1843.602.3738.152.1894.235.4251.235.6681v12.0187c0 .243-.083.4787-.235.6681-.152.1895-.365.3214-.602.3739l-12.3836 2.7393c-.9445 3.7097-2.4194 7.2636-4.3792 10.5519l6.8128 10.6756c.132.2049.189.4484.163.6903s-.134.4677-.3056.6399l-8.4958 8.4979c-.1719.1722-.3976.2804-.6395.3068s-.4856-.0306-.6906-.1616l-10.6757-6.8154c-3.291 1.968-6.8535 3.4413-10.5732 4.3728l-2.7159 12.3839c-.0521.238-.1838.45-.3732.603-.1895.152-.4255.236-.6688.236h-12.0208c-.243 0-.4787-.083-.6681-.235-.1895-.152-.3213-.365-.3738-.602l-2.7394-12.3859c-3.7152-.9317-7.2719-2.4089-10.554-4.3835l-10.6906 6.8132c-.2048.1305-.4481.1873-.6895.1609-.2415-.0264-.4667-.1344-.6385-.306l-8.4957-8.4979c-.1719-.1722-.2798-.398-.3058-.6399s.0314-.4854.1627-.6903l6.8132-10.6756c-1.9535-3.2894-3.4227-6.8433-4.3621-10.5519l-12.38374-2.7394c-.23726-.0524-.44953-.1843-.60171-.3738-.15218-.1894-.23516-.4251-.23526-.6681v-12.0208c.0001-.243.08308-.4787.23526-.6682.15218-.1894.36445-.3213.60171-.3738l12.38374-2.7393c.9369-3.7095 2.4062-7.2637 4.3621-10.5519l-6.8153-10.6927c-.1305-.2049-.1872-.4481-.1608-.6896.0263-.2414.1343-.4667.306-.6385l8.4957-8.4978c.1718-.1717.397-.2796.6385-.306.2414-.0264.4847.0303.6895.1608l10.6928 6.8153c3.2865-1.9567 6.8413-3.4227 10.5518-4.3514l2.7394-12.38375c.0545-.23493.1869-.44448.3758-.59452.1888-.15005.4228-.23175.664-.23178zm11.1625 2.13514h-10.3042l-2.6988 12.18731c-.0435.1967-.1418.3771-.2835.5203-.1416.1432-.321.2434-.5172.289-3.9405.9188-7.7045 2.4751-11.1432 4.6076-.1702.1069-.367.1636-.568.1636-.2009 0-.3978-.0567-.5679-.1636l-10.5326-6.715-7.283 7.2872 6.7129 10.5305c.1064.1699.1629.3663.1629.5669 0 .2005-.0565.3969-.1629.5668-2.1285 3.4431-3.6845 7.2085-4.6077 11.1497-.0456.1962-.1457.3755-.2889.5172s-.3236.24-.5203.2835l-12.18732 2.6967v10.2977l12.18732 2.6967c.196.0437.3758.1418.5185.2831.1428.1412.2428.3199.2886.5154.9273 3.9402 2.4839 7.7051 4.6098 11.1497.1064.1699.1629.3664.1629.5669s-.0565.397-.1629.5669l-6.7107 10.507 7.2829 7.285 10.5326-6.7128c.1706-.1078.3683-.165.5701-.165s.3995.0572.5701.165c3.4318 2.1433 7.1951 3.7031 11.1368 4.6161.1962.0456.3756.1458.5172.289.1417.1432.24.3236.2835.5203l2.6967 12.1933h10.3106l2.6774-12.1869c.0435-.1967.1418-.3771.2835-.5203s.321-.2434.5172-.289c3.9497-.9208 7.7214-2.4838 11.1646-4.6268.1704-.1073.3677-.1643.569-.1643.2014 0 .3987.057.569.1643l10.5092 6.7129 7.2829-7.2851-6.7128-10.507c-.1074-.1704-.1643-.3677-.1643-.569 0-.2014.0569-.3987.1643-.569 2.1334-3.444 3.6972-7.2097 4.6311-11.1518.0465-.1948.1468-.3726.2895-.513s.3221-.2379.5176-.2813l12.1762-2.6903v-10.3063l-12.1869-2.6967c-.1958-.0435-.3753-.1413-.518-.2821-.1428-.1409-.243-.3191-.2891-.5143-.9319-3.9421-2.4958-7.7074-4.6311-11.1496-.1073-.1704-.1643-.3677-.1643-.569 0-.2014.057-.3987.1643-.5691l6.7193-10.5283-7.283-7.2808-10.5091 6.7128c-.1699.1065-.3664.163-.5669.163s-.397-.0565-.5669-.163c-3.4495-2.1298-7.2213-3.6866-11.1689-4.6097-.1962-.0456-.3755-.1458-.5172-.289s-.2399-.3235-.2834-.5202zm-5.1628 25.77111c4.72-.0021 9.3346 1.3957 13.26 4.0167s6.9853 6.3473 8.7926 10.7076c1.8072 4.3603 2.2806 9.1587 1.3603 13.7881s-3.193 8.8818-6.5305 12.2194c-3.3376 3.3375-7.59 5.6102-12.2194 6.5305s-9.4278.4469-13.7881-1.3604c-4.3603-1.8072-8.0866-4.8671-10.7076-8.7925s-4.0188-8.54-4.0167-13.26c.0101-6.3221 2.5261-12.3824 6.9965-16.8529 4.4705-4.4704 10.5308-6.9864 16.8529-6.9965zm0 45.5851c4.2968.0021 8.4978-1.27 12.0716-3.6554s6.36-5.777 8.0063-9.7459 2.0786-8.3369 1.2424-12.5516c-.8361-4.2146-2.9033-8.0867-5.9401-11.1264-3.0368-3.0398-6.9069-5.1108-11.1207-5.9512-4.2138-.8403-8.5822-.4122-12.5527 1.2301-3.9706 1.6424-7.3649 4.4253-9.7538 7.9968-2.389 3.5714-3.6652 7.7711-3.6673 12.0679.0068 5.7589 2.296 11.2803 6.3662 15.3544 4.0701 4.0742 9.5893 6.3689 15.3481 6.3813z"/><path d="m113.034 90.2736c.184-.0001.364.0472.524.1374.161.0901.295.22.39.3772l3.817 6.3072c2.178-.1577 4.366-.0205 6.506.4078l4.604-5.7649c.151-.19.363-.3225.6-.3757.238-.0532.486-.0239.704.0832l6.512 3.2027c.219.1074.394.2862.497.5067.103.2206.127.4697.069.7061l-1.761 7.1717c1.649 1.427 3.095 3.072 4.3 4.89l7.345-.822c.242-.027.486.029.691.16.206.131.36.328.438.559l2.327 6.875c.078.231.075.48-.008.709-.084.228-.243.421-.451.547l-6.307 3.83c.153 2.17.009 4.351-.427 6.482l5.782 4.621c.19.152.322.364.375.601s.023.485-.084.703l-3.203 6.513c-.107.218-.286.393-.506.495-.22.103-.469.128-.705.07l-7.172-1.763c-1.434 1.64-3.079 3.084-4.891 4.294l.824 7.332c.027.241-.029.485-.159.69-.13.206-.326.36-.556.439l-6.876 2.349c-.23.079-.48.076-.708-.006-.229-.083-.423-.241-.549-.449l-3.843-6.314c-2.169.146-4.348.003-6.478-.427l-4.604 5.782c-.152.191-.364.324-.602.377-.237.053-.486.023-.704-.084l-6.515-3.203c-.218-.107-.393-.286-.496-.507-.103-.22-.128-.469-.07-.706l1.762-7.189c-1.651-1.418-3.098-3.058-4.3002-4.872l-7.347.824c-.2421.027-.4862-.03-.6916-.161-.2055-.13-.36-.328-.4379-.558l-2.3273-6.876c-.0775-.229-.0745-.479.0086-.706.083-.228.2411-.421.4483-.547l6.3093-3.843c-.1514-2.17-.0078-4.351.4271-6.482l-5.782-4.606c-.1905-.152-.3234-.364-.3766-.602-.0532-.237-.0235-.486.0841-.705l3.2027-6.512c.1072-.217.2853-.392.5049-.495.2197-.103.4678-.128.7036-.071l7.176 1.745c1.433-1.633 3.077-3.069 4.887-4.27l-.824-7.3495c-.027-.2421.03-.4862.161-.6916.131-.2055.328-.36.559-.4379l6.877-2.3273c.111-.0407.228-.0623.346-.0641zm4.164 9.0103c-.184.0001-.365-.0472-.525-.1373-.16-.0902-.294-.2201-.389-.3773l-3.718-6.1406-5.25 1.7785.801 7.1528c.022.2-.012.403-.1.584s-.225.334-.396.441c-2.033 1.272-3.85 2.862-5.38 4.71-.127.153-.295.267-.483.329-.189.063-.391.071-.585.025l-6.9837-1.708-2.4468 4.973 5.6282 4.484c.1564.125.2745.291.341.48.0664.188.0785.392.0348.587-.5434 2.335-.7027 4.742-.4719 7.127.0202.201-.0166.402-.1061.583-.0895.18-.2282.331-.3999.436l-6.1449 3.738 1.7785 5.253 7.1527-.801c.1998-.022.4018.013.5831.101.181.087.333.224.44.395 1.265 2.033 2.861 3.841 4.72 5.35.158.128.275.297.34.489.065.191.073.397.026.594l-1.709 7.001 4.958 2.46 4.484-5.627c.125-.156.291-.274.48-.341.189-.066.392-.078.588-.034 2.338.536 4.747.695 7.135.469.199-.018.399.02.578.11.178.09.328.228.432.399l3.745 6.147 5.25-1.794-.8-7.133c-.023-.199.011-.4.098-.581.086-.18.222-.333.391-.44 2.034-1.28 3.851-2.877 5.382-4.729.128-.156.298-.272.489-.336.191-.063.396-.071.592-.023l6.98 1.708 2.446-4.97-5.624-4.503c-.156-.126-.273-.292-.339-.481-.066-.188-.078-.392-.034-.587.545-2.334.703-4.742.47-7.127-.021-.201.016-.403.106-.584s.229-.332.402-.437l6.136-3.726-1.776-5.252-7.153.801c-.201.022-.404-.013-.586-.101-.182-.089-.335-.227-.441-.399-1.267-2.039-2.862-3.855-4.721-5.374-.155-.128-.271-.297-.335-.487-.063-.191-.071-.396-.024-.591l1.709-6.9822-4.973-2.4447-4.484 5.6069c-.125.156-.291.2737-.48.3398-.189.066-.392.0778-.588.0338-2.344-.5358-4.759-.6872-7.152-.4484zm2.284 9.4931c3.201-.005 6.286 1.194 8.643 3.358 2.358 2.165 3.815 5.137 4.082 8.327.267 3.189-.676 6.362-2.64 8.889-1.965 2.527-4.808 4.222-7.965 4.749-3.156.528-6.396-.152-9.075-1.903s-4.601-4.446-5.385-7.549-.372-6.387 1.154-9.201c1.526-2.813 4.054-4.95 7.082-5.985 1.321-.453 2.708-.684 4.104-.685zm-.038 23.247c1.533.004 3.048-.326 4.44-.966 1.393-.641 2.629-1.578 3.623-2.745.993-1.167 1.721-2.536 2.132-4.013.41-1.477.494-3.025.246-4.538-.248-1.512-.823-2.953-1.685-4.22-.861-1.268-1.989-2.333-3.304-3.121-1.314-.788-2.785-1.28-4.309-1.442-1.525-.161-3.066.011-4.517.505-2.364.805-4.365 2.423-5.649 4.565-1.283 2.142-1.765 4.67-1.36 7.134.405 2.465 1.67 4.705 3.572 6.324s4.316 2.511 6.813 2.517z"/></g></svg>