<svg fill="none" height="147" viewBox="0 0 147 147" width="147" xmlns="http://www.w3.org/2000/svg"><path d="m19.3484 73.1484h16.7262v60.2696h-16.7262z" fill="#fe7058"/><path d="m78.3669 93.1326h16.7064v40.2864h-16.7064z" fill="#27ccbc"/><path d="m48.8477 44.6821h16.7262v88.7359h-16.7262z" fill="#89c5cd"/><path d="m107.866 69.2947h16.726v64.1233h-16.726z" fill="#fcd462"/><path d="m30.115 73.1423h5.9594v60.2697h-5.9594z" fill="#ea6453"/><path d="m89.1138 93.1265h5.9594v40.2855h-5.9594z" fill="#21b3a9"/><path d="m59.6145 44.676h5.9595v88.736h-5.9595z" fill="#6eaaad"/><path d="m118.633 69.2888h5.96v64.1242h-5.96z" fill="#f7be56"/><path d="m100.876 6.09863c-21.337 0-38.6333 19.63247-38.6333 19.63247s17.2963 19.6324 38.6333 19.6324 38.633-19.6324 38.633-19.6324-17.296-19.63247-38.633-19.63247z" fill="#e1e6e9"/><path d="m139.511 25.7251s-17.302 19.6265-38.637 19.6265c-21.3351 0-38.6374-19.6265-38.6374-19.6265l.0397-.0397c6.0191 5.6217 19.547 16.2891 35.28 16.2891 20.7387 0 37.6437-18.5339 38.5977-19.6066 2.165 2.0064 3.357 3.3572 3.357 3.3572z" fill="#d5d6db"/><path d="m100.268 45.3573c-3.8823 0-7.6772-1.1512-10.9051-3.308s-5.7437-5.2223-7.2294-8.809c-1.4856-3.5866-1.8743-7.5332-1.1169-11.3408.7573-3.8076 2.6268-7.305 5.3719-10.0501 2.7451-2.74509 6.2425-4.61452 10.0501-5.37189 3.8074-.75737 7.7544-.36866 11.3404 1.11697 3.587 1.48563 6.653 4.00142 8.809 7.22932 2.157 3.2279 3.308 7.0229 3.308 10.905-.005 5.204-2.075 10.1933-5.755 13.8731s-8.669 5.7496-13.873 5.7554z" fill="#fcd462"/><path d="m119.904 25.7251c.001 2.8753-.633 5.7153-1.855 8.3179-1.223 2.6026-3.004 4.9037-5.217 6.7397 2.881-3.8505 4.247-8.6252 3.839-13.4167-.409-4.7916-2.563-9.2661-6.054-12.5734-3.491-3.3072-8.076-5.21671-12.8825-5.36561-4.8066-.14891-9.5004 1.47311-13.1896 4.55801 2.467-3.3037 5.9116-5.74679 9.8452-6.98262s8.1569-1.20171 12.0699.09753 7.317 3.79759 9.731 7.14079c2.413 3.3431 3.712 7.3612 3.713 11.4844z" fill="#f7be56"/><g fill="#323c6b"><path d="m99.2389 36.6824v-1.5892c-1.6364-.0027-3.2397-.4608-4.6305-1.323l.7251-2.0282c1.2978.8428 2.8108 1.2945 4.3583 1.3011 2.1492 0 3.6012-1.2415 3.6012-2.9658 0-1.6647-1.18-2.6937-3.4204-3.6015-3.087-1.2098-4.994-2.6023-4.994-5.2364.0187-1.2353.4973-2.4192 1.3421-3.3206s1.9953-1.4555 3.2268-1.5542v-1.5892h1.8755v1.464c1.381.0112 2.736.3765 3.935 1.0608l-.757 1.9984c-1.153-.6863-2.472-1.0423-3.814-1.029-2.3321 0-3.2081 1.3906-3.2081 2.6023 0 1.5733 1.1203 2.362 3.7541 3.4505 3.119 1.2714 4.692 2.8447 4.692 5.5404-.023 1.2963-.525 2.5382-1.407 3.4879-.883.9497-2.085 1.5404-3.376 1.659v1.6766z"/><path d="m13.389 82.6258c-.2634 0-.5161-.1047-.7023-.2909-.1863-.1863-.2909-.4389-.2909-.7024v-.6197c0-.2635.1046-.5161.2909-.7024.1862-.1862.4389-.2909.7023-.2909s.5161.1047.7023.2909c.1863.1863.2909.4389.2909.7024v.6217c-.0005.2631-.1054.5152-.2916.7011-.1862.1858-.4385.2902-.7016.2902z"/><path d="m13.389 77.5344c-.2634 0-.5161-.1046-.7023-.2909-.1863-.1863-.2909-.4389-.2909-.7023v-9.3524c0-.2634.1046-.5161.2909-.7023.1862-.1863.4389-.2909.7023-.2909h6.9726c.2634 0 .516.1046.7023.2909.1863.1862.2909.4389.2909.7023s-.1046.5161-.2909.7023c-.1863.1863-.4389.2909-.7023.2909h-5.9794v8.3592c0 .2634-.1046.516-.2909.7023-.1862.1863-.4389.2909-.7023.2909z"/><path d="m121.672 6.18383c-.148.00004-.295-.03322-.429-.09734-.475-.22844-.965-.44298-1.452-.65951l.226-.99324.398-.90981c.681.29797 1.192.52244 1.684.75883.203.09725.368.26065.466.46342.098.20276.124.43284.074.65248s-.173.41581-.349.55631c-.176.14051-.395.217-.62.21694z"/><path d="m139.716 18.5337c-.245-.0016-.481-.0936-.662-.2583-3.916-3.5861-8.187-6.7656-12.745-9.48941-.116-.06448-.218-.15148-.299-.25586-.082-.10438-.142-.22404-.177-.35193-.034-.12789-.043-.26143-.025-.39275.017-.13131.061-.25776.129-.37188.067-.11412.156-.21362.263-.29263.106-.07901.227-.13594.356-.16743.129-.0315.262-.03691.393-.01594s.256.06791.369.13806c4.678 2.79376 9.06 6.05507 13.079 9.73377.148.1352.251.3119.297.507.045.1951.031.3994-.042.5861-.072.1867-.2.3471-.365.4601s-.361.1733-.562.1731z"/><path d="m100.876 46.3527c-21.5397 0-38.6612-19.1518-39.3783-19.9682-.1598-.1814-.2479-.4148-.2479-.6565 0-.2418.0881-.4752.2479-.6566.7171-.8164 17.8386-19.96813 39.3783-19.96813 21.539 0 38.659 19.15373 39.37 19.97013.16.1814.248.4148.248.6566 0 .2417-.088.4751-.248.6565-.711.8144-17.833 19.9662-39.37 19.9662zm-37.2766-20.6237c3.232 3.377 18.8398 18.6372 37.2786 18.6372 18.438 0 34.046-15.2562 37.276-18.6372-3.232-3.3771-18.84-18.63924-37.276-18.63924-18.4368 0-34.0486 15.25824-37.2786 18.63924z"/><path d="m100.268 46.3506c-4.0786 0-8.0656-1.2094-11.4568-3.4754-3.3913-2.2659-6.0344-5.4866-7.5952-9.2547s-1.9692-7.9145-1.1735-11.9147 2.7597-7.6747 5.6437-10.5587c2.884-2.88395 6.5584-4.84798 10.5587-5.64367 4.0001-.7957 8.1461-.38732 11.9151 1.17349 3.768 1.56081 6.988 4.20398 9.254 7.59518s3.476 7.3782 3.476 11.4568c-.007 5.4673-2.181 10.7088-6.047 14.5748-3.866 3.8659-9.108 6.0406-14.575 6.0469zm0-39.25891c-3.6857.00039-7.2884 1.09366-10.3527 3.14161-3.0643 2.0479-5.4525 4.9584-6.8626 8.3636-1.4102 3.4052-1.7789 7.152-1.0597 10.7668.7193 3.6147 2.4943 6.935 5.1006 9.541 2.6062 2.606 5.9267 4.3806 9.5415 5.0995 3.6149.7189 7.3619.3498 10.7669-1.0608 3.405-1.4105 6.315-3.799 8.363-6.8635 2.047-3.0645 3.14-6.6674 3.14-10.353-.006-4.9406-1.972-9.677-5.466-13.1701-3.494-3.49317-8.23-5.45787-13.171-5.46313z"/><path d="m36.0747 134.414h-16.7262c-.2635 0-.5161-.105-.7024-.291-.1862-.187-.2909-.439-.2909-.703v-60.2717c0-.2635.1047-.5161.2909-.7024.1863-.1862.4389-.2909.7024-.2909h16.7262c.2634 0 .516.1047.7023.2909.1863.1863.2909.4389.2909.7024v60.2697c.0003.131-.0252.26-.075.381s-.1229.23-.2152.323c-.0922.092-.2018.166-.3225.216-.1206.05-.2499.076-.3805.076zm-15.733-1.987h14.7397v-58.2855h-14.7397z"/><path d="m95.0734 134.414h-16.7064c-.2634 0-.516-.105-.7023-.291-.1863-.187-.2909-.439-.2909-.703v-40.2876c0-.2634.1046-.5161.2909-.7023.1863-.1863.4389-.2909.7023-.2909h16.7064c.2634 0 .516.1046.7023.2909.1863.1862.2909.4389.2909.7023v40.2856c.0003.131-.0252.26-.075.381s-.1229.231-.2152.323-.2018.166-.3225.216c-.1206.05-.2499.076-.3805.076zm-15.7131-1.987h14.7198v-38.3014h-14.7198z"/><path d="m65.5739 134.414h-16.7262c-.2634 0-.516-.105-.7023-.291-.1863-.187-.2909-.439-.2909-.703v-88.7361c0-.2634.1046-.516.2909-.7023s.4389-.2909.7023-.2909h16.7262c.2635 0 .5161.1046.7024.2909.1862.1863.2909.4389.2909.7023v88.7361c0 .264-.1047.516-.2909.703-.1863.186-.4389.291-.7024.291zm-15.7329-1.987h14.7397v-86.7498h-14.7397z"/><path d="m124.593 134.414h-16.727c-.263 0-.516-.105-.702-.291-.186-.187-.291-.439-.291-.703v-64.1255c0-.2634.105-.516.291-.7023s.439-.2909.702-.2909h16.727c.263 0 .516.1046.702.2909s.291.4389.291.7023v64.1235c0 .131-.025.26-.075.381s-.123.23-.215.323c-.093.092-.202.166-.323.216s-.25.076-.38.076zm-15.733-1.987h14.739v-62.1392h-14.739z"/></g><path d="m8.93921 132.35h126.06279v8.691h-126.06279z" fill="#84879c"/><path d="m135.001 142.034h-126.06196c-.26342 0-.51606-.105-.70232-.291-.18627-.186-.29092-.439-.29092-.702v-8.691c0-.264.10465-.516.29092-.703.18626-.186.4389-.291.70232-.291h126.06196c.264 0 .517.105.703.291.186.187.291.439.291.703v8.691c0 .263-.105.516-.291.702s-.439.291-.703.291zm-125.06871-1.987h124.07571v-6.704h-124.07571z" fill="#323c6b"/><path d="m112.981 108.86c-.342 0-.67-.136-.913-.379-.242-.242-.378-.57-.378-.913v-1.225c0-.343.136-.671.378-.913.243-.242.571-.378.913-.378.343 0 .671.136.913.378.243.242.379.57.379.913v1.225c0 .343-.136.671-.379.913-.242.243-.57.379-.913.379z" fill="#fff"/><path d="m112.981 102.642c-.342 0-.67-.136-.913-.378-.242-.242-.378-.571-.378-.913v-16.1306c0-.3424.136-.6709.378-.913.243-.2422.571-.3782.913-.3782.343 0 .671.136.913.3782.243.2421.379.5706.379.913v16.1306c0 .342-.136.671-.379.913-.242.242-.57.378-.913.378z" fill="#fff"/></svg>