<svg width="158" height="158" viewBox="0 0 158 158" fill="none" xmlns="http://www.w3.org/2000/svg">
<path d="M8.41235 51.0938V63.1146L21.4367 65.997C22.3903 70.0488 23.9908 73.9203 26.1767 77.4627L19.0026 88.6935L27.5005 97.1914L38.7526 90.0173C42.2857 92.226 46.1599 93.8348 50.2183 94.7787L53.1007 107.803H65.1215L67.9826 94.7787C72.0465 93.8311 75.9271 92.2225 79.4697 90.0173L90.7005 97.1914L99.1983 88.6935L92.0243 77.4627C94.2168 73.9213 95.8246 70.0498 96.7856 65.997L109.81 63.1146V51.0938L96.7856 48.2114C95.8285 44.1573 94.2205 40.2852 92.0243 36.7457L99.1983 25.4935L90.7005 16.9957L79.4697 24.1697C75.9216 21.98 72.0424 20.3792 67.9826 19.4297L65.1215 6.40541H53.1007L50.2183 19.4297C46.164 20.3755 42.2912 21.9765 38.7526 24.1697L27.5005 16.9957L19.0026 25.4935L26.1767 36.7457C23.9871 40.2862 22.3864 44.1583 21.4367 48.2114L8.41235 51.0938ZM59.1005 34.3116C63.6093 34.3095 68.0175 35.6447 71.7674 38.1484C75.5172 40.6521 78.4402 44.2117 80.1667 48.3769C81.8931 52.5422 82.3454 57.1259 81.4663 61.5482C80.5872 65.9705 78.4162 70.0327 75.2279 73.221C72.0397 76.4092 67.9774 78.5802 63.5551 79.4593C59.1328 80.3384 54.5491 79.8862 50.3839 78.1597C46.2186 76.4333 42.659 73.5103 40.1554 69.7604C37.6517 66.0106 36.3165 61.6024 36.3186 57.0935C36.322 51.0524 38.7233 45.2597 42.995 40.988C47.2667 36.7163 53.0594 34.315 59.1005 34.3116Z" fill="#BBBBCD"/>
<path d="M119.482 108.777C122.683 108.772 125.768 109.97 128.125 112.135C130.483 114.3 131.94 117.272 132.207 120.462C132.474 123.651 131.531 126.824 129.567 129.351C127.602 131.878 124.759 133.573 121.602 134.1C118.446 134.627 115.206 133.948 112.527 132.197C109.848 130.446 107.926 127.751 107.142 124.648C106.358 121.545 106.77 118.26 108.296 115.447C109.822 112.634 112.35 110.497 115.378 109.462C116.699 109.009 118.086 108.777 119.482 108.777ZM119.444 132.024C120.977 132.028 122.492 131.698 123.884 131.058C125.277 130.417 126.513 129.48 127.507 128.313C128.5 127.146 129.228 125.777 129.639 124.3C130.049 122.823 130.133 121.275 129.885 119.762C129.637 118.249 129.062 116.809 128.2 115.541C127.339 114.274 126.211 113.209 124.896 112.421C123.582 111.633 122.111 111.141 120.587 110.979C119.062 110.817 117.521 110.99 116.07 111.484C113.706 112.289 111.705 113.907 110.421 116.049C109.138 118.191 108.656 120.719 109.061 123.183C109.466 125.648 110.731 127.888 112.633 129.507C114.535 131.126 116.949 132.018 119.446 132.024H119.444Z" fill="#323C6B"/>
<path d="M96.2092 123.71L89.334 127.894L91.6613 134.77L99.6681 133.873C100.997 136.006 102.671 137.903 104.622 139.488L102.7 147.324L109.212 150.527L114.23 144.228C116.679 144.788 119.201 144.953 121.703 144.719L125.888 151.594L132.763 149.246L131.866 141.26C133.996 139.919 135.899 138.247 137.503 136.307L145.317 138.229L148.52 131.716L142.221 126.677C142.792 124.23 142.958 121.706 142.712 119.204L149.588 115.041L147.26 108.166L139.253 109.063C137.925 106.923 136.251 105.019 134.3 103.426L136.222 95.6113L129.709 92.4086L124.692 98.6858C122.236 98.1229 119.705 97.9642 117.198 98.2161L113.034 91.341L106.159 93.6683L107.056 101.675C104.926 103.009 103.023 104.674 101.419 106.607L93.6043 104.707L90.4016 111.219L96.7002 116.237C96.1296 118.684 95.9637 121.209 96.2092 123.71ZM115.724 110.472C117.899 109.733 120.244 109.655 122.463 110.249C124.681 110.843 126.674 112.082 128.189 113.808C129.704 115.534 130.673 117.671 130.973 119.948C131.274 122.225 130.892 124.54 129.877 126.6C128.862 128.661 127.259 130.374 125.27 131.523C123.281 132.672 120.996 133.205 118.705 133.056C116.413 132.906 114.216 132.081 112.394 130.683C110.571 129.286 109.204 127.379 108.465 125.204C107.974 123.76 107.772 122.234 107.871 120.712C107.97 119.19 108.368 117.702 109.042 116.334C109.717 114.966 110.654 113.744 111.8 112.738C112.947 111.732 114.28 110.962 115.724 110.472Z" fill="#BBBBCD"/>
<path d="M21.9705 65.1067C22.9242 69.1585 24.5247 73.03 26.7105 76.5724L19.5365 87.8032L28.0343 96.2946L39.2865 89.1206C42.8196 91.3292 46.6938 92.9381 50.7521 93.8819L53.6346 106.906H65.6554L66.4454 103.341H58.0543L55.1719 90.3162C51.3655 89.4058 47.6946 88.001 44.2528 86.1378L33.0006 93.3118L22.6623 82.9031L29.8364 71.6723C28.4353 68.3842 27.2834 64.9954 26.3903 61.5346L13.3659 58.6522V49.2149L8.94621 50.1971V62.2179L21.9705 65.1067ZM26.7105 35.8554C25.0294 38.5855 23.6886 41.511 22.7178 44.5667L26.3903 43.7554C27.34 39.7023 28.9407 35.8302 31.1303 32.2897L23.9562 21.0375L28.5467 16.4406L28.0343 16.099L19.5365 24.5968L26.7105 35.8554ZM80.0035 89.127L91.2343 96.2946L95.1416 92.3873L84.4232 85.5549C80.8807 87.7602 77.0001 89.3687 72.9362 90.3162L72.4024 92.7503C75.0617 91.8258 77.6108 90.6107 80.0035 89.127Z" fill="#9297AB"/>
<path d="M91.6613 134.77L99.6681 133.873C100.997 136.006 102.671 137.903 104.622 139.488L102.7 147.324L109.212 150.527L112.5 146.406L107.12 143.759L109.041 135.923C107.091 134.337 105.417 132.44 104.088 130.307L96.0811 131.204L94.01 125.055L89.334 127.894L91.6613 134.77ZM96.7003 116.237C96.1937 118.411 96.0067 120.648 96.1451 122.877L100.629 120.144C100.383 117.643 100.549 115.118 101.12 112.671L94.8213 107.653L95.9957 105.283L93.6043 104.707L90.4016 111.219L96.7003 116.237ZM121.703 144.719L125.888 151.594L132.763 149.246L132.549 147.26L130.307 148.029L126.122 141.154C123.621 141.388 121.099 141.222 118.649 140.663L115.596 144.484C117.613 144.83 119.666 144.909 121.703 144.719Z" fill="#9297AB"/>
<path d="M60.3005 44.0308V45.9225C62.2303 46.0239 64.0929 46.6645 65.6768 47.7716L64.8334 50.1202C63.3266 49.1412 61.57 48.6164 59.7731 48.6085C57.2771 48.6085 55.5904 50.0497 55.5904 52.0525C55.5904 53.9848 56.9611 55.1805 59.5617 56.2352C63.1466 57.6402 65.3586 59.2565 65.3586 62.314C65.3462 63.7817 64.8015 65.195 63.8257 66.2914C62.8498 67.3878 61.5092 68.0928 60.0528 68.2753V70.167H57.875V68.4204C56.242 68.3252 54.6643 67.7944 53.3058 66.8832L54.1833 64.5644C55.5218 65.3615 57.0538 65.7752 58.6116 65.7601C61.3189 65.7601 62.3374 64.1438 62.3374 62.7389C62.3374 60.9112 61.0371 59.9973 57.9796 58.7333C54.3499 57.2558 52.5329 55.4303 52.5329 52.3023C52.5504 50.764 53.121 49.2835 54.1403 48.1313C55.1596 46.979 56.5596 46.2322 58.0842 46.0271V44.0265L60.3005 44.0308Z" fill="#323C6B"/>
<path d="M99.5849 36.1309C99.7846 36.1309 99.9803 36.1869 100.15 36.2926C100.319 36.3983 100.456 36.5494 100.544 36.7287C101.056 37.7792 101.53 38.8468 101.966 39.9315C102.021 40.0622 102.05 40.2027 102.051 40.3448C102.051 40.4868 102.023 40.6276 101.969 40.7588C101.914 40.89 101.834 41.0089 101.733 41.1088C101.632 41.2086 101.512 41.2872 101.38 41.3401C101.248 41.393 101.107 41.419 100.965 41.4166C100.823 41.4142 100.683 41.3835 100.553 41.3263C100.423 41.2691 100.306 41.1865 100.208 41.0834C100.11 40.9803 100.034 40.8587 99.9841 40.7257C99.5571 39.6881 99.1173 38.6653 98.624 37.6618C98.5443 37.499 98.5073 37.3187 98.5165 37.1376C98.5258 36.9566 98.5809 36.781 98.6769 36.6272C98.7728 36.4734 98.9062 36.3465 99.0647 36.2586C99.2232 36.1707 99.4015 36.1245 99.5827 36.1245L99.5849 36.1309Z" fill="#323C6B"/>
<path d="M105.363 42.4892C105.439 42.4897 105.516 42.4982 105.591 42.5148L116.438 44.9105C116.675 44.9625 116.888 45.0942 117.041 45.2837C117.193 45.4732 117.276 45.7091 117.277 45.9524V58.3597C117.277 58.6428 117.164 58.9144 116.964 59.1146C116.764 59.3148 116.492 59.4272 116.209 59.4272C115.926 59.4272 115.654 59.3148 115.454 59.1146C115.254 58.9144 115.141 58.6428 115.141 58.3597V46.8043L105.132 44.5923C104.876 44.5351 104.65 44.3856 104.497 44.1721C104.344 43.9587 104.275 43.6964 104.303 43.4354C104.331 43.1744 104.455 42.9329 104.65 42.7572C104.845 42.5815 105.098 42.4838 105.36 42.4828L105.363 42.4892Z" fill="#323C6B"/>
<path d="M151.479 124.816C151.721 124.816 151.956 124.898 152.145 125.049L157.201 129.09C157.391 129.242 157.523 129.454 157.576 129.692C157.629 129.929 157.599 130.177 157.492 130.395L153.151 139.211C153.089 139.337 153.003 139.45 152.898 139.543C152.792 139.636 152.67 139.707 152.537 139.752C152.404 139.798 152.263 139.817 152.123 139.808C151.983 139.799 151.846 139.763 151.72 139.701C151.593 139.639 151.481 139.553 151.388 139.448C151.295 139.342 151.224 139.22 151.178 139.087C151.133 138.954 151.114 138.813 151.122 138.673C151.131 138.533 151.168 138.395 151.229 138.269L155.197 130.224L150.811 126.718C150.638 126.58 150.512 126.392 150.451 126.179C150.389 125.966 150.396 125.74 150.469 125.531C150.542 125.322 150.678 125.14 150.859 125.012C151.04 124.884 151.256 124.816 151.477 124.816H151.479Z" fill="#323C6B"/>
<path d="M150.382 141.363C150.546 141.363 150.707 141.401 150.854 141.474C150.98 141.536 151.092 141.622 151.184 141.728C151.277 141.833 151.348 141.956 151.393 142.089C151.438 142.222 151.456 142.362 151.447 142.502C151.437 142.642 151.401 142.779 151.338 142.905L150.572 144.461C150.51 144.587 150.424 144.7 150.318 144.793C150.213 144.886 150.09 144.957 149.957 145.002C149.824 145.048 149.683 145.067 149.543 145.058C149.403 145.049 149.265 145.012 149.139 144.95C149.013 144.888 148.9 144.802 148.807 144.696C148.715 144.591 148.643 144.468 148.598 144.335C148.553 144.202 148.534 144.061 148.543 143.921C148.552 143.781 148.588 143.644 148.65 143.518L149.417 141.961C149.505 141.781 149.643 141.629 149.813 141.523C149.984 141.417 150.181 141.362 150.382 141.363Z" fill="#323C6B"/>
<path d="M53.1008 5.33785H65.1216C65.3649 5.33806 65.6008 5.42136 65.7903 5.57396C65.9798 5.72656 66.1115 5.9393 66.1636 6.17696L68.8795 18.5501C72.5961 19.4855 76.1576 20.9548 79.4526 22.9121L90.1283 16.0968C90.3334 15.9658 90.5771 15.9087 90.819 15.9351C91.0609 15.9615 91.2865 16.0698 91.4585 16.242L99.9542 24.7398C100.126 24.9118 100.235 25.1374 100.261 25.3793C100.287 25.6213 100.23 25.8649 100.099 26.07L93.2819 36.7606C95.2455 40.0482 96.722 43.6032 97.6654 47.3146L110.049 50.054C110.286 50.1065 110.499 50.2383 110.651 50.4278C110.803 50.6172 110.886 50.8529 110.886 51.0959V63.1146C110.886 63.3576 110.803 63.5933 110.651 63.7827C110.499 63.9722 110.286 64.1041 110.049 64.1566L97.6654 66.8959C96.7209 70.6056 95.246 74.1595 93.2862 77.4478L100.099 88.1234C100.231 88.3283 100.288 88.5718 100.262 88.8137C100.236 89.0556 100.128 89.2814 99.9564 89.4536L91.4606 97.9515C91.2887 98.1237 91.063 98.2319 90.8211 98.2583C90.5792 98.2847 90.3355 98.2277 90.1305 98.0967L79.4548 91.2813C76.1638 93.2493 72.6013 94.7226 68.8816 95.6541L66.1657 108.038C66.1136 108.276 65.9819 108.488 65.7925 108.641C65.603 108.793 65.367 108.877 65.1237 108.877H53.1029C52.8599 108.877 52.6242 108.794 52.4348 108.642C52.2453 108.49 52.1135 108.277 52.061 108.04L49.3216 95.6541C45.6064 94.7224 42.0497 93.2452 38.7676 91.2706L28.077 98.0838C27.8722 98.2143 27.6289 98.2711 27.3875 98.2447C27.146 98.2183 26.9208 98.1103 26.749 97.9387L18.2533 89.4408C18.0814 89.2686 17.9735 89.0428 17.9475 88.8009C17.9215 88.559 17.9789 88.3155 18.1102 88.1106L24.9234 77.435C22.9699 74.1456 21.5007 70.5917 20.5613 66.8831L8.17756 64.1437C7.9403 64.0913 7.72803 63.9594 7.57585 63.7699C7.42367 63.5805 7.34069 63.3448 7.34059 63.1018V51.081C7.34069 50.838 7.42367 50.6023 7.57585 50.4128C7.72803 50.2234 7.9403 50.0915 8.17756 50.039L20.5613 47.2997C21.4982 43.5902 22.9675 40.036 24.9234 36.7478L18.1081 26.0551C17.9776 25.8502 17.9209 25.607 17.9473 25.3655C17.9736 25.1241 18.0816 24.8988 18.2533 24.727L26.749 16.2292C26.9208 16.0575 27.146 15.9496 27.3875 15.9232C27.6289 15.8968 27.8722 15.9535 28.077 16.084L38.7698 22.8993C42.0563 20.9426 45.6111 19.4766 49.3216 18.5479L52.061 6.16415C52.1155 5.92922 52.2479 5.71967 52.4368 5.56963C52.6256 5.41958 52.8596 5.33788 53.1008 5.33785ZM64.2633 7.47299H53.9591L51.2603 19.6603C51.2168 19.857 51.1185 20.0374 50.9768 20.1806C50.8352 20.3238 50.6558 20.424 50.4596 20.4696C46.5191 21.3884 42.7551 22.9447 39.3164 25.0772C39.1462 25.1841 38.9494 25.2408 38.7484 25.2408C38.5475 25.2408 38.3506 25.1841 38.1805 25.0772L27.6479 18.3622L20.3649 25.6494L27.0778 36.1799C27.1842 36.3498 27.2407 36.5462 27.2407 36.7468C27.2407 36.9473 27.1842 37.1437 27.0778 37.3136C24.9493 40.7567 23.3933 44.5221 22.4701 48.4633C22.4245 48.6595 22.3244 48.8388 22.1812 48.9805C22.038 49.1222 21.8576 49.2205 21.6609 49.264L9.47358 51.9607V62.2584L21.6609 64.9551C21.8569 64.9988 22.0367 65.0969 22.1794 65.2382C22.3222 65.3794 22.4222 65.5581 22.468 65.7536C23.3953 69.6938 24.9519 73.4587 27.0778 76.9033C27.1842 77.0732 27.2407 77.2697 27.2407 77.4702C27.2407 77.6707 27.1842 77.8672 27.0778 78.0371L20.3671 88.5441L27.65 95.8291L38.1826 89.1163C38.3532 89.0085 38.5509 88.9513 38.7527 88.9513C38.9545 88.9513 39.1522 89.0085 39.3228 89.1163C42.7546 91.2596 46.5179 92.8194 50.4596 93.7324C50.6558 93.778 50.8352 93.8782 50.9768 94.0214C51.1185 94.1646 51.2168 94.345 51.2603 94.5417L53.957 106.735H64.2676L66.945 94.5481C66.9885 94.3514 67.0868 94.171 67.2285 94.0278C67.3702 93.8846 67.5495 93.7844 67.7457 93.7388C71.6954 92.818 75.4671 91.255 78.9103 89.112C79.0807 89.0047 79.278 88.9477 79.4793 88.9477C79.6807 88.9477 79.878 89.0047 80.0483 89.112L90.5575 95.8249L97.8404 88.5398L91.1276 78.0328C91.0202 77.8624 90.9633 77.6651 90.9633 77.4638C90.9633 77.2624 91.0202 77.0651 91.1276 76.8948C93.261 73.4508 94.8248 69.6851 95.7587 65.743C95.8052 65.5482 95.9055 65.3704 96.0482 65.23C96.1909 65.0896 96.3703 64.9921 96.5658 64.9487L108.742 62.2584V51.9521L96.5551 49.2554C96.3593 49.2119 96.1798 49.1141 96.0371 48.9733C95.8943 48.8324 95.7941 48.6542 95.748 48.459C94.8161 44.5169 93.2522 40.7516 91.1169 37.3094C91.0096 37.139 90.9526 36.9417 90.9526 36.7404C90.9526 36.539 91.0096 36.3417 91.1169 36.1713L97.8362 25.643L90.5532 18.3622L80.0441 25.075C79.8742 25.1815 79.6777 25.238 79.4772 25.238C79.2767 25.238 79.0802 25.1815 78.9103 25.075C75.4608 22.9452 71.689 21.3884 67.7414 20.4653C67.5452 20.4197 67.3659 20.3195 67.2242 20.1763C67.0825 20.0331 66.9843 19.8528 66.9408 19.6561L64.2633 7.47299ZM59.1005 33.2441C63.8205 33.242 68.4351 34.6398 72.3605 37.2608C76.2859 39.8818 79.3458 43.6081 81.1531 47.9684C82.9603 52.3287 83.4337 57.1271 82.5134 61.7565C81.5931 66.3859 79.3204 70.6383 75.9829 73.9759C72.6453 77.3134 68.3929 79.5861 63.7635 80.5064C59.1341 81.4267 54.3357 80.9533 49.9754 79.146C45.6151 77.3388 41.8888 74.2789 39.2678 70.3535C36.6468 66.4281 35.249 61.8135 35.2511 57.0935C35.2612 50.7714 37.7772 44.7111 42.2476 40.2406C46.7181 35.7702 52.7784 33.2542 59.1005 33.2441ZM59.1005 78.8292C63.3973 78.8313 67.5983 77.5592 71.1721 75.1738C74.7459 72.7884 77.5321 69.3968 79.1784 65.4279C80.8247 61.459 81.257 57.091 80.4208 52.8763C79.5847 48.6617 77.5175 44.7896 74.4807 41.7499C71.4439 38.7101 67.5738 36.6391 63.36 35.7987C59.1462 34.9584 54.7778 35.3865 50.8073 37.0288C46.8367 38.6712 43.4424 41.4541 41.0535 45.0256C38.6645 48.597 37.3883 52.7967 37.3862 57.0935C37.393 62.8524 39.6822 68.3738 43.7524 72.4479C47.8225 76.5221 53.3417 78.8168 59.1005 78.8292Z" fill="#323C6B"/>
<path d="M113.034 90.2736C113.218 90.2735 113.398 90.3208 113.558 90.411C113.719 90.5011 113.853 90.631 113.948 90.7882L117.765 97.0954C119.943 96.9377 122.131 97.0749 124.271 97.5032L128.875 91.7383C129.026 91.5483 129.238 91.4158 129.475 91.3626C129.713 91.3094 129.961 91.3387 130.179 91.4458L136.691 94.6485C136.91 94.7559 137.085 94.9347 137.188 95.1552C137.291 95.3758 137.315 95.6249 137.257 95.8613L135.496 103.033C137.145 104.46 138.591 106.105 139.796 107.923L147.141 107.101C147.383 107.074 147.627 107.13 147.832 107.261C148.038 107.392 148.192 107.589 148.27 107.82L150.597 114.695C150.675 114.926 150.672 115.175 150.589 115.404C150.505 115.632 150.346 115.825 150.138 115.951L143.831 119.781C143.984 121.951 143.84 124.132 143.404 126.263L149.186 130.884C149.376 131.036 149.508 131.248 149.561 131.485C149.614 131.722 149.584 131.97 149.477 132.188L146.274 138.701C146.167 138.919 145.988 139.094 145.768 139.196C145.548 139.299 145.299 139.324 145.063 139.266L137.891 137.503C136.457 139.143 134.812 140.587 133 141.797L133.824 149.129C133.851 149.37 133.795 149.614 133.665 149.819C133.535 150.025 133.339 150.179 133.109 150.258L126.233 152.607C126.003 152.686 125.753 152.683 125.525 152.601C125.296 152.518 125.102 152.36 124.976 152.152L121.133 145.838C118.964 145.984 116.785 145.841 114.655 145.411L110.051 151.193C109.899 151.384 109.687 151.517 109.449 151.57C109.212 151.623 108.963 151.593 108.745 151.486L102.23 148.283C102.012 148.176 101.837 147.997 101.734 147.776C101.631 147.556 101.606 147.307 101.664 147.07L103.426 139.881C101.775 138.463 100.328 136.823 99.1258 135.009L91.7788 135.833C91.5367 135.86 91.2926 135.803 91.0872 135.672C90.8817 135.542 90.7272 135.344 90.6493 135.114L88.322 128.238C88.2445 128.009 88.2475 127.759 88.3306 127.532C88.4136 127.304 88.5717 127.111 88.7789 126.985L95.0882 123.142C94.9368 120.972 95.0804 118.791 95.5153 116.66L89.7333 112.054C89.5428 111.902 89.4099 111.69 89.3567 111.452C89.3035 111.215 89.3332 110.966 89.4408 110.747L92.6435 104.235C92.7507 104.018 92.9288 103.843 93.1484 103.74C93.3681 103.637 93.6162 103.612 93.852 103.669L101.028 105.414C102.461 103.781 104.105 102.345 105.915 101.144L105.091 93.7945C105.064 93.5524 105.121 93.3083 105.252 93.1029C105.383 92.8974 105.58 92.7429 105.811 92.665L112.688 90.3377C112.799 90.297 112.916 90.2754 113.034 90.2736ZM117.198 99.2839C117.014 99.284 116.833 99.2367 116.673 99.1466C116.513 99.0564 116.379 98.9265 116.284 98.7693L112.566 92.6287L107.316 94.4072L108.117 101.56C108.139 101.76 108.105 101.963 108.017 102.144C107.929 102.325 107.792 102.478 107.621 102.585C105.588 103.857 103.771 105.447 102.241 107.295C102.114 107.448 101.946 107.562 101.758 107.624C101.569 107.687 101.367 107.695 101.173 107.649L94.1893 105.941L91.7425 110.914L97.3707 115.398C97.5271 115.523 97.6452 115.689 97.7117 115.878C97.7781 116.066 97.7902 116.27 97.7465 116.465C97.2031 118.8 97.0438 121.207 97.2746 123.592C97.2948 123.793 97.258 123.994 97.1685 124.175C97.079 124.355 96.9403 124.506 96.7686 124.611L90.6237 128.349L92.4022 133.602L99.5549 132.801C99.7547 132.779 99.9567 132.814 100.138 132.902C100.319 132.989 100.471 133.126 100.578 133.297C101.843 135.33 103.439 137.138 105.298 138.647C105.456 138.775 105.573 138.944 105.638 139.136C105.703 139.327 105.711 139.533 105.664 139.73L103.955 146.731L108.913 149.191L113.397 143.564C113.522 143.408 113.688 143.29 113.877 143.223C114.066 143.157 114.269 143.145 114.465 143.189C116.803 143.725 119.212 143.884 121.6 143.658C121.799 143.64 121.999 143.678 122.178 143.768C122.356 143.858 122.506 143.996 122.61 144.167L126.355 150.314L131.605 148.52L130.805 141.387C130.782 141.188 130.816 140.987 130.903 140.806C130.989 140.626 131.125 140.473 131.294 140.366C133.328 139.086 135.145 137.489 136.676 135.637C136.804 135.481 136.974 135.365 137.165 135.301C137.356 135.238 137.561 135.23 137.757 135.278L144.737 136.986L147.183 132.016L141.559 127.513C141.403 127.387 141.286 127.221 141.22 127.032C141.154 126.844 141.142 126.64 141.186 126.445C141.731 124.111 141.889 121.703 141.656 119.318C141.635 119.117 141.672 118.915 141.762 118.734C141.852 118.553 141.991 118.402 142.164 118.297L148.3 114.571L146.524 109.319L139.371 110.12C139.17 110.142 138.967 110.107 138.785 110.019C138.603 109.93 138.45 109.792 138.344 109.62C137.077 107.581 135.482 105.765 133.623 104.246C133.468 104.118 133.352 103.949 133.288 103.759C133.225 103.568 133.217 103.363 133.264 103.168L134.973 96.1858L130 93.7411L125.516 99.348C125.391 99.504 125.225 99.6217 125.036 99.6878C124.847 99.7538 124.644 99.7656 124.448 99.7216C122.104 99.1858 119.689 99.0344 117.296 99.2732L117.198 99.2839ZM119.482 108.777C122.683 108.772 125.768 109.971 128.125 112.135C130.483 114.3 131.94 117.272 132.207 120.462C132.474 123.651 131.531 126.824 129.567 129.351C127.602 131.878 124.759 133.573 121.602 134.1C118.446 134.628 115.206 133.948 112.527 132.197C109.848 130.446 107.926 127.751 107.142 124.648C106.358 121.545 106.77 118.261 108.296 115.447C109.822 112.634 112.35 110.497 115.378 109.462C116.699 109.009 118.086 108.778 119.482 108.777ZM119.444 132.024C120.977 132.028 122.492 131.698 123.884 131.058C125.277 130.417 126.513 129.48 127.507 128.313C128.5 127.146 129.228 125.777 129.639 124.3C130.049 122.823 130.133 121.275 129.885 119.762C129.637 118.25 129.062 116.809 128.2 115.542C127.339 114.274 126.211 113.209 124.896 112.421C123.582 111.633 122.111 111.141 120.587 110.979C119.062 110.818 117.521 110.99 116.07 111.484C113.706 112.289 111.705 113.907 110.421 116.049C109.138 118.191 108.656 120.719 109.061 123.183C109.466 125.648 110.731 127.888 112.633 129.507C114.535 131.126 116.949 132.018 119.446 132.024H119.444Z" fill="#323C6B"/>
</svg>
