<svg width="168" height="168" viewBox="0 0 168 168" fill="none" xmlns="http://www.w3.org/2000/svg">
<path d="M19.858 112.814H17.254C16.3009 112.816 15.3568 112.63 14.4756 112.267C13.5944 111.904 12.7935 111.37 12.1187 110.697C11.4439 110.024 10.9085 109.225 10.5431 108.344C10.1777 107.464 9.98943 106.521 9.98914 105.567V39.775C9.99062 38.8227 10.1797 37.88 10.5457 37.0007C10.9117 36.1215 11.4473 35.323 12.1219 34.6509C12.7966 33.9788 13.5971 33.4462 14.4777 33.0835C15.3583 32.7209 16.3017 32.5353 17.254 32.5374H129.246C130.199 32.5353 131.142 32.7209 132.023 33.0835C132.903 33.4462 133.704 33.9788 134.378 34.6509C135.053 35.323 135.589 36.1215 135.955 37.0007C136.321 37.88 136.51 38.8227 136.511 39.775V42.3858" fill="#27CCBC"/>
<path d="M146.371 52.2322V49.6214C146.37 48.6691 146.18 47.7264 145.815 46.8472C145.449 45.968 144.913 45.1695 144.238 44.4973C143.564 43.8252 142.763 43.2926 141.883 42.9299C141.002 42.5673 140.059 42.3817 139.106 42.3838H27.1161C26.1637 42.3817 25.2203 42.5673 24.3397 42.9299C23.4592 43.2926 22.6587 43.8252 21.984 44.4973C21.3093 45.1695 20.7737 45.968 20.4078 46.8472C20.0418 47.7264 19.8527 48.6691 19.8512 49.6214V115.423C19.8527 116.375 20.0418 117.318 20.4078 118.197C20.7737 119.076 21.3093 119.875 21.984 120.547C22.6587 121.219 23.4592 121.752 24.3397 122.114C25.2203 122.477 26.1637 122.663 27.1161 122.661H29.7269" fill="#27CCBC"/>
<path d="M156.24 100.948V59.4811C156.239 58.5287 156.049 57.586 155.683 56.7068C155.318 55.8276 154.782 55.0291 154.107 54.357C153.433 53.6848 152.632 53.1522 151.751 52.7896C150.871 52.4269 149.927 52.2413 148.975 52.2434H36.9873C36.0349 52.2413 35.0915 52.4269 34.211 52.7896C33.3304 53.1522 32.5299 53.6848 31.8552 54.357C31.1806 55.0291 30.6449 55.8276 30.279 56.7068C29.913 57.586 29.7239 58.5287 29.7224 59.4811V125.271C29.7239 126.224 29.913 127.166 30.279 128.045C30.6449 128.925 31.1806 129.723 31.8552 130.395C32.5299 131.067 33.3304 131.6 34.211 131.963C35.0915 132.325 36.0349 132.511 36.9873 132.509H133.283" fill="#21B3A9"/>
<path d="M133.283 133.646H36.9872C34.7641 133.646 32.6316 132.765 31.0571 131.196C29.4825 129.626 28.5944 127.497 28.5872 125.274V59.4812C28.5944 57.2581 29.4825 55.1285 31.0571 53.5591C32.6316 51.9896 34.7641 51.1084 36.9872 51.1084H148.98C151.203 51.1084 153.335 51.9896 154.91 53.5591C156.484 55.1285 157.372 57.2581 157.38 59.4812V100.948C157.38 101.249 157.26 101.537 157.047 101.75C156.834 101.963 156.546 102.083 156.244 102.083C155.943 102.083 155.655 101.963 155.442 101.75C155.229 101.537 155.109 101.249 155.109 100.948V59.4812C155.102 57.8602 154.453 56.308 153.304 55.1644C152.156 54.0207 150.601 53.3787 148.98 53.3787H36.9872C35.3662 53.3787 33.8112 54.0207 32.6624 55.1644C31.5136 56.308 30.8646 57.8602 30.8574 59.4812V125.271C30.8646 126.892 31.5136 128.444 32.6624 129.588C33.8112 130.732 35.3662 131.374 36.9872 131.374H133.283C133.584 131.374 133.873 131.493 134.086 131.706C134.298 131.919 134.418 132.208 134.418 132.509C134.418 132.81 134.298 133.099 134.086 133.312C133.873 133.524 133.584 133.644 133.283 133.644V133.646Z" fill="#323C6B"/>
<path d="M136.443 39.1759C135.762 38.9536 135.05 38.8402 134.334 38.8399H22.3508C21.3986 38.8378 20.4554 39.0233 19.575 39.3858C18.6945 39.7483 17.8941 40.2807 17.2195 40.9526C16.5449 41.6245 16.0092 42.4227 15.6431 43.3017C15.277 44.1806 15.0877 45.1231 15.0859 46.0752V111.872C15.0779 112.073 15.0939 112.274 15.1336 112.472C13.6457 112.03 12.3406 111.119 11.4133 109.875C10.486 108.631 9.98639 107.12 9.98915 105.568V39.7752C9.98914 38.8226 10.1773 37.8793 10.5427 36.9995C10.9082 36.1198 11.4438 35.3208 12.1188 34.6486C12.7938 33.9763 13.5949 33.444 14.4761 33.0821C15.3573 32.7202 16.3014 32.536 17.254 32.5399H129.237C131.054 32.5326 132.807 33.2125 134.143 34.4433C135.479 35.674 136.301 37.3646 136.443 39.1759Z" fill="#21B3A9"/>
<path d="M146.321 49.0243C145.64 48.802 144.928 48.6887 144.212 48.6883H32.2219C31.2704 48.6865 30.3279 48.8724 29.4484 49.2353C28.5688 49.5983 27.7695 50.1311 27.0962 50.8034C26.4228 51.4757 25.8887 52.2742 25.5244 53.1532C25.16 54.0322 24.9727 54.9744 24.973 55.9259V121.721C24.9649 121.922 24.9809 122.123 25.0206 122.32C23.5319 121.88 22.2255 120.97 21.2969 119.726C20.3684 118.482 19.8676 116.971 19.8694 115.418V49.6236C19.8694 48.671 20.0575 47.7277 20.423 46.8479C20.7884 45.9682 21.324 45.1692 21.999 44.497C22.674 43.8247 23.4751 43.2924 24.3563 42.9305C25.2376 42.5687 26.1816 42.3844 27.1343 42.3883H139.111C140.928 42.3798 142.682 43.0592 144.019 44.2901C145.357 45.521 146.179 47.2122 146.321 49.0243Z" fill="#21B3A9"/>
<path d="M156.24 100.948V59.4811C156.239 58.5287 156.049 57.586 155.683 56.7068C155.318 55.8276 154.782 55.0291 154.107 54.357C153.433 53.6848 152.632 53.1522 151.751 52.7896C150.871 52.4269 149.927 52.2413 148.975 52.2434H36.9873C36.0349 52.2413 35.0915 52.4269 34.211 52.7896C33.3304 53.1522 32.5299 53.6848 31.8552 54.357C31.1806 55.0291 30.6449 55.8276 30.279 56.7068C29.913 57.586 29.7239 58.5287 29.7224 59.4811V125.271C29.7239 126.224 29.913 127.166 30.279 128.045C30.6449 128.925 31.1806 129.723 31.8552 130.395C32.5299 131.067 33.3304 131.6 34.211 131.963C35.0915 132.325 36.0349 132.511 36.9873 132.509H133.283" fill="#27CCBC"/>
<path d="M155.47 59.9692V101.445L132.516 133.002H130.886L149.647 107.195V65.7198C149.647 64.7672 149.459 63.8239 149.094 62.9442C148.728 62.0644 148.193 61.2655 147.518 60.5932C146.843 59.921 146.041 59.3886 145.16 59.0268C144.279 58.6649 143.335 58.4806 142.382 58.4845H30.3967C29.9544 58.4877 29.5132 58.5279 29.0776 58.6048C29.4012 56.9496 30.2907 55.4585 31.5934 54.3873C32.8962 53.3161 34.531 52.7315 36.2176 52.7339H148.21C150.132 52.7315 151.976 53.4922 153.338 54.8489C154.699 56.2056 155.466 58.0473 155.47 59.9692Z" fill="#21B3A9"/>
<path d="M143.978 101.168V76.1199C142.449 76.1208 140.934 75.8201 139.52 75.2352C138.107 74.6502 136.823 73.7923 135.741 72.7107C134.659 71.629 133.801 70.3448 133.217 68.9314C132.632 67.5179 132.331 66.0031 132.332 64.4734H53.6351C53.6354 66.0048 53.3336 67.5213 52.747 68.9359C52.1604 70.3505 51.3005 71.6356 50.2166 72.7174C49.1327 73.7992 47.846 74.6566 46.4302 75.2405C45.0144 75.8243 43.4974 76.1232 41.9659 76.1199V108.623C43.4969 108.622 45.0131 108.922 46.4281 109.506C47.843 110.091 49.129 110.948 50.2126 112.03C51.2962 113.111 52.1561 114.396 52.7434 115.809C53.3306 117.223 53.6336 118.739 53.6351 120.27H128.143" fill="#EBF0F3"/>
<path d="M128.143 121.407H53.6351C53.3341 121.407 53.0454 121.288 52.8325 121.075C52.6196 120.862 52.5 120.573 52.5 120.272C52.494 117.482 51.3815 114.809 49.4066 112.838C47.4318 110.867 44.7558 109.761 41.9659 109.761C41.6649 109.761 41.3762 109.641 41.1633 109.428C40.9504 109.215 40.8308 108.927 40.8308 108.626V76.1176C40.8308 75.8165 40.9504 75.5278 41.1633 75.3149C41.3762 75.102 41.6649 74.9824 41.9659 74.9824C44.7558 74.9824 47.4318 73.8757 49.4066 71.9051C51.3815 69.9345 52.494 67.2609 52.5 64.4711C52.5 64.17 52.6196 63.8813 52.8325 63.6684C53.0454 63.4555 53.3341 63.3359 53.6351 63.3359H132.332C132.633 63.3359 132.922 63.4555 133.134 63.6684C133.347 63.8813 133.467 64.17 133.467 64.4711C133.47 67.2579 134.578 69.9298 136.549 71.9004C138.52 73.871 141.191 74.9794 143.978 74.9824C144.279 74.9824 144.568 75.102 144.781 75.3149C144.994 75.5278 145.113 75.8165 145.113 76.1176V101.168C145.113 101.469 144.994 101.758 144.781 101.97C144.568 102.183 144.279 102.303 143.978 102.303C143.677 102.303 143.388 102.183 143.176 101.97C142.963 101.758 142.843 101.469 142.843 101.168V77.2027C139.859 76.9328 137.065 75.6249 134.946 73.5067C132.828 71.3885 131.519 68.5943 131.249 65.6107H54.7135C54.4406 68.5977 53.1285 71.3943 51.0057 73.5134C48.8829 75.6325 46.084 76.9397 43.0965 77.2073V107.54C46.084 107.808 48.8829 109.115 51.0057 111.234C53.1285 113.353 54.4406 116.15 54.7135 119.137H128.143C128.444 119.137 128.733 119.257 128.946 119.469C129.159 119.682 129.278 119.971 129.278 120.272C129.278 120.573 129.159 120.862 128.946 121.075C128.733 121.288 128.444 121.407 128.143 121.407Z" fill="#323C6B"/>
<path d="M92.9834 111.109C103.33 111.109 111.718 102.722 111.718 92.3749C111.718 82.0282 103.33 73.6406 92.9834 73.6406C82.6368 73.6406 74.2491 82.0282 74.2491 92.3749C74.2491 102.722 82.6368 111.109 92.9834 111.109Z" fill="#27CCBC"/>
<path d="M110.823 93.1674C110.825 95.929 110.215 98.6568 109.037 101.155C107.86 103.653 106.144 105.859 104.012 107.615C106.266 104.464 107.473 100.684 107.463 96.8089C107.463 93.2548 106.452 89.7741 104.548 86.7729C102.644 83.7718 99.9256 81.374 96.7104 79.8593C93.4952 78.3446 89.9155 77.7756 86.3891 78.2185C82.8627 78.6615 79.5349 80.0981 76.7942 82.3609C79.0866 79.1098 82.3549 76.6733 86.1252 75.4048C89.8956 74.1362 93.972 74.1015 97.7634 75.3057C101.555 76.5098 104.864 78.8903 107.212 82.1019C109.559 85.3136 110.822 89.1894 110.819 93.1674H110.823Z" fill="#21B3A9"/>
<path d="M91.9255 103.863V102.201C90.2243 102.131 88.5765 101.586 87.1693 100.628L87.914 98.5457C89.2464 99.4114 90.7997 99.8756 92.3887 99.8828C94.5954 99.8828 96.0869 98.6092 96.0869 96.8361C96.0869 95.1266 94.8746 94.071 92.5748 93.1379C89.3964 91.896 87.4463 90.4658 87.4463 87.7619C87.4566 86.4688 87.9395 85.2242 88.8038 84.2624C89.6681 83.3007 90.8543 82.6881 92.1389 82.5403V80.8784H94.0641V82.4108C95.5021 82.4778 96.8966 82.9251 98.1052 83.7072L97.3288 85.7504C96.1448 85.0461 94.7901 84.6809 93.4126 84.6947C91.0174 84.6947 90.1184 86.125 90.1184 87.3669C90.1184 88.9833 91.2694 89.7915 93.9779 90.9107C97.1789 92.2161 98.7954 93.8326 98.7954 96.5978C98.7783 97.9517 98.2715 99.2536 97.3688 100.263C96.4661 101.272 95.2284 101.92 93.8848 102.087L93.8144 103.844L91.9255 103.863Z" fill="#323C6B"/>
<path d="M58.3119 96.9088C60.8158 96.9088 62.8457 94.8789 62.8457 92.375C62.8457 89.8711 60.8158 87.8413 58.3119 87.8413C55.808 87.8413 53.7782 89.8711 53.7782 92.375C53.7782 94.8789 55.808 96.9088 58.3119 96.9088Z" fill="#27CCBC"/>
<path d="M58.3141 98.044C57.1916 98.044 56.0942 97.7111 55.1609 97.0875C54.2275 96.4638 53.5 95.5774 53.0705 94.5403C52.6409 93.5032 52.5285 92.362 52.7475 91.261C52.9665 90.1601 53.507 89.1488 54.3008 88.355C55.0946 87.5612 56.1059 87.0207 57.2068 86.8017C58.3078 86.5827 59.449 86.6951 60.4861 87.1247C61.5232 87.5542 62.4096 88.2817 63.0333 89.2151C63.6569 90.1484 63.9898 91.2458 63.9898 92.3683C63.9898 93.8736 63.3918 95.3172 62.3274 96.3816C61.263 97.446 59.8194 98.044 58.3141 98.044ZM58.3141 88.9765C57.6406 88.9765 56.9822 89.1762 56.4222 89.5504C55.8621 89.9246 55.4257 90.4565 55.1679 91.0787C54.9102 91.701 54.8427 92.3857 54.9741 93.0463C55.1055 93.7069 55.4299 94.3137 55.9061 94.7899C56.3824 95.2662 56.9892 95.5905 57.6497 95.7219C58.3103 95.8533 58.995 95.7859 59.6173 95.5281C60.2396 95.2704 60.7714 94.8339 61.1456 94.2739C61.5198 93.7139 61.7195 93.0555 61.7195 92.3819C61.7195 91.4788 61.3607 90.6126 60.7221 89.9739C60.0835 89.3353 59.2173 88.9765 58.3141 88.9765Z" fill="#323C6B"/>
<path d="M127.653 96.9088C130.157 96.9088 132.186 94.8789 132.186 92.375C132.186 89.8711 130.157 87.8413 127.653 87.8413C125.149 87.8413 123.119 89.8711 123.119 92.375C123.119 94.8789 125.149 96.9088 127.653 96.9088Z" fill="#27CCBC"/>
<path d="M127.653 98.044C126.53 98.044 125.433 97.7111 124.5 97.0875C123.566 96.4638 122.839 95.5774 122.409 94.5403C121.98 93.5032 121.867 92.362 122.086 91.261C122.305 90.1601 122.846 89.1488 123.64 88.355C124.433 87.5612 125.445 87.0207 126.546 86.8017C127.647 86.5827 128.788 86.6951 129.825 87.1247C130.862 87.5542 131.748 88.2817 132.372 89.2151C132.996 90.1484 133.329 91.2458 133.329 92.3683C133.329 93.8736 132.731 95.3172 131.666 96.3816C130.602 97.446 129.158 98.044 127.653 98.044ZM127.653 88.9765C126.979 88.9765 126.321 89.1762 125.761 89.5504C125.201 89.9246 124.764 90.4565 124.507 91.0787C124.249 91.701 124.181 92.3857 124.313 93.0463C124.444 93.7069 124.769 94.3137 125.245 94.7899C125.721 95.2662 126.328 95.5905 126.988 95.7219C127.649 95.8533 128.334 95.7859 128.956 95.5281C129.578 95.2704 130.11 94.8339 130.484 94.2739C130.859 93.7139 131.058 93.0555 131.058 92.3819C131.058 91.4788 130.699 90.6126 130.061 89.9739C129.422 89.3353 128.556 88.9765 127.653 88.9765Z" fill="#323C6B"/>
<path d="M2.27031 36.9736C2.14443 36.9736 2.01941 36.9529 1.90025 36.9123C1.61588 36.8143 1.38203 36.6074 1.25008 36.3371C1.11812 36.0668 1.09884 35.7552 1.19647 35.4707C2.24608 32.4049 4.22588 29.7428 6.86002 27.8554C9.49415 25.968 12.6514 24.9493 15.8919 24.9412H19.3723C19.6733 24.9412 19.962 25.0608 20.1749 25.2736C20.3878 25.4865 20.5074 25.7752 20.5074 26.0763C20.5074 26.3774 20.3878 26.6661 20.1749 26.879C19.962 27.0918 19.6733 27.2114 19.3723 27.2114H15.8919C13.1225 27.2173 10.4239 28.0873 8.17258 29.7002C5.92122 31.313 4.22931 33.5882 3.33279 36.2085C3.25638 36.4301 3.11322 36.6227 2.92297 36.7597C2.73273 36.8967 2.50473 36.9714 2.27031 36.9736Z" fill="#323C6B"/>
<path d="M27.1593 27.2114H24.8141C24.513 27.2114 24.2243 27.0918 24.0114 26.879C23.7985 26.6661 23.679 26.3774 23.679 26.0763C23.679 25.7752 23.7985 25.4865 24.0114 25.2736C24.2243 25.0608 24.513 24.9412 24.8141 24.9412H27.1593C27.4603 24.9412 27.7491 25.0608 27.9619 25.2736C28.1748 25.4865 28.2944 25.7752 28.2944 26.0763C28.2944 26.3774 28.1748 26.6661 27.9619 26.879C27.7491 27.0918 27.4603 27.2114 27.1593 27.2114Z" fill="#323C6B"/>
<path d="M19.8581 113.949H17.2541C15.0295 113.949 12.8956 113.067 11.3208 111.495C9.74606 109.924 8.85894 107.792 8.85413 105.568V39.7751C8.86134 37.552 9.74952 35.4224 11.324 33.853C12.8986 32.2836 15.031 31.4023 17.2541 31.4023H129.247C131.47 31.4023 133.602 32.2836 135.177 33.853C136.751 35.4224 137.639 37.552 137.647 39.7751V42.3836C137.647 42.6847 137.527 42.9734 137.314 43.1863C137.101 43.3992 136.812 43.5188 136.511 43.5188C136.21 43.5188 135.922 43.3992 135.709 43.1863C135.496 42.9734 135.376 42.6847 135.376 42.3836V39.7751C135.369 38.1541 134.72 36.602 133.571 35.4583C132.423 34.3147 130.868 33.6726 129.247 33.6726H17.2541C15.6331 33.6726 14.0781 34.3147 12.9294 35.4583C11.7806 36.602 11.1316 38.1541 11.1244 39.7751V105.568C11.1316 107.189 11.7806 108.741 12.9294 109.884C14.0781 111.028 15.6331 111.67 17.2541 111.67H19.8649C20.166 111.67 20.4547 111.79 20.6676 112.002C20.8805 112.215 21.0001 112.504 21.0001 112.805C21.0001 113.106 20.8805 113.395 20.6676 113.608C20.4547 113.821 20.166 113.94 19.8649 113.94L19.8581 113.949Z" fill="#323C6B"/>
<path d="M29.727 123.796H27.1162C24.8931 123.796 22.7606 122.914 21.1861 121.345C19.6116 119.775 18.7234 117.646 18.7162 115.423V49.6213C18.7234 47.3982 19.6116 45.2686 21.1861 43.6992C22.7606 42.1298 24.8931 41.2485 27.1162 41.2485H139.109C141.332 41.2485 143.464 42.1298 145.039 43.6992C146.613 45.2686 147.501 47.3982 147.509 49.6213V52.2321C147.509 52.5332 147.389 52.8219 147.176 53.0348C146.963 53.2476 146.675 53.3672 146.373 53.3672C146.072 53.3672 145.784 53.2476 145.571 53.0348C145.358 52.8219 145.238 52.5332 145.238 52.2321V49.6213C145.231 48.0003 144.582 46.4482 143.433 45.3045C142.285 44.1609 140.73 43.5188 139.109 43.5188H27.1162C25.4952 43.5188 23.9402 44.1609 22.7914 45.3045C21.6426 46.4482 20.9937 48.0003 20.9865 49.6213V115.423C20.9937 117.044 21.6426 118.596 22.7914 119.74C23.9402 120.883 25.4952 121.525 27.1162 121.525H29.7247C30.0258 121.525 30.3145 121.645 30.5274 121.858C30.7403 122.071 30.8599 122.359 30.8599 122.66C30.8599 122.961 30.7403 123.25 30.5274 123.463C30.3145 123.676 30.0258 123.796 29.7247 123.796H29.727Z" fill="#323C6B"/>
<path d="M133.283 133.646H36.9873C34.7642 133.646 32.6317 132.765 31.0572 131.196C29.4827 129.626 28.5945 127.497 28.5873 125.274V59.4812C28.5945 57.2581 29.4827 55.1285 31.0572 53.5591C32.6317 51.9896 34.7642 51.1084 36.9873 51.1084H148.98C151.203 51.1084 153.335 51.9896 154.91 53.5591C156.484 55.1285 157.373 57.2581 157.38 59.4812V100.948C157.38 101.249 157.26 101.537 157.047 101.75C156.834 101.963 156.546 102.083 156.245 102.083C155.944 102.083 155.655 101.963 155.442 101.75C155.229 101.537 155.109 101.249 155.109 100.948V59.4812C155.102 57.8602 154.453 56.308 153.304 55.1644C152.156 54.0207 150.601 53.3787 148.98 53.3787H36.9873C35.3663 53.3787 33.8113 54.0207 32.6625 55.1644C31.5137 56.308 30.8648 57.8602 30.8576 59.4812V125.271C30.8648 126.892 31.5137 128.444 32.6625 129.588C33.8113 130.732 35.3663 131.374 36.9873 131.374H133.283C133.584 131.374 133.873 131.493 134.086 131.706C134.299 131.919 134.418 132.208 134.418 132.509C134.418 132.81 134.299 133.099 134.086 133.312C133.873 133.524 133.584 133.644 133.283 133.644V133.646Z" fill="#323C6B"/>
<path d="M145.429 139.217C156.641 139.217 165.73 130.129 165.73 118.917C165.73 107.705 156.641 98.616 145.429 98.616C134.217 98.616 125.128 107.705 125.128 118.917C125.128 130.129 134.217 139.217 145.429 139.217Z" fill="#FCD462"/>
<path d="M165.73 119.316C165.735 123.039 164.713 126.69 162.776 129.869C160.84 133.048 158.065 135.632 154.755 137.335C158.263 133.953 160.437 129.422 160.88 124.57C161.324 119.718 160.007 114.868 157.17 110.906C154.333 106.944 150.166 104.135 145.43 102.992C140.693 101.848 135.703 102.447 131.371 104.678C134.242 101.922 137.859 100.071 141.773 99.3548C145.687 98.6383 149.726 99.0878 153.386 100.647C157.047 102.207 160.168 104.808 162.363 108.127C164.558 111.446 165.728 115.337 165.73 119.316Z" fill="#F7BE56"/>
<path d="M145.445 107.343C145.746 107.343 146.035 107.463 146.248 107.675C146.46 107.888 146.58 108.177 146.58 108.478V129.365C146.58 129.666 146.46 129.954 146.248 130.167C146.035 130.38 145.746 130.5 145.445 130.5C145.144 130.5 144.855 130.38 144.642 130.167C144.429 129.954 144.31 129.666 144.31 129.365V108.478C144.31 108.177 144.429 107.888 144.642 107.675C144.855 107.463 145.144 107.343 145.445 107.343Z" fill="#323C6B"/>
<path d="M145.445 107.343C145.594 107.343 145.742 107.372 145.88 107.429C146.018 107.486 146.143 107.569 146.249 107.675L152.378 113.804C152.585 114.018 152.699 114.305 152.697 114.603C152.694 114.9 152.575 115.185 152.364 115.396C152.154 115.606 151.869 115.725 151.572 115.728C151.274 115.731 150.987 115.616 150.773 115.409L145.438 110.074L140.101 115.409C139.887 115.616 139.6 115.731 139.302 115.728C139.005 115.725 138.72 115.606 138.509 115.396C138.299 115.185 138.18 114.9 138.177 114.603C138.174 114.305 138.289 114.018 138.496 113.804L144.625 107.675C144.733 107.567 144.861 107.483 145.001 107.426C145.142 107.369 145.293 107.341 145.445 107.343Z" fill="#323C6B"/>
<path d="M145.956 146.828C145.655 146.831 145.365 146.714 145.15 146.503C144.935 146.292 144.812 146.005 144.809 145.704C144.806 145.403 144.923 145.113 145.134 144.898C145.344 144.683 145.632 144.56 145.933 144.557C149.358 144.496 152.735 143.745 155.863 142.348C158.99 140.952 161.804 138.939 164.136 136.43C164.238 136.321 164.361 136.234 164.497 136.172C164.632 136.111 164.779 136.077 164.928 136.072C165.077 136.068 165.226 136.092 165.365 136.145C165.505 136.198 165.632 136.278 165.741 136.38C165.85 136.482 165.937 136.604 165.999 136.74C166.06 136.876 166.094 137.023 166.098 137.172C166.103 137.321 166.078 137.47 166.026 137.609C165.973 137.748 165.893 137.876 165.791 137.985C163.254 140.717 160.191 142.91 156.787 144.431C153.383 145.952 149.706 146.771 145.978 146.839L145.956 146.828Z" fill="#323C6B"/>
<path d="M140.677 146.408C140.609 146.408 140.54 146.402 140.473 146.389C139.758 146.26 139.052 146.092 138.355 145.91C138.21 145.872 138.075 145.805 137.956 145.714C137.837 145.624 137.737 145.51 137.662 145.381C137.587 145.251 137.538 145.108 137.518 144.96C137.499 144.812 137.508 144.661 137.547 144.516C137.585 144.372 137.652 144.236 137.742 144.117C137.833 143.998 137.947 143.899 138.076 143.824C138.206 143.749 138.349 143.7 138.497 143.68C138.645 143.66 138.796 143.67 138.941 143.708C139.578 143.876 140.226 144.031 140.884 144.149C141.163 144.199 141.412 144.352 141.584 144.577C141.756 144.802 141.837 145.084 141.812 145.366C141.787 145.648 141.658 145.911 141.449 146.102C141.24 146.294 140.967 146.4 140.684 146.401L140.677 146.408Z" fill="#323C6B"/>
<path d="M145.429 140.353C141.189 140.353 137.045 139.096 133.52 136.74C129.995 134.385 127.247 131.037 125.625 127.12C124.002 123.203 123.578 118.893 124.405 114.735C125.232 110.577 127.274 106.757 130.272 103.759C133.269 100.762 137.089 98.72 141.247 97.8929C145.405 97.0657 149.715 97.4902 153.632 99.1127C157.549 100.735 160.897 103.483 163.252 107.008C165.608 110.533 166.865 114.677 166.865 118.917C166.858 124.6 164.598 130.048 160.579 134.067C156.561 138.086 151.112 140.346 145.429 140.353ZM145.429 99.7512C141.638 99.7512 137.933 100.875 134.781 102.981C131.629 105.087 129.173 108.08 127.722 111.582C126.272 115.085 125.892 118.938 126.632 122.656C127.371 126.374 129.197 129.789 131.877 132.469C134.557 135.149 137.972 136.975 141.69 137.714C145.408 138.454 149.261 138.074 152.763 136.624C156.266 135.173 159.259 132.716 161.365 129.565C163.471 126.413 164.595 122.707 164.595 118.917C164.589 113.836 162.568 108.964 158.975 105.371C155.382 101.778 150.51 99.7572 145.429 99.7512Z" fill="#323C6B"/>
<path d="M92.9812 112.244C89.0515 112.244 85.2101 111.078 81.9429 108.895C78.6757 106.711 76.1294 103.608 74.6258 99.9771C73.1223 96.3464 72.7292 92.3514 73.4961 88.4973C74.263 84.6432 76.1556 81.103 78.9344 78.3244C81.7133 75.5459 85.2537 73.6537 89.1079 72.8872C92.9622 72.1208 96.9571 72.5144 100.588 74.0183C104.218 75.5222 107.321 78.069 109.504 81.3364C111.688 84.6039 112.853 88.4453 112.853 92.375C112.847 97.6433 110.751 102.694 107.026 106.419C103.3 110.144 98.2494 112.239 92.9812 112.244ZM92.9812 74.785C89.5005 74.7854 86.0981 75.818 83.2042 77.7521C80.3104 79.6862 78.055 82.4349 76.7233 85.6508C75.3916 88.8666 75.0434 92.4052 75.7227 95.8189C76.402 99.2327 78.0784 102.368 80.5398 104.829C83.0011 107.29 86.137 108.966 89.5508 109.645C92.9647 110.324 96.5032 109.975 99.7189 108.643C102.935 107.311 105.683 105.056 107.617 102.161C109.55 99.2673 110.583 95.8648 110.583 92.3841C110.58 87.7162 108.724 83.2403 105.424 79.9389C102.124 76.6376 97.649 74.7807 92.9812 74.7759V74.785Z" fill="#323C6B"/>
<path d="M90.6541 127.628H89.746C89.3925 127.628 89.0536 127.487 88.8037 127.237C88.5537 126.987 88.4133 126.648 88.4133 126.295C88.4133 125.942 88.5537 125.603 88.8037 125.353C89.0536 125.103 89.3925 124.962 89.746 124.962H90.6541C91.0075 124.962 91.3465 125.103 91.5964 125.353C91.8463 125.603 91.9867 125.942 91.9867 126.295C91.9867 126.648 91.8463 126.987 91.5964 127.237C91.3465 127.487 91.0075 127.628 90.6541 127.628Z" fill="white"/>
<path d="M84.7583 127.628H67.2295C66.8761 127.628 66.5371 127.487 66.2872 127.237C66.0373 126.987 65.8969 126.648 65.8969 126.295C65.8969 125.942 66.0373 125.603 66.2872 125.353C66.5371 125.103 66.8761 124.962 67.2295 124.962H84.7605C85.114 124.962 85.4529 125.103 85.7029 125.353C85.9528 125.603 86.0932 125.942 86.0932 126.295C86.0932 126.648 85.9528 126.987 85.7029 127.237C85.4529 127.487 85.114 127.628 84.7605 127.628H84.7583Z" fill="white"/>
</svg>
