<svg fill="none" height="168" viewBox="0 0 168 168" width="168" xmlns="http://www.w3.org/2000/svg"><path d="m19.858 112.814h-2.604c-.9531.002-1.8972-.184-2.7784-.547s-1.6821-.897-2.3569-1.57-1.2102-1.472-1.5756-2.353c-.3654-.88-.55367-1.823-.55396-2.777v-65.792c.00148-.9523.19056-1.895.55656-2.7743.366-.8792.9016-1.6777 1.5762-2.3498.6747-.6721 1.4752-1.2047 2.3558-1.5674.8806-.3626 1.824-.5482 2.7763-.5461h111.992c.953-.0021 1.896.1835 2.777.5461.88.3627 1.681.8953 2.355 1.5674.675.6721 1.211 1.4706 1.577 2.3498.366.8793.555 1.822.556 2.7743v2.6108" fill="#27ccbc"/><path d="m146.371 52.2322v-2.6108c-.001-.9523-.191-1.895-.556-2.7742-.366-.8792-.902-1.6777-1.577-2.3499-.674-.6721-1.475-1.2047-2.355-1.5674-.881-.3626-1.824-.5482-2.777-.5461h-111.9899c-.9524-.0021-1.8958.1835-2.7764.5461-.8805.3627-1.681.8953-2.3557 1.5674-.6747.6722-1.2103 1.4707-1.5762 2.3499-.366.8792-.5551 1.8219-.5566 2.7742v65.8016c.0015.952.1906 1.895.5566 2.774.3659.879.9015 1.678 1.5762 2.35s1.4752 1.205 2.3557 1.567c.8806.363 1.824.549 2.7764.547h2.6108" fill="#27ccbc"/><path d="m156.24 100.948v-41.4669c-.001-.9524-.191-1.8951-.557-2.7743-.365-.8792-.901-1.6777-1.576-2.3498-.674-.6722-1.475-1.2048-2.356-1.5674-.88-.3627-1.824-.5483-2.776-.5462h-111.9877c-.9524-.0021-1.8958.1835-2.7763.5462-.8806.3626-1.6811.8952-2.3558 1.5674-.6746.6721-1.2103 1.4706-1.5762 2.3498-.366.8792-.5551 1.8219-.5566 2.7743v65.7899c.0015.953.1906 1.895.5566 2.774.3659.88.9016 1.678 1.5762 2.35.6747.672 1.4752 1.205 2.3558 1.568.8805.362 1.8239.548 2.7763.546h96.2957" fill="#21b3a9"/><path d="m133.283 133.646h-96.2958c-2.2231 0-4.3556-.881-5.9301-2.45-1.5746-1.57-2.4627-3.699-2.4699-5.922v-65.7928c.0072-2.2231.8953-4.3527 2.4699-5.9221 1.5745-1.5695 3.707-2.4507 5.9301-2.4507h111.9928c2.223 0 4.355.8812 5.93 2.4507 1.574 1.5694 2.462 3.699 2.47 5.9221v41.4668c0 .301-.12.589-.333.802s-.501.333-.803.333c-.301 0-.589-.12-.802-.333s-.333-.501-.333-.802v-41.4668c-.007-1.621-.656-3.1732-1.805-4.3168-1.148-1.1437-2.703-1.7857-4.324-1.7857h-111.9928c-1.621 0-3.176.642-4.3248 1.7857-1.1488 1.1436-1.7978 2.6958-1.805 4.3168v65.7898c.0072 1.621.6562 3.173 1.805 4.317s2.7038 1.786 4.3248 1.786h96.2958c.301 0 .59.119.803.332.212.213.332.502.332.803s-.12.59-.332.803c-.213.212-.502.332-.803.332z" fill="#323c6b"/><path d="m136.443 39.1759c-.681-.2223-1.393-.3357-2.109-.336h-111.9832c-.9522-.0021-1.8954.1834-2.7758.5459-.8805.3625-1.6809.8949-2.3555 1.5668s-1.2103 1.4701-1.5764 2.3491c-.3661.8789-.5554 1.8214-.5572 2.7735v65.7968c-.008.201.008.402.0477.6-1.4879-.442-2.793-1.353-3.7203-2.597s-1.42691-2.755-1.42415-4.307v-65.7928c-.00001-.9526.18815-1.8959.55355-2.7757.3655-.8797.9011-1.6787 1.5761-2.3509.675-.6723 1.4761-1.2046 2.3573-1.5665s1.8253-.5461 2.7779-.5422h111.983c1.817-.0073 3.57.6726 4.906 1.9034 1.336 1.2307 2.158 2.9213 2.3 4.7326z" fill="#21b3a9"/><path d="m146.321 49.0243c-.681-.2223-1.393-.3356-2.109-.336h-111.9901c-.9515-.0018-1.894.1841-2.7735.547-.8796.363-1.6789.8958-2.3522 1.5681-.6734.6723-1.2075 1.4708-1.5718 2.3498-.3644.879-.5517 1.8212-.5514 2.7727v65.7951c-.0081.201.0079.402.0476.599-1.4887-.44-2.7951-1.35-3.7237-2.594-.9285-1.244-1.4293-2.755-1.4275-4.308v-65.7944c0-.9526.1881-1.8959.5536-2.7757.3654-.8797.901-1.6787 1.576-2.3509.675-.6723 1.4761-1.2046 2.3573-1.5665.8813-.3618 1.8253-.5461 2.778-.5422h111.9767c1.817-.0085 3.571.6709 4.908 1.9018 1.338 1.2309 2.16 2.9221 2.302 4.7342z" fill="#21b3a9"/><path d="m156.24 100.948v-41.4669c-.001-.9524-.191-1.8951-.557-2.7743-.365-.8792-.901-1.6777-1.576-2.3498-.674-.6722-1.475-1.2048-2.356-1.5674-.88-.3627-1.824-.5483-2.776-.5462h-111.9877c-.9524-.0021-1.8958.1835-2.7763.5462-.8806.3626-1.6811.8952-2.3558 1.5674-.6746.6721-1.2103 1.4706-1.5762 2.3498-.366.8792-.5551 1.8219-.5566 2.7743v65.7899c.0015.953.1906 1.895.5566 2.774.3659.88.9016 1.678 1.5762 2.35.6747.672 1.4752 1.205 2.3558 1.568.8805.362 1.8239.548 2.7763.546h96.2957" fill="#27ccbc"/><path d="m155.47 59.9692v41.4758l-22.954 31.557h-1.63l18.761-25.807v-41.4752c0-.9526-.188-1.8959-.553-2.7756-.366-.8798-.901-1.6787-1.576-2.351-.675-.6722-1.477-1.2046-2.358-1.5664-.881-.3619-1.825-.5462-2.778-.5423h-111.9853c-.4423.0032-.8835.0434-1.3191.1203.3236-1.6552 1.2131-3.1463 2.5158-4.2175 1.3028-1.0712 2.9376-1.6558 4.6242-1.6534h111.9924c1.922-.0024 3.766.7583 5.128 2.115 1.361 1.3567 2.128 3.1984 2.132 5.1203z" fill="#21b3a9"/><path d="m143.978 101.168v-25.0481c-1.529.0009-3.044-.2998-4.458-.8847-1.413-.585-2.697-1.4429-3.779-2.5245-1.082-1.0817-1.94-2.3659-2.524-3.7793-.585-1.4135-.886-2.9283-.885-4.458h-78.6969c.0003 1.5314-.3015 3.0479-.8881 4.4625s-1.4465 2.6997-2.5304 3.7815-2.3706 1.9392-3.7864 2.5231c-1.4158.5838-2.9328.8827-4.4643.8794v32.5031c1.531-.001 3.0472.299 4.4622.883 1.4149.585 2.7009 1.442 3.7845 2.524 1.0836 1.081 1.9435 2.366 2.5308 3.779.5872 1.414.8902 2.93.8917 4.461h74.5079" fill="#ebf0f3"/><path d="m128.143 121.407h-74.5079c-.301 0-.5897-.119-.8026-.332s-.3325-.502-.3325-.803c-.006-2.79-1.1185-5.463-3.0934-7.434-1.9748-1.971-4.6508-3.077-7.4407-3.077-.301 0-.5897-.12-.8026-.333s-.3325-.501-.3325-.802v-32.5084c0-.3011.1196-.5898.3325-.8027s.5016-.3325.8026-.3325c2.7899 0 5.4659-1.1067 7.4407-3.0773 1.9749-1.9706 3.0874-4.6442 3.0934-7.434 0-.3011.1196-.5898.3325-.8027s.5016-.3325.8026-.3325h78.6969c.301 0 .59.1196.802.3325.213.2129.333.5016.333.8027.003 2.7868 1.111 5.4587 3.082 7.4293s4.642 3.079 7.429 3.082c.301 0 .59.1196.803.3325s.332.5016.332.8027v25.0504c0 .301-.119.59-.332.802-.213.213-.502.333-.803.333s-.59-.12-.802-.333c-.213-.212-.333-.501-.333-.802v-23.9653c-2.984-.2699-5.778-1.5778-7.897-3.696-2.118-2.1182-3.427-4.9124-3.697-7.896h-76.5355c-.2729 2.987-1.585 5.7836-3.7078 7.9027s-4.9217 3.4263-7.9092 3.6939v30.3327c2.9875.268 5.7864 1.575 7.9092 3.694s3.4349 4.916 3.7078 7.903h73.4295c.301 0 .59.12.803.332.213.213.332.502.332.803s-.119.59-.332.803-.502.332-.803.332z" fill="#323c6b"/><path d="m92.9834 111.109c10.3466 0 18.7346-8.387 18.7346-18.7341 0-10.3467-8.388-18.7343-18.7346-18.7343s-18.7343 8.3876-18.7343 18.7343c0 10.3471 8.3877 18.7341 18.7343 18.7341z" fill="#27ccbc"/><path d="m110.823 93.1674c.002 2.7616-.608 5.4894-1.786 7.9876-1.177 2.498-2.893 4.704-5.025 6.46 2.254-3.151 3.461-6.931 3.451-10.8061 0-3.5541-1.011-7.0348-2.915-10.036-1.904-3.0011-4.6224-5.3989-7.8376-6.9136s-6.7949-2.0837-10.3213-1.6408c-3.5264.443-6.8542 1.8796-9.5949 4.1424 2.2924-3.2511 5.5607-5.6876 9.331-6.9561 3.7704-1.2686 7.8468-1.3033 11.6382-.0991 3.7916 1.2041 7.1006 3.5846 9.4486 6.7962 2.347 3.2117 3.61 7.0875 3.607 11.0655z" fill="#21b3a9"/><path d="m91.9255 103.863v-1.662c-1.7012-.07-3.349-.615-4.7562-1.573l.7447-2.0823c1.3324.8657 2.8857 1.3299 4.4747 1.3371 2.2067 0 3.6982-1.2736 3.6982-3.0467 0-1.7095-1.2123-2.7651-3.5121-3.6982-3.1784-1.2419-5.1285-2.6721-5.1285-5.376.0103-1.2931.4932-2.5377 1.3575-3.4995.8643-.9617 2.0505-1.5743 3.3351-1.7221v-1.6619h1.9252v1.5324c1.438.067 2.8325.5143 4.0411 1.2964l-.7764 2.0432c-1.184-.7043-2.5387-1.0695-3.9162-1.0557-2.3952 0-3.2942 1.4303-3.2942 2.6722 0 1.6164 1.151 2.4246 3.8595 3.5438 3.201 1.3054 4.8175 2.9219 4.8175 5.6871-.0171 1.3539-.5239 2.6558-1.4266 3.6652-.9027 1.009-2.1404 1.657-3.484 1.824l-.0704 1.757z" fill="#323c6b"/><path d="m58.3119 96.9088c2.5039 0 4.5338-2.0299 4.5338-4.5338s-2.0299-4.5337-4.5338-4.5337-4.5337 2.0298-4.5337 4.5337 2.0298 4.5338 4.5337 4.5338z" fill="#27ccbc"/><path d="m58.3141 98.044c-1.1225 0-2.2199-.3329-3.1532-.9565-.9334-.6237-1.6609-1.5101-2.0904-2.5472-.4296-1.0371-.542-2.1783-.323-3.2793.219-1.1009.7595-2.1122 1.5533-2.906s1.8051-1.3343 2.906-1.5533c1.101-.219 2.2422-.1066 3.2793.323 1.0371.4295 1.9235 1.157 2.5472 2.0904.6236.9333.9565 2.0307.9565 3.1532 0 1.5053-.598 2.9489-1.6624 4.0133s-2.508 1.6624-4.0133 1.6624zm0-9.0675c-.6735 0-1.3319.1997-1.8919.5739-.5601.3742-.9965.9061-1.2543 1.5283-.2577.6223-.3252 1.307-.1938 1.9676s.4558 1.2674.932 1.7436c.4763.4763 1.0831.8006 1.7436.932.6606.1314 1.3453.064 1.9676-.1938.6223-.2577 1.1541-.6942 1.5283-1.2542s.5739-1.2184.5739-1.892c0-.9031-.3588-1.7693-.9974-2.408-.6386-.6386-1.5048-.9974-2.408-.9974z" fill="#323c6b"/><path d="m127.653 96.9088c2.504 0 4.533-2.0299 4.533-4.5338s-2.029-4.5337-4.533-4.5337-4.534 2.0298-4.534 4.5337 2.03 4.5338 4.534 4.5338z" fill="#27ccbc"/><g fill="#323c6b"><path d="m127.653 98.044c-1.123 0-2.22-.3329-3.153-.9565-.934-.6237-1.661-1.5101-2.091-2.5472-.429-1.0371-.542-2.1783-.323-3.2793.219-1.1009.76-2.1122 1.554-2.906.793-.7938 1.805-1.3343 2.906-1.5533s2.242-.1066 3.279.323c1.037.4295 1.923 1.157 2.547 2.0904.624.9333.957 2.0307.957 3.1532 0 1.5053-.598 2.9489-1.663 4.0133-1.064 1.0644-2.508 1.6624-4.013 1.6624zm0-9.0675c-.674 0-1.332.1997-1.892.5739s-.997.9061-1.254 1.5283c-.258.6223-.326 1.307-.194 1.9676.131.6606.456 1.2674.932 1.7436.476.4763 1.083.8006 1.743.932.661.1314 1.346.064 1.968-.1938.622-.2577 1.154-.6942 1.528-1.2542.375-.56.574-1.2184.574-1.892 0-.9031-.359-1.7693-.997-2.408-.639-.6386-1.505-.9974-2.408-.9974z"/><path d="m2.27031 36.9736c-.12588 0-.2509-.0207-.37006-.0613-.28437-.098-.51822-.3049-.65017-.5752-.13196-.2703-.15124-.5819-.05361-.8664 1.04961-3.0658 3.02941-5.7279 5.66355-7.6153 2.63413-1.8874 5.79138-2.9061 9.03188-2.9142h3.4804c.301 0 .5897.1196.8026.3324.2129.2129.3325.5016.3325.8027s-.1196.5898-.3325.8027c-.2129.2128-.5016.3324-.8026.3324h-3.4804c-2.7694.0059-5.468.8759-7.71932 2.4888-2.25136 1.6128-3.94327 3.888-4.83979 6.5083-.07641.2216-.21957.4142-.40982.5512-.19024.137-.41824.2117-.65266.2139z"/><path d="m27.1593 27.2114h-2.3452c-.3011 0-.5898-.1196-.8027-.3324-.2129-.2129-.3324-.5016-.3324-.8027s.1195-.5898.3324-.8027c.2129-.2128.5016-.3324.8027-.3324h2.3452c.301 0 .5898.1196.8026.3324.2129.2129.3325.5016.3325.8027s-.1196.5898-.3325.8027c-.2128.2128-.5016.3324-.8026.3324z"/><path d="m19.8581 113.949h-2.604c-2.2246 0-4.3585-.882-5.9333-2.454-1.57474-1.571-2.46186-3.703-2.46667-5.927v-65.7929c.00721-2.2231.89539-4.3527 2.46987-5.9221 1.5746-1.5694 3.707-2.4507 5.9301-2.4507h111.9929c2.223 0 4.355.8813 5.93 2.4507 1.574 1.5694 2.462 3.699 2.47 5.9221v2.6085c0 .3011-.12.5898-.333.8027s-.502.3325-.803.3325-.589-.1196-.802-.3325-.333-.5016-.333-.8027v-2.6085c-.007-1.621-.656-3.1731-1.805-4.3168-1.148-1.1436-2.703-1.7857-4.324-1.7857h-111.9929c-1.621 0-3.176.6421-4.3247 1.7857-1.1488 1.1437-1.7978 2.6958-1.805 4.3168v65.7929c.0072 1.621.6562 3.173 1.805 4.316 1.1487 1.144 2.7037 1.786 4.3247 1.786h2.6108c.3011 0 .5898.12.8027.332.2129.213.3325.502.3325.803s-.1196.59-.3325.803-.5016.332-.8027.332z"/><path d="m29.727 123.796h-2.6108c-2.2231 0-4.3556-.882-5.9301-2.451-1.5745-1.57-2.4627-3.699-2.4699-5.922v-65.8017c.0072-2.2231.8954-4.3527 2.4699-5.9221s3.707-2.4507 5.9301-2.4507h111.9928c2.223 0 4.355.8813 5.93 2.4507 1.574 1.5694 2.462 3.699 2.47 5.9221v2.6108c0 .3011-.12.5898-.333.8027-.213.2128-.501.3324-.803.3324-.301 0-.589-.1196-.802-.3324-.213-.2129-.333-.5016-.333-.8027v-2.6108c-.007-1.621-.656-3.1731-1.805-4.3168-1.148-1.1436-2.703-1.7857-4.324-1.7857h-111.9928c-1.621 0-3.176.6421-4.3248 1.7857-1.1488 1.1437-1.7977 2.6958-1.8049 4.3168v65.8017c.0072 1.621.6561 3.173 1.8049 4.317 1.1488 1.143 2.7038 1.785 4.3248 1.785h2.6085c.3011 0 .5898.12.8027.333s.3325.501.3325.802-.1196.59-.3325.803-.5016.333-.8027.333z"/><path d="m133.283 133.646h-96.2957c-2.2231 0-4.3556-.881-5.9301-2.45-1.5745-1.57-2.4627-3.699-2.4699-5.922v-65.7928c.0072-2.2231.8954-4.3527 2.4699-5.9221 1.5745-1.5695 3.707-2.4507 5.9301-2.4507h111.9927c2.223 0 4.355.8812 5.93 2.4507 1.574 1.5694 2.463 3.699 2.47 5.9221v41.4668c0 .301-.12.589-.333.802s-.501.333-.802.333-.59-.12-.803-.333-.333-.501-.333-.802v-41.4668c-.007-1.621-.656-3.1732-1.805-4.3168-1.148-1.1437-2.703-1.7857-4.324-1.7857h-111.9927c-1.621 0-3.176.642-4.3248 1.7857-1.1488 1.1436-1.7977 2.6958-1.8049 4.3168v65.7898c.0072 1.621.6561 3.173 1.8049 4.317s2.7038 1.786 4.3248 1.786h96.2957c.301 0 .59.119.803.332s.332.502.332.803-.119.59-.332.803c-.213.212-.502.332-.803.332z"/></g><path d="m145.429 139.217c11.212 0 20.301-9.088 20.301-20.3s-9.089-20.301-20.301-20.301-20.301 9.089-20.301 20.301 9.089 20.3 20.301 20.3z" fill="#fcd462"/><path d="m165.73 119.316c.005 3.723-1.017 7.374-2.954 10.553-1.936 3.179-4.711 5.763-8.021 7.466 3.508-3.382 5.682-7.913 6.125-12.765.444-4.852-.873-9.702-3.71-13.664s-7.004-6.771-11.74-7.914c-4.737-1.144-9.727-.545-14.059 1.686 2.871-2.756 6.488-4.607 10.402-5.3232 3.914-.7165 7.953-.267 11.613 1.2922 3.661 1.56 6.782 4.161 8.977 7.48s3.365 7.21 3.367 11.189z" fill="#f7be56"/><path d="m145.445 107.343c.301 0 .59.12.803.332.212.213.332.502.332.803v20.887c0 .301-.12.589-.332.802-.213.213-.502.333-.803.333s-.59-.12-.803-.333-.332-.501-.332-.802v-20.887c0-.301.119-.59.332-.803.213-.212.502-.332.803-.332z" fill="#323c6b"/><path d="m145.445 107.343c.149 0 .297.029.435.086s.263.14.369.246l6.129 6.129c.207.214.321.501.319.799-.003.297-.122.582-.333.793-.21.21-.495.329-.792.332-.298.003-.585-.112-.799-.319l-5.335-5.335-5.337 5.335c-.214.207-.501.322-.799.319-.297-.003-.582-.122-.793-.332-.21-.211-.329-.496-.332-.793-.003-.298.112-.585.319-.799l6.129-6.129c.108-.108.236-.192.376-.249.141-.057.292-.085.444-.083z" fill="#323c6b"/><path d="m145.956 146.828c-.301.003-.591-.114-.806-.325s-.338-.498-.341-.799.114-.591.325-.806c.21-.215.498-.338.799-.341 3.425-.061 6.802-.812 9.93-2.209 3.127-1.396 5.941-3.409 8.273-5.918.102-.109.225-.196.361-.258.135-.061.282-.095.431-.1.149-.004.298.02.437.073.14.053.267.133.376.235s.196.224.258.36c.061.136.095.283.099.432.005.149-.02.298-.072.437-.053.139-.133.267-.235.376-2.537 2.732-5.6 4.925-9.004 6.446s-7.081 2.34-10.809 2.408z" fill="#323c6b"/><path d="m140.677 146.408c-.068 0-.137-.006-.204-.019-.715-.129-1.421-.297-2.118-.479-.145-.038-.28-.105-.399-.196-.119-.09-.219-.204-.294-.333-.075-.13-.124-.273-.144-.421-.019-.148-.01-.299.029-.444.038-.144.105-.28.195-.399.091-.119.205-.218.334-.293.13-.075.273-.124.421-.144s.299-.01.444.028c.637.168 1.285.323 1.943.441.279.05.528.203.7.428s.253.507.228.789-.154.545-.363.736c-.209.192-.482.298-.765.299z" fill="#323c6b"/><path d="m145.429 140.353c-4.24 0-8.384-1.257-11.909-3.613-3.525-2.355-6.273-5.703-7.895-9.62-1.623-3.917-2.047-8.227-1.22-12.385s2.869-7.978 5.867-10.976c2.997-2.997 6.817-5.039 10.975-5.8661 4.158-.8272 8.468-.4027 12.385 1.2198 3.917 1.6223 7.265 4.3703 9.62 7.8953 2.356 3.525 3.613 7.669 3.613 11.909-.007 5.683-2.267 11.131-6.286 15.15-4.018 4.019-9.467 6.279-15.15 6.286zm0-40.6018c-3.791 0-7.496 1.1238-10.648 3.2298s-5.608 5.099-7.059 8.601c-1.45 3.503-1.83 7.356-1.09 11.074.739 3.718 2.565 7.133 5.245 9.813s6.095 4.506 9.813 5.245c3.718.74 7.571.36 11.073-1.09 3.503-1.451 6.496-3.908 8.602-7.059 2.106-3.152 3.23-6.858 3.23-10.648-.006-5.081-2.027-9.953-5.62-13.546s-8.465-5.6138-13.546-5.6198z" fill="#323c6b"/><path d="m92.9812 112.244c-3.9297 0-7.7711-1.166-11.0383-3.349-3.2672-2.184-5.8135-5.287-7.3171-8.9179-1.5035-3.6307-1.8966-7.6257-1.1297-11.4798s2.6595-7.3943 5.4383-10.1729c2.7789-2.7785 6.3193-4.6707 10.1735-5.4372 3.8543-.7664 7.8492-.3728 11.4801 1.1311 3.63 1.5039 6.733 4.0507 8.916 7.3181 2.184 3.2675 3.349 7.1089 3.349 11.0386-.006 5.2683-2.102 10.319-5.827 14.044-3.726 3.725-8.7766 5.82-14.0448 5.825zm0-37.459c-3.4807.0004-6.8831 1.033-9.777 2.9671-2.8938 1.9341-5.1492 4.6828-6.4809 7.8987-1.3317 3.2158-1.6799 6.7544-1.0006 10.1681.6793 3.4138 2.3557 6.5491 4.8171 9.0101 2.4613 2.461 5.5972 4.137 9.011 4.816 3.4139.679 6.9524.33 10.1681-1.002 3.2161-1.332 5.9641-3.587 7.8981-6.482 1.933-2.8937 2.966-6.2962 2.966-9.7769-.003-4.6679-1.859-9.1438-5.159-12.4452-3.3-3.3013-7.775-5.1582-12.4428-5.163z" fill="#323c6b"/><path d="m90.6541 127.628h-.9081c-.3535 0-.6924-.141-.9423-.391-.25-.25-.3904-.589-.3904-.942s.1404-.692.3904-.942c.2499-.25.5888-.391.9423-.391h.9081c.3534 0 .6924.141.9423.391s.3903.589.3903.942-.1404.692-.3903.942-.5889.391-.9423.391z" fill="#fff"/><path d="m84.7583 127.628h-17.5288c-.3534 0-.6924-.141-.9423-.391s-.3903-.589-.3903-.942.1404-.692.3903-.942.5889-.391.9423-.391h17.531c.3535 0 .6924.141.9424.391.2499.25.3903.589.3903.942s-.1404.692-.3903.942c-.25.25-.5889.391-.9424.391z" fill="#fff"/></svg>