<svg width="130" height="131" viewBox="0 0 130 131" fill="none" xmlns="http://www.w3.org/2000/svg">
<path d="M103.591 113.05C89.9881 132.571 22.0051 132.571 8.40253 113.05C-6.09774 92.2285 43.5675 32.6956 43.5675 32.6956H68.4221C68.4221 32.6956 118.091 92.2285 103.591 113.05Z" fill="#E1E6E9"/>
<path d="M104.176 112.106C103.982 112.423 103.789 112.739 103.578 113.037C100.223 117.868 93.5296 121.505 85.1675 123.947C63.4715 130.271 30.4796 128.585 14.8445 118.852C33.0445 124.931 60.731 124.878 78.7026 118.641V115.181C78.7035 114.366 79.0277 113.584 79.6041 113.008C80.1804 112.431 80.9618 112.107 81.7769 112.106H78.0702C77.2551 112.105 76.4737 111.781 75.8973 111.205C75.321 110.629 74.9968 109.847 74.9958 109.032V103.358C74.9968 102.543 75.321 101.761 75.8973 101.185C76.4737 100.608 77.2551 100.284 78.0702 100.283H83.1472C82.3321 100.282 81.5507 99.9582 80.9743 99.3819C80.398 98.8055 80.0738 98.0241 80.0729 97.209V91.5171C80.0738 90.7021 80.398 89.9206 80.9743 89.3443C81.5507 88.7679 82.3321 88.4437 83.1472 88.4428H95.0229C94.968 88.2931 94.9211 88.1407 94.8823 87.9861C92.3111 87.3812 89.911 86.1999 87.8633 84.5315C85.8157 82.863 84.1739 80.7509 83.0622 78.3549C81.9505 75.9589 81.3979 73.3416 81.4461 70.7006C81.4943 68.0597 82.142 65.4643 83.3404 63.1104C76.9991 52.5444 69.9992 42.3878 62.3823 32.7009H68.4256C75.0855 40.8642 81.3186 49.3665 87.0999 58.1739C93.4324 67.5072 98.7392 77.4965 102.928 87.9685C102.999 88.1266 103.051 88.2847 103.104 88.4428C104.557 92.2577 105.548 96.2329 106.055 100.283C106.699 104.324 106.041 108.465 104.176 112.106Z" fill="#D5D6DB"/>
<path d="M55.9966 106.195C66.7914 106.195 75.5423 97.4437 75.5423 86.6489C75.5423 75.8542 66.7914 67.1033 55.9966 67.1033C45.2018 67.1033 36.4509 75.8542 36.4509 86.6489C36.4509 97.4437 45.2018 106.195 55.9966 106.195Z" fill="#FCD462"/>
<path d="M75.5404 86.6508C75.5422 90.6985 74.2873 94.6468 71.9489 97.9507C69.6105 101.254 66.304 103.751 62.486 105.095C58.668 106.439 54.5269 106.564 50.6345 105.454C46.7422 104.343 43.2907 102.052 40.7566 98.8954C44.6075 101.613 49.3103 102.848 53.9995 102.373C58.6886 101.899 63.0487 99.7467 66.2772 96.313C69.5056 92.8793 71.3853 88.395 71.5702 83.6855C71.7552 78.976 70.2329 74.3582 67.2836 70.6819C69.8356 72.4903 71.9171 74.884 73.3537 77.6624C74.7903 80.4408 75.5401 83.523 75.5404 86.6508Z" fill="#F7BE56"/>
<path d="M54.8881 98.4527V96.7451C53.1213 96.7395 51.391 96.2412 49.8918 95.3063L50.6736 93.1209C52.0716 94.0303 53.7017 94.5182 55.3694 94.5263C57.6848 94.5263 59.2501 93.1894 59.2501 91.3308C59.2501 89.5371 57.9782 88.4286 55.5609 87.4501C52.2354 86.1466 50.18 84.6393 50.18 81.8074C50.2001 80.4772 50.7152 79.2023 51.6247 78.2314C52.5342 77.2605 53.7728 76.6633 55.0989 76.5564V74.8489H57.1192V76.43C58.6072 76.4416 60.0673 76.8348 61.36 77.5718L60.5448 79.7239C59.3027 78.9846 57.8812 78.6011 56.4358 78.6154C53.9236 78.6154 52.9785 80.1156 52.9785 81.4262C52.9785 83.1214 54.1854 83.97 57.019 85.1435C60.3779 86.5137 62.0732 88.209 62.0732 91.1164C62.0475 92.5128 61.5076 93.8506 60.5568 94.8736C59.6061 95.8966 58.3114 96.533 56.9206 96.6608V98.4667L54.8881 98.4527Z" fill="#323C6B"/>
<path d="M7.55408 78.8298C7.42521 78.8297 7.29797 78.8009 7.18165 78.7455C6.97116 78.6461 6.80871 78.4673 6.72999 78.2482C6.65126 78.0292 6.6627 77.7878 6.76178 77.5772L6.96557 77.1415C7.22381 76.5917 7.48205 76.0401 7.76138 75.4761C7.81236 75.3723 7.88329 75.2796 7.97013 75.2032C8.05696 75.1268 8.15799 75.0682 8.26745 75.0309C8.37691 74.9935 8.49266 74.9781 8.60808 74.9854C8.7235 74.9928 8.83634 75.0228 8.94016 75.0738C9.04397 75.1248 9.13673 75.1958 9.21313 75.2826C9.28953 75.3694 9.34809 75.4705 9.38544 75.5799C9.4228 75.6894 9.43823 75.8051 9.43085 75.9205C9.42348 76.036 9.39344 76.1488 9.34246 76.2526C9.07016 76.806 8.81543 77.3471 8.56246 77.8882L8.35692 78.3256C8.28534 78.4776 8.17166 78.6059 8.02936 78.6953C7.88706 78.7847 7.72211 78.8313 7.55408 78.8298Z" fill="#323C6B"/>
<path d="M10.5266 72.9008C10.3839 72.9006 10.2434 72.8657 10.1172 72.7989C10.0153 72.745 9.92489 72.6714 9.85133 72.5826C9.77776 72.4937 9.72243 72.3912 9.6885 72.2809C9.65457 72.1706 9.6427 72.0547 9.65356 71.9398C9.66443 71.825 9.69782 71.7133 9.75183 71.6114C11.426 68.4492 13.2899 65.1764 15.2909 61.8754C16.5382 59.8183 17.8083 57.8068 19.0767 55.8445C19.2032 55.6488 19.4022 55.5114 19.6301 55.4625C19.8579 55.4135 20.0958 55.4571 20.2915 55.5836C20.4872 55.7101 20.6246 55.9092 20.6735 56.137C20.7224 56.3648 20.6789 56.6027 20.5524 56.7984C19.2928 58.7467 18.0314 60.7458 16.7929 62.7872C14.8078 66.06 12.9614 69.3048 11.3031 72.4335C11.2283 72.5747 11.1165 72.6927 10.9797 72.7751C10.8429 72.8574 10.6862 72.9009 10.5266 72.9008Z" fill="#323C6B"/>
<path d="M55.9967 128.567C38.5363 128.567 15.4051 124.634 7.68589 113.547C-7.02695 92.4235 40.8499 34.5841 42.8966 32.1316C42.979 32.0327 43.0821 31.9531 43.1987 31.8985C43.3152 31.8438 43.4424 31.8155 43.5712 31.8154H68.4222C68.551 31.8155 68.6782 31.8438 68.7947 31.8985C68.9113 31.9531 69.0144 32.0327 69.0968 32.1316C71.1435 34.5911 119.026 92.4218 104.311 113.545L103.591 113.05L104.311 113.552C96.5883 124.634 73.4571 128.567 55.9967 128.567ZM43.9858 33.5739C40.1367 38.268 -4.29871 93.2756 9.12291 112.542C15.1609 121.21 33.5594 126.81 55.9967 126.81C78.434 126.81 96.8325 121.21 102.87 112.542C116.297 93.272 71.8514 38.268 68.0076 33.5739H43.9858Z" fill="#323C6B"/>
<path d="M69.2038 32.6954H42.7892L31.0312 4.71558L43.3567 7.34544L55.9965 4.71558L67.7 9.03368L80.9618 4.71558L69.2038 32.6954Z" fill="#E1E6E9"/>
<path d="M69.2039 33.5739H42.7893C42.6164 33.574 42.4473 33.523 42.3032 33.4274C42.1591 33.3317 42.0465 33.1957 41.9794 33.0364L30.2162 5.05648C30.1539 4.90841 30.1334 4.7461 30.1569 4.58721C30.1805 4.42831 30.2471 4.27891 30.3497 4.15526C30.4514 4.03058 30.5857 3.93662 30.7377 3.88388C30.8897 3.83114 31.0534 3.8217 31.2105 3.85661L43.3532 6.44783L55.8121 3.85486C55.9734 3.82162 56.1408 3.8344 56.2952 3.89175L67.7141 8.10796L80.6843 3.89175C80.8443 3.83957 81.0159 3.83445 81.1788 3.87702C81.3416 3.91959 81.4888 4.00804 81.6028 4.13186C81.7168 4.25567 81.7928 4.40964 81.8218 4.57542C81.8508 4.74121 81.8316 4.91184 81.7664 5.06702L70.0137 33.0364C69.9466 33.1957 69.834 33.3317 69.6899 33.4274C69.5459 33.523 69.3768 33.574 69.2039 33.5739ZM43.3795 31.8172H68.6206L79.4053 6.14567L67.9724 9.86823C67.7846 9.92962 67.5816 9.92591 67.3962 9.8577L55.9281 5.62742L43.5359 8.20459C43.4161 8.23043 43.2921 8.23043 43.1722 8.20459L32.4999 5.92431L43.3795 31.8172Z" fill="#323C6B"/>
<path d="M70.6216 29.0168H41.3716C38.654 29.0168 36.4509 31.2199 36.4509 33.9375V33.9393C36.4509 36.6569 38.654 38.86 41.3716 38.86H70.6216C73.3392 38.86 75.5423 36.6569 75.5423 33.9393V33.9375C75.5423 31.2199 73.3392 29.0168 70.6216 29.0168Z" fill="#BBBBCD"/>
<path d="M75.5405 33.9306C75.5428 34.5781 75.4173 35.2196 75.1712 35.8184C74.925 36.4172 74.563 36.9616 74.106 37.4202C73.649 37.8788 73.106 38.2427 72.5081 38.491C71.9101 38.7393 71.2691 38.8671 70.6216 38.8671H65.7905C67.0974 38.8671 68.3508 38.348 69.2749 37.4238C70.1991 36.4997 70.7182 35.2463 70.7182 33.9394C70.7182 32.6325 70.1991 31.3791 69.2749 30.455C68.3508 29.5309 67.0974 29.0117 65.7905 29.0117H70.6216C71.925 29.0154 73.174 29.5349 74.0957 30.4565C75.0174 31.3782 75.5368 32.6272 75.5405 33.9306Z" fill="#9297AB"/>
<path d="M103.092 88.4497C112.723 88.4497 120.531 80.6418 120.531 71.0104C120.531 61.3789 112.723 53.571 103.092 53.571C93.4602 53.571 85.6523 61.3789 85.6523 71.0104C85.6523 80.6418 93.4602 88.4497 103.092 88.4497Z" fill="#FCD462"/>
<path d="M102.166 80.8658V79.4393C100.693 79.4346 99.2498 79.0197 97.999 78.2412L98.6525 76.4159C99.8206 77.1749 101.182 77.5817 102.575 77.5877C104.508 77.5877 105.817 76.4704 105.817 74.9192C105.817 73.4206 104.763 72.4948 102.739 71.678C99.9613 70.5888 98.245 69.3362 98.245 66.9663C98.2603 65.8536 98.6904 64.7866 99.451 63.9742C100.212 63.1619 101.248 62.6627 102.358 62.5744V61.1479H104.046V62.4655C105.288 62.4753 106.508 62.8038 107.587 63.4194L106.906 65.2166C105.868 64.599 104.681 64.2787 103.473 64.2908C101.376 64.2908 100.585 65.5434 100.585 66.6325C100.585 68.0485 101.593 68.7565 103.963 69.7367C106.774 70.8804 108.179 72.2963 108.179 74.7207C108.157 75.8867 107.705 77.0034 106.911 77.8577C106.117 78.7119 105.037 79.2437 103.875 79.3515V80.8605L102.166 80.8658Z" fill="#323C6B"/>
<path d="M117.457 112.11H85.9845C84.2866 112.11 82.9102 113.486 82.9102 115.184V120.866C82.9102 122.563 84.2866 123.94 85.9845 123.94H117.457C119.155 123.94 120.531 122.563 120.531 120.866V115.184C120.531 113.486 119.155 112.11 117.457 112.11Z" fill="#FCD462"/>
<path d="M113.757 100.28H82.2848C80.5869 100.28 79.2104 101.656 79.2104 103.354V109.035C79.2104 110.733 80.5869 112.11 82.2848 112.11H113.757C115.455 112.11 116.831 110.733 116.831 109.035V103.354C116.831 101.656 115.455 100.28 113.757 100.28Z" fill="#FCD462"/>
<path d="M118.829 88.4497H87.3566C85.6586 88.4497 84.2822 89.8261 84.2822 91.524V97.2054C84.2822 98.9033 85.6586 100.28 87.3566 100.28H118.829C120.527 100.28 121.903 98.9033 121.903 97.2054V91.524C121.903 89.8261 120.527 88.4497 118.829 88.4497Z" fill="#FCD462"/>
<path d="M120.535 71.0157C120.536 74.1823 119.673 77.289 118.038 80.001C116.403 82.713 114.059 84.9272 111.259 86.4049C114.32 83.5053 116.225 79.5943 116.623 75.397C117.02 71.1996 115.882 67.0005 113.421 63.5779C110.959 60.1552 107.339 57.7411 103.234 56.783C99.1278 55.8248 94.8139 56.3876 91.0913 58.3671C93.5641 56.0174 96.6719 54.4447 100.03 53.8439C103.387 53.243 106.848 53.6404 109.982 54.9869C113.116 56.3333 115.786 58.5696 117.662 61.4187C119.538 64.2678 120.537 67.6046 120.535 71.0157Z" fill="#F7BE56"/>
<path d="M121.905 91.5172V97.2091C121.904 98.0242 121.58 98.8056 121.003 99.3819C120.427 99.9583 119.646 100.282 118.831 100.283H118.903V94.2648C118.902 93.4497 118.577 92.6683 118.001 92.0919C117.425 91.5156 116.643 91.1914 115.828 91.1904H84.2751V91.5172C84.2788 90.703 84.6039 89.9232 85.1797 89.3474C85.7554 88.7717 86.5352 88.4466 87.3495 88.4429H118.831C119.646 88.4438 120.427 88.768 121.003 89.3443C121.58 89.9207 121.904 90.7021 121.905 91.5172Z" fill="#F7BE56"/>
<path d="M116.837 103.349V109.041C116.836 109.856 116.511 110.637 115.935 111.213C115.359 111.79 114.577 112.114 113.762 112.115H113.838V106.096C113.837 105.281 113.513 104.5 112.936 103.923C112.36 103.347 111.578 103.023 110.763 103.022H79.2068V103.349C79.2105 102.535 79.5356 101.755 80.1113 101.179C80.6871 100.603 81.4669 100.278 82.2811 100.274H113.762C114.577 100.275 115.359 100.6 115.935 101.176C116.511 101.752 116.836 102.534 116.837 103.349Z" fill="#F7BE56"/>
<path d="M120.536 115.181V120.872C120.536 121.688 120.211 122.469 119.635 123.045C119.059 123.622 118.277 123.946 117.462 123.947H117.527V117.926C117.526 117.111 117.202 116.33 116.626 115.754C116.049 115.177 115.268 114.853 114.453 114.852H82.9067V115.179C82.9104 114.365 83.2355 113.585 83.8113 113.009C84.387 112.433 85.1668 112.108 85.9811 112.104H117.462C118.278 112.105 119.059 112.43 119.636 113.007C120.212 113.583 120.536 114.365 120.536 115.181Z" fill="#F7BE56"/>
<path d="M90.3552 97.1369C90.1222 97.1369 89.8988 97.0443 89.7341 96.8796C89.5693 96.7149 89.4768 96.4914 89.4768 96.2585V92.4709C89.4768 92.2379 89.5693 92.0145 89.7341 91.8498C89.8988 91.6851 90.1222 91.5925 90.3552 91.5925C90.5881 91.5925 90.8116 91.6851 90.9763 91.8498C91.141 92.0145 91.2336 92.2379 91.2336 92.4709V96.2585C91.2336 96.4914 91.141 96.7149 90.9763 96.8796C90.8116 97.0443 90.5881 97.1369 90.3552 97.1369Z" fill="#323C6B"/>
<path d="M96.7234 97.1369C96.4904 97.1369 96.267 97.0443 96.1022 96.8796C95.9375 96.7149 95.845 96.4914 95.845 96.2585V92.4709C95.845 92.2379 95.9375 92.0145 96.1022 91.8498C96.267 91.6851 96.4904 91.5925 96.7234 91.5925C96.9563 91.5925 97.1797 91.6851 97.3445 91.8498C97.5092 92.0145 97.6017 92.2379 97.6017 92.4709V96.2585C97.6017 96.4914 97.5092 96.7149 97.3445 96.8796C97.1797 97.0443 96.9563 97.1369 96.7234 97.1369Z" fill="#323C6B"/>
<path d="M103.092 97.1369C102.859 97.1369 102.635 97.0443 102.471 96.8796C102.306 96.7149 102.213 96.4914 102.213 96.2585V92.4709C102.213 92.2379 102.306 92.0145 102.471 91.8498C102.635 91.6851 102.859 91.5925 103.092 91.5925C103.325 91.5925 103.548 91.6851 103.713 91.8498C103.878 92.0145 103.97 92.2379 103.97 92.4709V96.2585C103.97 96.4914 103.878 96.7149 103.713 96.8796C103.548 97.0443 103.325 97.1369 103.092 97.1369Z" fill="#323C6B"/>
<path d="M109.46 97.1369C109.227 97.1369 109.004 97.0443 108.839 96.8796C108.674 96.7149 108.582 96.4914 108.582 96.2585V92.4709C108.582 92.2379 108.674 92.0145 108.839 91.8498C109.004 91.6851 109.227 91.5925 109.46 91.5925C109.693 91.5925 109.916 91.6851 110.081 91.8498C110.246 92.0145 110.338 92.2379 110.338 92.4709V96.2585C110.338 96.4914 110.246 96.7149 110.081 96.8796C109.916 97.0443 109.693 97.1369 109.46 97.1369Z" fill="#323C6B"/>
<path d="M115.828 97.1369C115.595 97.1369 115.372 97.0443 115.207 96.8796C115.042 96.7149 114.95 96.4914 114.95 96.2585V92.4709C114.95 92.2379 115.042 92.0145 115.207 91.8498C115.372 91.6851 115.595 91.5925 115.828 91.5925C116.061 91.5925 116.284 91.6851 116.449 91.8498C116.614 92.0145 116.706 92.2379 116.706 92.4709V96.2585C116.706 96.4914 116.614 96.7149 116.449 96.8796C116.284 97.0443 116.061 97.1369 115.828 97.1369Z" fill="#323C6B"/>
<path d="M85.2851 108.967C85.0522 108.967 84.8287 108.874 84.664 108.71C84.4993 108.545 84.4067 108.321 84.4067 108.088V104.303C84.4067 104.07 84.4993 103.846 84.664 103.682C84.8287 103.517 85.0522 103.424 85.2851 103.424C85.5181 103.424 85.7415 103.517 85.9062 103.682C86.071 103.846 86.1635 104.07 86.1635 104.303V108.09C86.163 108.323 86.0703 108.546 85.9056 108.71C85.7409 108.875 85.5178 108.967 85.2851 108.967Z" fill="#323C6B"/>
<path d="M91.6535 108.967C91.4206 108.967 91.1971 108.874 91.0324 108.71C90.8677 108.545 90.7751 108.321 90.7751 108.088V104.303C90.7751 104.07 90.8677 103.846 91.0324 103.682C91.1971 103.517 91.4206 103.424 91.6535 103.424C91.8865 103.424 92.1099 103.517 92.2746 103.682C92.4394 103.846 92.5319 104.07 92.5319 104.303V108.09C92.5314 108.323 92.4387 108.546 92.274 108.71C92.1093 108.875 91.8862 108.967 91.6535 108.967Z" fill="#323C6B"/>
<path d="M98.0268 108.967C97.7939 108.967 97.5704 108.874 97.4057 108.71C97.241 108.545 97.1484 108.321 97.1484 108.088V104.303C97.1484 104.07 97.241 103.846 97.4057 103.682C97.5704 103.517 97.7939 103.424 98.0268 103.424C98.2598 103.424 98.4832 103.517 98.6479 103.682C98.8126 103.846 98.9052 104.07 98.9052 104.303V108.09C98.9047 108.323 98.812 108.546 98.6473 108.71C98.4826 108.875 98.2595 108.967 98.0268 108.967Z" fill="#323C6B"/>
<path d="M104.39 108.967C104.157 108.967 103.933 108.874 103.769 108.71C103.604 108.545 103.511 108.321 103.511 108.088V104.303C103.511 104.07 103.604 103.846 103.769 103.682C103.933 103.517 104.157 103.424 104.39 103.424C104.623 103.424 104.846 103.517 105.011 103.682C105.176 103.846 105.268 104.07 105.268 104.303V108.09C105.268 108.323 105.175 108.546 105.01 108.71C104.846 108.875 104.623 108.967 104.39 108.967Z" fill="#323C6B"/>
<path d="M110.758 108.967C110.525 108.967 110.302 108.874 110.137 108.71C109.972 108.545 109.88 108.321 109.88 108.088V104.303C109.88 104.07 109.972 103.846 110.137 103.682C110.302 103.517 110.525 103.424 110.758 103.424C110.991 103.424 111.214 103.517 111.379 103.682C111.544 103.846 111.636 104.07 111.636 104.303V108.09C111.636 108.323 111.543 108.546 111.378 108.71C111.214 108.875 110.991 108.967 110.758 108.967Z" fill="#323C6B"/>
<path d="M88.9848 120.799C88.7519 120.799 88.5284 120.706 88.3637 120.541C88.199 120.377 88.1064 120.153 88.1064 119.92V116.133C88.1064 115.9 88.199 115.676 88.3637 115.512C88.5284 115.347 88.7519 115.254 88.9848 115.254C89.2178 115.254 89.4412 115.347 89.6059 115.512C89.7707 115.676 89.8632 115.9 89.8632 116.133V119.92C89.8632 120.153 89.7707 120.377 89.6059 120.541C89.4412 120.706 89.2178 120.799 88.9848 120.799Z" fill="#323C6B"/>
<path d="M95.3532 120.799C95.1203 120.799 94.8969 120.706 94.7321 120.541C94.5674 120.377 94.4749 120.153 94.4749 119.92V116.133C94.4749 115.9 94.5674 115.676 94.7321 115.512C94.8969 115.347 95.1203 115.254 95.3532 115.254C95.5862 115.254 95.8096 115.347 95.9743 115.512C96.1391 115.676 96.2316 115.9 96.2316 116.133V119.92C96.2316 120.153 96.1391 120.377 95.9743 120.541C95.8096 120.706 95.5862 120.799 95.3532 120.799Z" fill="#323C6B"/>
<path d="M101.716 120.799C101.483 120.799 101.26 120.706 101.095 120.541C100.93 120.377 100.838 120.153 100.838 119.92V116.133C100.838 115.9 100.93 115.676 101.095 115.512C101.26 115.347 101.483 115.254 101.716 115.254C101.949 115.254 102.173 115.347 102.337 115.512C102.502 115.676 102.595 115.9 102.595 116.133V119.92C102.595 120.153 102.502 120.377 102.337 120.541C102.173 120.706 101.949 120.799 101.716 120.799Z" fill="#323C6B"/>
<path d="M108.09 120.799C107.857 120.799 107.633 120.706 107.468 120.541C107.304 120.377 107.211 120.153 107.211 119.92V116.133C107.211 115.9 107.304 115.676 107.468 115.512C107.633 115.347 107.857 115.254 108.09 115.254C108.323 115.254 108.546 115.347 108.711 115.512C108.875 115.676 108.968 115.9 108.968 116.133V119.92C108.968 120.153 108.875 120.377 108.711 120.541C108.546 120.706 108.323 120.799 108.09 120.799Z" fill="#323C6B"/>
<path d="M114.458 120.799C114.225 120.799 114.002 120.706 113.837 120.541C113.672 120.377 113.58 120.153 113.58 119.92V116.133C113.58 115.9 113.672 115.676 113.837 115.512C114.002 115.347 114.225 115.254 114.458 115.254C114.691 115.254 114.914 115.347 115.079 115.512C115.244 115.676 115.336 115.9 115.336 116.133V119.92C115.336 120.153 115.244 120.377 115.079 120.541C114.914 120.706 114.691 120.799 114.458 120.799Z" fill="#323C6B"/>
<path d="M106.758 49.5025C106.71 49.5028 106.663 49.4992 106.616 49.4919C105.987 49.3889 105.35 49.3104 104.706 49.2565C104.591 49.2468 104.479 49.2145 104.377 49.1614C104.274 49.1084 104.183 49.0356 104.109 48.9474C104.034 48.8591 103.978 48.757 103.943 48.647C103.908 48.537 103.895 48.4211 103.905 48.3061C103.912 48.1902 103.943 48.0768 103.995 47.973C104.047 47.8692 104.12 47.7771 104.209 47.7022C104.298 47.6273 104.401 47.5712 104.512 47.5373C104.623 47.5035 104.74 47.4925 104.855 47.505C105.543 47.5636 106.224 47.6473 106.899 47.7563C107.118 47.7905 107.315 47.9062 107.453 48.0802C107.59 48.2542 107.656 48.4737 107.639 48.6946C107.621 48.9155 107.52 49.1215 107.357 49.2713C107.194 49.4212 106.98 49.5037 106.758 49.5025Z" fill="#323C6B"/>
<path d="M124.25 63.6847C124.073 63.6848 123.9 63.6315 123.754 63.5318C123.608 63.4322 123.496 63.2907 123.431 63.126C122.317 60.2812 120.622 57.7004 118.453 55.5489C116.284 53.3974 113.689 51.7227 110.835 50.632C110.728 50.5909 110.629 50.529 110.545 50.4498C110.461 50.3706 110.393 50.2756 110.346 50.1703C110.299 50.065 110.273 49.9514 110.27 49.8361C110.266 49.7207 110.286 49.6058 110.327 49.498C110.368 49.3901 110.43 49.2914 110.509 49.2075C110.588 49.1236 110.683 49.0561 110.788 49.0088C110.894 48.9616 111.007 48.9356 111.123 48.9323C111.238 48.9289 111.353 48.9483 111.461 48.9894C114.543 50.1679 117.345 51.9769 119.688 54.3008C122.031 56.6247 123.863 59.4122 125.067 62.4848C125.119 62.618 125.138 62.7619 125.121 62.904C125.105 63.046 125.055 63.182 124.974 63.3001C124.893 63.4181 124.785 63.5147 124.659 63.5815C124.532 63.6482 124.391 63.683 124.248 63.6829L124.25 63.6847Z" fill="#323C6B"/>
<path d="M118.829 101.158H87.3563C86.3082 101.157 85.3034 100.74 84.5623 99.9993C83.8212 99.2582 83.4045 98.2534 83.4036 97.2053V91.524C83.4045 90.476 83.8212 89.4711 84.5623 88.73C85.3034 87.989 86.3082 87.5722 87.3563 87.5713H118.829C119.877 87.5722 120.881 87.989 121.623 88.73C122.364 89.4711 122.78 90.476 122.781 91.524V97.2053C122.78 98.2534 122.364 99.2582 121.623 99.9993C120.881 100.74 119.877 101.157 118.829 101.158ZM87.3563 89.3333C86.774 89.3338 86.2157 89.5653 85.804 89.977C85.3923 90.3887 85.1608 90.947 85.1603 91.5293V97.2106C85.1608 97.7929 85.3923 98.3512 85.804 98.7629C86.2157 99.1746 86.774 99.4061 87.3563 99.4066H118.829C119.411 99.4061 119.969 99.1746 120.381 98.7629C120.793 98.3512 121.024 97.7929 121.025 97.2106V91.524C121.024 90.9417 120.793 90.3835 120.381 89.9717C119.969 89.56 119.411 89.3285 118.829 89.328L87.3563 89.3333Z" fill="#323C6B"/>
<path d="M113.757 112.988H82.2845C81.2365 112.987 80.2316 112.57 79.4905 111.829C78.7495 111.088 78.3327 110.083 78.3318 109.035V103.354C78.3327 102.306 78.7495 101.301 79.4905 100.56C80.2316 99.819 81.2365 99.4023 82.2845 99.4014H113.757C114.804 99.4042 115.807 99.8217 116.546 100.563C117.286 101.303 117.702 102.307 117.702 103.354V109.035C117.702 110.082 117.286 111.086 116.546 111.827C115.807 112.568 114.804 112.985 113.757 112.988ZM82.2845 101.158C81.7022 101.159 81.144 101.39 80.7322 101.802C80.3205 102.214 80.089 102.772 80.0885 103.354V109.035C80.089 109.618 80.3205 110.176 80.7322 110.588C81.144 110.999 81.7022 111.231 82.2845 111.231H113.757C114.338 111.229 114.894 110.997 115.305 110.585C115.715 110.174 115.945 109.616 115.946 109.035V103.354C115.945 102.772 115.714 102.214 115.302 101.802C114.89 101.39 114.332 101.159 113.75 101.158H82.2845Z" fill="#323C6B"/>
<path d="M117.457 124.82H85.9844C84.9364 124.819 83.9316 124.402 83.1905 123.661C82.4494 122.92 82.0327 121.915 82.0317 120.867V115.184C82.0327 114.136 82.4494 113.131 83.1905 112.39C83.9316 111.649 84.9364 111.232 85.9844 111.231H117.457C118.505 111.232 119.51 111.649 120.251 112.39C120.992 113.131 121.409 114.136 121.409 115.184V120.867C121.409 121.915 120.992 122.92 120.251 123.661C119.51 124.402 118.505 124.819 117.457 124.82ZM85.9844 112.988C85.4022 112.988 84.8439 113.22 84.4322 113.632C84.0205 114.043 83.789 114.602 83.7885 115.184V120.867C83.789 121.449 84.0205 122.008 84.4322 122.419C84.8439 122.831 85.4022 123.062 85.9844 123.063H117.457C118.039 123.062 118.597 122.831 119.009 122.419C119.421 122.008 119.652 121.449 119.653 120.867V115.184C119.652 114.602 119.421 114.043 119.009 113.632C118.597 113.22 118.039 112.988 117.457 112.988H85.9844Z" fill="#323C6B"/>
<path d="M103.092 89.3334C99.469 89.3334 95.9276 88.2592 92.9154 86.2467C89.9032 84.2342 87.5554 81.3736 86.1688 78.0268C84.7822 74.68 84.4192 70.9972 85.1255 67.444C85.8319 63.8909 87.5759 60.627 90.1372 58.065C92.6985 55.503 95.9619 53.758 99.5148 53.0506C103.068 52.3432 106.751 52.7052 110.098 54.0908C113.445 55.4765 116.306 57.8235 118.32 60.8351C120.333 63.8467 121.408 67.3878 121.409 71.0104C121.405 75.8678 119.474 80.5251 116.04 83.9603C112.606 87.3954 107.949 89.3278 103.092 89.3334ZM103.092 54.4548C99.816 54.4548 96.6139 55.4262 93.8903 57.2462C91.1668 59.0661 89.0441 61.6529 87.7908 64.6793C86.5375 67.7058 86.2099 71.0359 86.8493 74.2485C87.4887 77.4612 89.0665 80.4121 91.3831 82.7279C93.6998 85.0438 96.6511 86.6207 99.864 87.2591C103.077 87.8975 106.407 87.5688 109.433 86.3145C112.459 85.0603 115.045 82.9368 116.864 80.2127C118.683 77.4885 119.654 74.2861 119.653 71.0104C119.647 66.6198 117.901 62.4104 114.796 59.3057C111.692 56.2011 107.482 54.4546 103.092 54.4495V54.4548Z" fill="#323C6B"/>
<path d="M70.6215 39.7401H41.3715C39.834 39.7401 38.3594 39.1293 37.2722 38.0421C36.185 36.9549 35.5742 35.4803 35.5742 33.9428C35.5742 32.4053 36.185 30.9307 37.2722 29.8435C38.3594 28.7563 39.834 28.1455 41.3715 28.1455H70.6215C72.159 28.1455 73.6336 28.7563 74.7208 29.8435C75.808 30.9307 76.4188 32.4053 76.4188 33.9428C76.4188 35.4803 75.808 36.9549 74.7208 38.0421C73.6336 39.1293 72.159 39.7401 70.6215 39.7401ZM41.3733 29.9023C40.3017 29.9023 39.2739 30.328 38.5162 31.0857C37.7584 31.8435 37.3327 32.8712 37.3327 33.9428C37.3327 35.0144 37.7584 36.0422 38.5162 36.7999C39.2739 37.5576 40.3017 37.9833 41.3733 37.9833H70.6215C71.6931 37.9833 72.7209 37.5576 73.4786 36.7999C74.2364 36.0422 74.662 35.0144 74.662 33.9428C74.662 32.8712 74.2364 31.8435 73.4786 31.0857C72.7209 30.328 71.6931 29.9023 70.6215 29.9023H41.3733Z" fill="#323C6B"/>
<path d="M45.7847 45.2757H44.1053C43.8024 45.2757 43.512 45.1554 43.2978 44.9413C43.0837 44.7271 42.9634 44.4367 42.9634 44.1338C42.9634 43.831 43.0837 43.5405 43.2978 43.3264C43.512 43.1122 43.8024 42.9919 44.1053 42.9919H45.7847C46.0876 42.9919 46.378 43.1122 46.5922 43.3264C46.8063 43.5405 46.9266 43.831 46.9266 44.1338C46.9266 44.4367 46.8063 44.7271 46.5922 44.9413C46.378 45.1554 46.0876 45.2757 45.7847 45.2757Z" fill="white"/>
<path d="M67.0467 45.2757H51.2359C50.933 45.2757 50.6426 45.1554 50.4284 44.9413C50.2143 44.7271 50.094 44.4367 50.094 44.1338C50.094 43.831 50.2143 43.5405 50.4284 43.3264C50.6426 43.1122 50.933 42.9919 51.2359 42.9919H67.0467C67.3495 42.9919 67.64 43.1122 67.8541 43.3264C68.0683 43.5405 68.1886 43.831 68.1886 44.1338C68.1886 44.4367 68.0683 44.7271 67.8541 44.9413C67.64 45.1554 67.3495 45.2757 67.0467 45.2757Z" fill="white"/>
<path d="M55.9966 107.077C51.9572 107.077 48.0084 105.88 44.6495 103.636C41.2906 101.392 38.6726 98.2023 37.1263 94.4705C35.5801 90.7388 35.1752 86.6323 35.9628 82.6704C36.7504 78.7085 38.6951 75.0691 41.551 72.2125C44.407 69.3558 48.0458 67.4101 52.0075 66.6215C55.9692 65.8329 60.0758 66.2368 63.808 67.782C67.5402 69.3273 70.7303 71.9445 72.975 75.3028C75.2198 78.6611 76.4182 82.6096 76.4189 86.6491C76.4138 92.0643 74.2607 97.2564 70.4321 101.086C66.6034 104.916 61.4119 107.07 55.9966 107.077ZM55.9966 67.9853C52.3044 67.9849 48.6949 69.0795 45.6248 71.1307C42.5547 73.1818 40.1617 76.0973 38.7487 79.5085C37.3356 82.9197 36.9659 86.6733 37.6863 90.2946C38.4067 93.9159 40.1848 97.2423 42.7957 99.853C45.4067 102.464 48.7332 104.241 52.3546 104.961C55.976 105.682 59.7295 105.311 63.1406 103.898C66.5516 102.485 69.4669 100.092 71.5178 97.0212C73.5686 93.9509 74.6629 90.3413 74.6622 86.6491C74.6566 81.7002 72.6883 76.9556 69.1891 73.4561C65.6899 69.9565 60.9455 67.9878 55.9966 67.9818V67.9853Z" fill="#323C6B"/>
</svg>
