<svg fill="none" height="131" viewBox="0 0 130 131" width="130" xmlns="http://www.w3.org/2000/svg"><path d="m103.591 113.05c-13.6029 19.521-81.5859 19.521-95.18847 0-14.50027-20.8215 35.16497-80.3544 35.16497-80.3544h24.8546s49.6689 59.5329 35.1689 80.3544z" fill="#e1e6e9"/><path d="m104.176 112.106c-.194.317-.387.633-.598.931-3.355 4.831-10.0484 8.468-18.4105 10.91-21.696 6.324-54.6879 4.638-70.323-5.095 18.2 6.079 45.8865 6.026 63.8581-.211v-3.46c.0009-.815.3251-1.597.9015-2.173.5763-.577 1.3577-.901 2.1728-.902h-3.7067c-.8151-.001-1.5965-.325-2.1729-.901-.5763-.576-.9005-1.358-.9015-2.173v-5.674c.001-.815.3252-1.597.9015-2.173.5764-.577 1.3578-.901 2.1729-.902h5.077c-.8151-.001-1.5965-.3248-2.1729-.9011-.5763-.5764-.9005-1.3578-.9014-2.1729v-5.6919c.0009-.815.3251-1.5965.9014-2.1728.5764-.5764 1.3578-.9006 2.1729-.9015h11.8757c-.0549-.1497-.1018-.3021-.1406-.4567-2.5712-.6049-4.9713-1.7862-7.019-3.4546-2.0476-1.6685-3.6894-3.7806-4.8011-6.1766s-1.6643-5.0133-1.6161-7.6543c.0482-2.6409.6959-5.2363 1.8943-7.5902-6.3413-10.566-13.3412-20.7226-20.9581-30.4095h6.0433c6.6599 8.1633 12.893 16.6656 18.6743 25.473 6.3325 9.3333 11.6393 19.3226 15.8281 29.7946.071.1581.123.3162.176.4743 1.453 3.8149 2.444 7.7901 2.951 11.8402.644 4.041-.014 8.182-1.879 11.823z" fill="#d5d6db"/><path d="m55.9966 106.195c10.7948 0 19.5457-8.7513 19.5457-19.5461 0-10.7947-8.7509-19.5456-19.5457-19.5456s-19.5457 8.7509-19.5457 19.5456c0 10.7948 8.7509 19.5461 19.5457 19.5461z" fill="#fcd462"/><path d="m75.5404 86.6508c.0018 4.0477-1.2531 7.996-3.5915 11.2999-2.3384 3.3033-5.6449 5.8003-9.4629 7.1443s-7.9591 1.469-11.8515.359c-3.8923-1.111-7.3438-3.402-9.8779-6.5586 3.8509 2.7176 8.5537 3.9526 13.2429 3.4776 4.6891-.474 9.0492-2.6263 12.2777-6.06 3.2284-3.4337 5.1081-7.918 5.293-12.6275.185-4.7095-1.3373-9.3273-4.2866-13.0036 2.552 1.8084 4.6335 4.2021 6.0701 6.9805s2.1864 5.8606 2.1867 8.9884z" fill="#f7be56"/><path d="m54.8881 98.4527v-1.7076c-1.7668-.0056-3.4971-.5039-4.9963-1.4388l.7818-2.1854c1.398.9094 3.0281 1.3973 4.6958 1.4054 2.3154 0 3.8807-1.3369 3.8807-3.1955 0-1.7937-1.2719-2.9022-3.6892-3.8807-3.3255-1.3035-5.3809-2.8108-5.3809-5.6427.0201-1.3302.5352-2.6051 1.4447-3.576s2.1481-1.5681 3.4742-1.675v-1.7075h2.0203v1.5811c1.488.0116 2.9481.4048 4.2408 1.1418l-.8152 2.1521c-1.2421-.7393-2.6636-1.1228-4.109-1.1085-2.5122 0-3.4573 1.5002-3.4573 2.8108 0 1.6952 1.2069 2.5438 4.0405 3.7173 3.3589 1.3702 5.0542 3.0655 5.0542 5.9729-.0257 1.3964-.5656 2.7342-1.5164 3.7572-.9507 1.023-2.2454 1.6594-3.6362 1.7872v1.8059z" fill="#323c6b"/><path d="m7.55408 78.8298c-.12887-.0001-.25611-.0289-.37243-.0843-.21049-.0994-.37294-.2782-.45166-.4973-.07873-.219-.06729-.4604.03179-.671l.20379-.4357c.25824-.5498.51648-1.1014.79581-1.6654.05098-.1038.12191-.1965.20875-.2729.08683-.0764.18786-.135.29732-.1723.10946-.0374.22521-.0528.34063-.0455.11542.0074.22826.0374.33208.0884.10381.051.19657.122.27297.2088s.13496.1879.17231.2973c.03736.1095.05279.2252.04541.3406-.00737.1155-.03741.2283-.08839.3321-.2723.5534-.52703 1.0945-.78 1.6356l-.20554.4374c-.07158.152-.18526.2803-.32756.3697s-.30725.136-.47528.1345z" fill="#323c6b"/><path d="m10.5266 72.9008c-.1427-.0002-.2832-.0351-.4094-.1019-.1019-.0539-.19231-.1275-.26587-.2163-.07357-.0889-.1289-.1914-.16283-.3017s-.0458-.2262-.03494-.3411c.01087-.1148.04426-.2265.09827-.3284 1.67417-3.1622 3.53807-6.435 5.53907-9.736 1.2473-2.0571 2.5174-4.0686 3.7858-6.0309.1265-.1957.3255-.3331.5534-.382.2278-.049.4657-.0054.6614.1211s.3331.3256.382.5534.0054.4657-.1211.6614c-1.2596 1.9483-2.521 3.9474-3.7595 5.9888-1.9851 3.2728-3.8315 6.5176-5.4898 9.6463-.0748.1412-.1866.2592-.3234.3416-.1368.0823-.2935.1258-.4531.1257z" fill="#323c6b"/><path d="m55.9967 128.567c-17.4604 0-40.5916-3.933-48.31081-15.02-14.71284-21.1235 33.16401-78.9629 35.21071-81.4154.0824-.0989.1855-.1785.3021-.2331.1165-.0547.2437-.083.3725-.0831h24.851c.1288.0001.256.0284.3725.0831.1166.0546.2197.1342.3021.2331 2.0467 2.4595 49.9292 60.2902 35.2142 81.4134l-.72-.495.72.502c-7.7227 11.082-30.8539 15.015-48.3143 15.015zm-12.0109-94.9931c-3.8491 4.6941-48.28451 59.7017-34.86289 78.9681 6.03799 8.668 24.43649 14.268 46.87379 14.268s40.8358-5.6 46.8733-14.268c13.427-19.27-31.0186-74.274-34.8624-78.9681z" fill="#323c6b"/><path d="m69.2038 32.6954h-26.4146l-11.758-27.97982 12.3255 2.62986 12.6398-2.62986 11.7035 4.3181 13.2618-4.3181z" fill="#e1e6e9"/><path d="m69.2039 33.5739h-26.4146c-.1729.0001-.342-.0509-.4861-.1465-.1441-.0957-.2567-.2317-.3238-.391l-11.7632-27.97992c-.0623-.14807-.0828-.31038-.0593-.46927.0236-.1589.0902-.3083.1928-.43195.1017-.12468.236-.21864.388-.27138s.3157-.06218.4728-.02727l12.1427 2.59122 12.4589-2.59297c.1613-.03324.3287-.02046.4831.03689l11.4189 4.21621 12.9702-4.21621c.16-.05218.3316-.0573.4945-.01473.1628.04257.31.13102.424.25484.114.12381.19.27778.219.44356.029.16579.0098.33642-.0554.4916l-11.7527 27.96938c-.0671.1593-.1797.2953-.3238.391-.144.0956-.3131.1466-.486.1465zm-25.8244-1.7567h25.2411l10.7847-25.67153-11.4329 3.72256c-.1878.06139-.3908.05768-.5762-.01053l-11.4681-4.23028-12.3922 2.57717c-.1198.02584-.2438.02584-.3637 0l-10.6723-2.28028z" fill="#323c6b"/><path d="m70.6216 29.0168h-29.25c-2.7176 0-4.9207 2.2031-4.9207 4.9207v.0018c0 2.7176 2.2031 4.9207 4.9207 4.9207h29.25c2.7176 0 4.9207-2.2031 4.9207-4.9207v-.0018c0-2.7176-2.2031-4.9207-4.9207-4.9207z" fill="#bbbbcd"/><path d="m75.5405 33.9306c.0023.6475-.1232 1.289-.3693 1.8878-.2462.5988-.6082 1.1432-1.0652 1.6018s-1 .8225-1.5979 1.0708c-.598.2483-1.239.3761-1.8865.3761h-4.8311c1.3069 0 2.5603-.5191 3.4844-1.4433.9242-.9241 1.4433-2.1775 1.4433-3.4844s-.5191-2.5603-1.4433-3.4844c-.9241-.9241-2.1775-1.4433-3.4844-1.4433h4.8311c1.3034.0037 2.5524.5232 3.4741 1.4448.9217.9217 1.4411 2.1707 1.4448 3.4741z" fill="#9297ab"/><path d="m103.092 88.4497c9.631 0 17.439-7.8079 17.439-17.4393 0-9.6315-7.808-17.4394-17.439-17.4394-9.6318 0-17.4397 7.8079-17.4397 17.4394 0 9.6314 7.8079 17.4393 17.4397 17.4393z" fill="#fcd462"/><path d="m102.166 80.8658v-1.4265c-1.473-.0047-2.9162-.4196-4.167-1.1981l.6535-1.8253c1.1681.759 2.5295 1.1658 3.9225 1.1718 1.933 0 3.242-1.1173 3.242-2.6685 0-1.4986-1.054-2.4244-3.078-3.2412-2.7777-1.0892-4.494-2.3418-4.494-4.7117.0153-1.1127.4454-2.1797 1.206-2.9921.761-.8123 1.797-1.3115 2.907-1.3998v-1.4265h1.688v1.3176c1.242.0098 2.462.3383 3.541.9539l-.681 1.7972c-1.038-.6176-2.225-.9379-3.433-.9258-2.097 0-2.888 1.2526-2.888 2.3417 0 1.416 1.008 2.124 3.378 3.1042 2.811 1.1437 4.216 2.5596 4.216 4.984-.022 1.166-.474 2.2827-1.268 3.137-.794.8542-1.874 1.386-3.036 1.4938v1.509z" fill="#323c6b"/><path d="m117.457 112.11h-31.4725c-1.6979 0-3.0743 1.376-3.0743 3.074v5.682c0 1.697 1.3764 3.074 3.0743 3.074h31.4725c1.698 0 3.074-1.377 3.074-3.074v-5.682c0-1.698-1.376-3.074-3.074-3.074z" fill="#fcd462"/><path d="m113.757 100.28h-31.4722c-1.6979 0-3.0744 1.376-3.0744 3.074v5.681c0 1.698 1.3765 3.075 3.0744 3.075h31.4722c1.698 0 3.074-1.377 3.074-3.075v-5.681c0-1.698-1.376-3.074-3.074-3.074z" fill="#fcd462"/><path d="m118.829 88.4497h-31.4724c-1.698 0-3.0744 1.3764-3.0744 3.0743v5.6814c0 1.6979 1.3764 3.0746 3.0744 3.0746h31.4724c1.698 0 3.074-1.3767 3.074-3.0746v-5.6814c0-1.6979-1.376-3.0743-3.074-3.0743z" fill="#fcd462"/><path d="m120.535 71.0157c.001 3.1666-.862 6.2733-2.497 8.9853s-3.979 4.9262-6.779 6.4039c3.061-2.8996 4.966-6.8106 5.364-11.0079.397-4.1974-.741-8.3965-3.202-11.8191-2.462-3.4227-6.082-5.8368-10.187-6.7949-4.1062-.9582-8.4201-.3954-12.1427 1.5841 2.4728-2.3497 5.5806-3.9224 8.9387-4.5232 3.357-.6009 6.818-.2035 9.952 1.143 3.134 1.3464 5.804 3.5827 7.68 6.4318s2.875 6.1859 2.873 9.597z" fill="#f7be56"/><path d="m121.905 91.5172v5.6919c-.001.8151-.325 1.5965-.902 2.1728-.576.5764-1.357.9001-2.172.9011h.072v-6.0182c-.001-.8151-.326-1.5965-.902-2.1729-.576-.5763-1.358-.9005-2.173-.9015h-31.5529v.3268c.0037-.8142.3288-1.594.9046-2.1698.5757-.5757 1.3555-.9008 2.1698-.9045h31.4815c.815.0009 1.596.3251 2.172.9014.577.5764.901 1.3578.902 2.1729z" fill="#f7be56"/><path d="m116.837 103.349v5.692c-.001.815-.326 1.596-.902 2.172-.576.577-1.358.901-2.173.902h.076v-6.019c-.001-.815-.325-1.596-.902-2.173-.576-.576-1.358-.9-2.173-.901h-31.5562v.327c.0037-.814.3288-1.594.9045-2.17.5758-.576 1.3556-.901 2.1698-.905h31.4809c.815.001 1.597.326 2.173.902s.901 1.358.902 2.173z" fill="#f7be56"/><path d="m120.536 115.181v5.691c0 .816-.325 1.597-.901 2.173-.576.577-1.358.901-2.173.902h.065v-6.021c-.001-.815-.325-1.596-.901-2.172-.577-.577-1.358-.901-2.173-.902h-31.5463v.327c.0037-.814.3288-1.594.9046-2.17.5757-.576 1.3555-.901 2.1698-.905h31.4809c.816.001 1.597.326 2.174.903.576.576.9 1.358.9 2.174z" fill="#f7be56"/><g fill="#323c6b"><path d="m90.3552 97.1369c-.233 0-.4564-.0926-.6211-.2573-.1648-.1647-.2573-.3882-.2573-.6211v-3.7876c0-.233.0925-.4564.2573-.6211.1647-.1647.3881-.2573.6211-.2573.2329 0 .4564.0926.6211.2573s.2573.3881.2573.6211v3.7876c0 .2329-.0926.4564-.2573.6211s-.3882.2573-.6211.2573z"/><path d="m96.7234 97.1369c-.233 0-.4564-.0926-.6212-.2573-.1647-.1647-.2572-.3882-.2572-.6211v-3.7876c0-.233.0925-.4564.2572-.6211.1648-.1647.3882-.2573.6212-.2573.2329 0 .4563.0926.6211.2573.1647.1647.2572.3881.2572.6211v3.7876c0 .2329-.0925.4564-.2572.6211-.1648.1647-.3882.2573-.6211.2573z"/><path d="m103.092 97.1369c-.233 0-.457-.0926-.621-.2573-.165-.1647-.258-.3882-.258-.6211v-3.7876c0-.233.093-.4564.258-.6211.164-.1647.388-.2573.621-.2573s.456.0926.621.2573.257.3881.257.6211v3.7876c0 .2329-.092.4564-.257.6211s-.388.2573-.621.2573z"/><path d="m109.46 97.1369c-.233 0-.456-.0926-.621-.2573s-.257-.3882-.257-.6211v-3.7876c0-.233.092-.4564.257-.6211s.388-.2573.621-.2573.456.0926.621.2573.257.3881.257.6211v3.7876c0 .2329-.092.4564-.257.6211s-.388.2573-.621.2573z"/><path d="m115.828 97.1369c-.233 0-.456-.0926-.621-.2573s-.257-.3882-.257-.6211v-3.7876c0-.233.092-.4564.257-.6211s.388-.2573.621-.2573.456.0926.621.2573.257.3881.257.6211v3.7876c0 .2329-.092.4564-.257.6211s-.388.2573-.621.2573z"/><path d="m85.2851 108.967c-.2329 0-.4564-.093-.6211-.257-.1647-.165-.2573-.389-.2573-.622v-3.785c0-.233.0926-.457.2573-.621.1647-.165.3882-.258.6211-.258.233 0 .4564.093.6211.258.1648.164.2573.388.2573.621v3.787c-.0005.233-.0932.456-.2579.62-.1647.165-.3878.257-.6205.257z"/><path d="m91.6535 108.967c-.2329 0-.4564-.093-.6211-.257-.1647-.165-.2573-.389-.2573-.622v-3.785c0-.233.0926-.457.2573-.621.1647-.165.3882-.258.6211-.258.233 0 .4564.093.6211.258.1648.164.2573.388.2573.621v3.787c-.0005.233-.0932.456-.2579.62-.1647.165-.3878.257-.6205.257z"/><path d="m98.0268 108.967c-.2329 0-.4564-.093-.6211-.257-.1647-.165-.2573-.389-.2573-.622v-3.785c0-.233.0926-.457.2573-.621.1647-.165.3882-.258.6211-.258.233 0 .4564.093.6211.258.1647.164.2573.388.2573.621v3.787c-.0005.233-.0932.456-.2579.62-.1647.165-.3878.257-.6205.257z"/><path d="m104.39 108.967c-.233 0-.457-.093-.621-.257-.165-.165-.258-.389-.258-.622v-3.785c0-.233.093-.457.258-.621.164-.165.388-.258.621-.258s.456.093.621.258c.165.164.257.388.257.621v3.787c0 .233-.093.456-.258.62-.164.165-.387.257-.62.257z"/><path d="m110.758 108.967c-.233 0-.456-.093-.621-.257-.165-.165-.257-.389-.257-.622v-3.785c0-.233.092-.457.257-.621.165-.165.388-.258.621-.258s.456.093.621.258c.165.164.257.388.257.621v3.787c0 .233-.093.456-.258.62-.164.165-.387.257-.62.257z"/><path d="m88.9848 120.799c-.2329 0-.4564-.093-.6211-.258-.1647-.164-.2573-.388-.2573-.621v-3.787c0-.233.0926-.457.2573-.621.1647-.165.3882-.258.6211-.258.233 0 .4564.093.6211.258.1648.164.2573.388.2573.621v3.787c0 .233-.0925.457-.2573.621-.1647.165-.3881.258-.6211.258z"/><path d="m95.3532 120.799c-.2329 0-.4563-.093-.6211-.258-.1647-.164-.2572-.388-.2572-.621v-3.787c0-.233.0925-.457.2572-.621.1648-.165.3882-.258.6211-.258.233 0 .4564.093.6211.258.1648.164.2573.388.2573.621v3.787c0 .233-.0925.457-.2573.621-.1647.165-.3881.258-.6211.258z"/><path d="m101.716 120.799c-.233 0-.456-.093-.621-.258-.165-.164-.257-.388-.257-.621v-3.787c0-.233.092-.457.257-.621.165-.165.388-.258.621-.258s.457.093.621.258c.165.164.258.388.258.621v3.787c0 .233-.093.457-.258.621-.164.165-.388.258-.621.258z"/><path d="m108.09 120.799c-.233 0-.457-.093-.622-.258-.164-.164-.257-.388-.257-.621v-3.787c0-.233.093-.457.257-.621.165-.165.389-.258.622-.258s.456.093.621.258c.164.164.257.388.257.621v3.787c0 .233-.093.457-.257.621-.165.165-.388.258-.621.258z"/><path d="m114.458 120.799c-.233 0-.456-.093-.621-.258-.165-.164-.257-.388-.257-.621v-3.787c0-.233.092-.457.257-.621.165-.165.388-.258.621-.258s.456.093.621.258c.165.164.257.388.257.621v3.787c0 .233-.092.457-.257.621-.165.165-.388.258-.621.258z"/><path d="m106.758 49.5025c-.048.0003-.095-.0033-.142-.0106-.629-.103-1.266-.1815-1.91-.2354-.115-.0097-.227-.042-.329-.0951-.103-.053-.194-.1258-.268-.214-.075-.0883-.131-.1904-.166-.3004s-.048-.2259-.038-.3409c.007-.1159.038-.2293.09-.3331s.125-.1959.214-.2708.192-.131.303-.1649c.111-.0338.228-.0448.343-.0323.688.0586 1.369.1423 2.044.2513.219.0342.416.1499.554.3239.137.174.203.3935.186.6144-.018.2209-.119.4269-.282.5767-.163.1499-.377.2324-.599.2312z"/><path d="m124.25 63.6847c-.177.0001-.35-.0532-.496-.1529-.146-.0996-.258-.2411-.323-.4058-1.114-2.8448-2.809-5.4256-4.978-7.5771s-4.764-3.8262-7.618-4.9169c-.107-.0411-.206-.103-.29-.1822s-.152-.1742-.199-.2795-.073-.2189-.076-.3342c-.004-.1154.016-.2303.057-.3381.041-.1079.103-.2066.182-.2905s.174-.1514.279-.1987c.106-.0472.219-.0732.335-.0765.115-.0034.23.016.338.0571 3.082 1.1785 5.884 2.9875 8.227 5.3114s4.175 5.1114 5.379 8.184c.052.1332.071.2771.054.4192-.016.142-.066.278-.147.3961-.081.118-.189.2146-.315.2814-.127.0667-.268.1015-.411.1014z"/><path d="m118.829 101.158h-31.4727c-1.0481-.001-2.0529-.418-2.794-1.1587-.7411-.7411-1.1578-1.7459-1.1587-2.794v-5.6813c.0009-1.048.4176-2.0529 1.1587-2.794.7411-.741 1.7459-1.1578 2.794-1.1587h31.4727c1.048.0009 2.052.4177 2.794 1.1587.741.7411 1.157 1.746 1.158 2.794v5.6813c-.001 1.0481-.417 2.0529-1.158 2.794-.742.7407-1.746 1.1577-2.794 1.1587zm-31.4727-11.8247c-.5823.0005-1.1406.232-1.5523.6437s-.6432.97-.6437 1.5523v5.6813c.0005.5823.232 1.1406.6437 1.5523s.97.6432 1.5523.6437h31.4727c.582-.0005 1.14-.232 1.552-.6437s.643-.97.644-1.5523v-5.6866c-.001-.5823-.232-1.1405-.644-1.5523-.412-.4117-.97-.6432-1.552-.6437z"/><path d="m113.757 112.988h-31.4725c-1.048-.001-2.0529-.418-2.794-1.159-.741-.741-1.1578-1.746-1.1587-2.794v-5.681c.0009-1.048.4177-2.053 1.1587-2.794.7411-.741 1.746-1.1577 2.794-1.1586h31.4725c1.047.0028 2.05.4203 2.789 1.1616.74.74 1.156 1.744 1.156 2.791v5.681c0 1.047-.416 2.051-1.156 2.792-.739.741-1.742 1.158-2.789 1.161zm-31.4725-11.83c-.5823.001-1.1405.232-1.5523.644-.4117.412-.6432.97-.6437 1.552v5.681c.0005.583.232 1.141.6437 1.553.4118.411.97.643 1.5523.643h31.4725c.581-.002 1.137-.234 1.548-.646.41-.411.64-.969.641-1.55v-5.681c-.001-.582-.232-1.14-.644-1.552s-.97-.643-1.552-.644z"/><path d="m117.457 124.82h-31.4726c-1.048-.001-2.0528-.418-2.7939-1.159s-1.1578-1.746-1.1588-2.794v-5.683c.001-1.048.4177-2.053 1.1588-2.794s1.7459-1.158 2.7939-1.159h31.4726c1.048.001 2.053.418 2.794 1.159s1.158 1.746 1.158 2.794v5.683c0 1.048-.417 2.053-1.158 2.794s-1.746 1.158-2.794 1.159zm-31.4726-11.832c-.5822 0-1.1405.232-1.5522.644-.4117.411-.6432.97-.6437 1.552v5.683c.0005.582.232 1.141.6437 1.552.4117.412.97.643 1.5522.644h31.4726c.582-.001 1.14-.232 1.552-.644.412-.411.643-.97.644-1.552v-5.683c-.001-.582-.232-1.141-.644-1.552-.412-.412-.97-.644-1.552-.644z"/><path d="m103.092 89.3334c-3.623 0-7.1644-1.0742-10.1766-3.0867s-5.36-4.8731-6.7466-8.2199-1.7496-7.0296-1.0433-10.5828c.7064-3.5531 2.4504-6.817 5.0117-9.379s5.8247-4.307 9.3776-5.0144c3.5532-.7074 7.2362-.3454 10.5832 1.0402 3.347 1.3857 6.208 3.7327 8.222 6.7443 2.013 3.0116 3.088 6.5527 3.089 10.1753-.004 4.8574-1.935 9.5147-5.369 12.9499-3.434 3.4351-8.091 5.3675-12.948 5.3731zm0-34.8786c-3.276 0-6.4781.9714-9.2017 2.7914-2.7235 1.8199-4.8462 4.4067-6.0995 7.4331-1.2533 3.0265-1.5809 6.3566-.9415 9.5692.6394 3.2127 2.2172 6.1636 4.5338 8.4794 2.3167 2.3159 5.268 3.8928 8.4809 4.5312 3.213.6384 6.543.3097 9.569-.9446 3.026-1.2542 5.612-3.3777 7.431-6.1018 1.819-2.7242 2.79-5.9266 2.789-9.2023-.006-4.3906-1.752-8.6-4.857-11.7047-3.104-3.1046-7.314-4.8511-11.704-4.8562z"/><path d="m70.6215 39.7401h-29.25c-1.5375 0-3.0121-.6108-4.0993-1.698s-1.698-2.5618-1.698-4.0993.6108-3.0121 1.698-4.0993 2.5618-1.698 4.0993-1.698h29.25c1.5375 0 3.0121.6108 4.0993 1.698s1.698 2.5618 1.698 4.0993-.6108 3.0121-1.698 4.0993-2.5618 1.698-4.0993 1.698zm-29.2482-9.8378c-1.0716 0-2.0994.4257-2.8571 1.1834-.7578.7578-1.1835 1.7855-1.1835 2.8571s.4257 2.0994 1.1835 2.8571c.7577.7577 1.7855 1.1834 2.8571 1.1834h29.2482c1.0716 0 2.0994-.4257 2.8571-1.1834.7578-.7577 1.1834-1.7855 1.1834-2.8571s-.4256-2.0993-1.1834-2.8571c-.7577-.7577-1.7855-1.1834-2.8571-1.1834z"/></g><path d="m45.7847 45.2757h-1.6794c-.3029 0-.5933-.1203-.8075-.3344-.2141-.2142-.3344-.5046-.3344-.8075 0-.3028.1203-.5933.3344-.8074.2142-.2142.5046-.3345.8075-.3345h1.6794c.3029 0 .5933.1203.8075.3345.2141.2141.3344.5046.3344.8074 0 .3029-.1203.5933-.3344.8075-.2142.2141-.5046.3344-.8075.3344z" fill="#fff"/><path d="m67.0467 45.2757h-15.8108c-.3029 0-.5933-.1203-.8075-.3344-.2141-.2142-.3344-.5046-.3344-.8075 0-.3028.1203-.5933.3344-.8074.2142-.2142.5046-.3345.8075-.3345h15.8108c.3028 0 .5933.1203.8074.3345.2142.2141.3345.5046.3345.8074 0 .3029-.1203.5933-.3345.8075-.2141.2141-.5046.3344-.8074.3344z" fill="#fff"/><path d="m55.9966 107.077c-4.0394 0-7.9882-1.197-11.3471-3.441s-5.9769-5.4337-7.5232-9.1655c-1.5462-3.7317-1.9511-7.8382-1.1635-11.8001s2.7323-7.6013 5.5882-10.4579c2.856-2.8567 6.4948-4.8024 10.4565-5.591s8.0683-.3847 11.8005 1.1605c3.7322 1.5453 6.9223 4.1625 9.167 7.5208 2.2448 3.3583 3.4432 7.3068 3.4439 11.3463-.0051 5.4152-2.1582 10.6073-5.9868 14.4369-3.8287 3.83-9.0202 5.984-14.4355 5.991zm0-39.0917c-3.6922-.0004-7.3017 1.0942-10.3718 3.1454-3.0701 2.0511-5.4631 4.9666-6.8761 8.3778-1.4131 3.4112-1.7828 7.1648-1.0624 10.7861s2.4985 6.9477 5.1094 9.5584c2.611 2.611 5.9375 4.388 9.5589 5.108 3.6214.721 7.3749.35 10.786-1.063 3.411-1.413 6.3263-3.806 8.3772-6.8768 2.0508-3.0703 3.1451-6.6799 3.1444-10.3721-.0056-4.9489-1.9739-9.6935-5.4731-13.193-3.4992-3.4996-8.2436-5.4683-13.1925-5.4743z" fill="#323c6b"/></svg>