<svg width="88" height="89" viewBox="0 0 88 89" fill="none" xmlns="http://www.w3.org/2000/svg">
<path d="M44 5.61621C22.7391 5.61621 5.5 22.8553 5.5 44.1162C5.5 65.3771 22.7391 82.6162 44 82.6162C65.2609 82.6162 82.5 65.3771 82.5 44.1162C82.5 22.8553 65.2609 5.61621 44 5.61621ZM56.3836 44.7092L37.6148 58.3646C37.5119 58.4386 37.3907 58.4827 37.2643 58.4922C37.138 58.5017 37.0114 58.4762 36.8986 58.4185C36.7859 58.3607 36.6912 58.273 36.625 58.165C36.5588 58.057 36.5236 57.9328 36.5234 57.8061V30.5123C36.523 30.3853 36.5578 30.2607 36.6238 30.1523C36.6899 30.0439 36.7847 29.9559 36.8977 29.8981C37.0107 29.8402 37.1376 29.8148 37.2641 29.8246C37.3907 29.8344 37.5121 29.8791 37.6148 29.9537L56.3836 43.6006C56.4723 43.6633 56.5446 43.7464 56.5945 43.8428C56.6444 43.9393 56.6705 44.0463 56.6705 44.1549C56.6705 44.2635 56.6444 44.3705 56.5945 44.467C56.5446 44.5634 56.4723 44.6465 56.3836 44.7092Z" fill="white"/>
</svg>
